<?xml version="1.0" encoding="UTF-8" standalone="no"?>
<!-- Generator: Adobe Illustrator 19.0.0, SVG Export Plug-In . SVG Version: 6.00 Build 0)  -->

<svg
   xmlns:dc="http://purl.org/dc/elements/1.1/"
   xmlns:cc="http://creativecommons.org/ns#"
   xmlns:rdf="http://www.w3.org/1999/02/22-rdf-syntax-ns#"
   xmlns:svg="http://www.w3.org/2000/svg"
   xmlns="http://www.w3.org/2000/svg"
   xmlns:sodipodi="http://sodipodi.sourceforge.net/DTD/sodipodi-0.dtd"
   xmlns:inkscape="http://www.inkscape.org/namespaces/inkscape"
   version="1.1"
   id="Capa_1"
   x="0px"
   y="0px"
   viewBox="0 0 512 512"
   style="enable-background:new 0 0 512 512;"
   xml:space="preserve"
   sodipodi:docname="valores.svg"
   inkscape:version="0.92.4 (5da689c313, 2019-01-14)"><metadata
   id="metadata55"><rdf:RDF><cc:Work
       rdf:about=""><dc:format>image/svg+xml</dc:format><dc:type
         rdf:resource="http://purl.org/dc/dcmitype/StillImage" /></cc:Work></rdf:RDF></metadata><defs
   id="defs53" /><sodipodi:namedview
   pagecolor="#ffffff"
   bordercolor="#666666"
   borderopacity="1"
   objecttolerance="10"
   gridtolerance="10"
   guidetolerance="10"
   inkscape:pageopacity="0"
   inkscape:pageshadow="2"
   inkscape:window-width="1920"
   inkscape:window-height="1017"
   id="namedview51"
   showgrid="false"
   inkscape:zoom="0.4609375"
   inkscape:cx="-144.27119"
   inkscape:cy="256"
   inkscape:window-x="-8"
   inkscape:window-y="-8"
   inkscape:window-maximized="1"
   inkscape:current-layer="g16" />
<g
   id="g6"
   style="fill:#001242;fill-opacity:1;stroke:none;stroke-width:0;stroke-miterlimit:4;stroke-dasharray:none;stroke-opacity:1"
   transform="matrix(0.87213915,0,0,0.87213915,26.033833,42.050718)">
	<g
   id="g4"
   style="fill:#001242;fill-opacity:1;stroke:none;stroke-width:0;stroke-miterlimit:4;stroke-dasharray:none;stroke-opacity:1">
		<path
   d="m 509.042,355.862 -24.409,-24.21 c -3.923,-3.891 -10.255,-3.864 -14.145,0.058 -3.891,3.922 -3.864,10.255 0.058,14.145 l 24.408,24.21 c 1.95,1.935 4.497,2.901 7.043,2.901 2.573,0 5.146,-0.987 7.101,-2.959 3.892,-3.922 3.866,-10.255 -0.056,-14.145 z"
   id="path2"
   style="fill:#001242;fill-opacity:1;stroke:none;stroke-width:0;stroke-miterlimit:4;stroke-dasharray:none;stroke-opacity:1"
   inkscape:connector-curvature="0" />
	</g>
</g>
<g
   id="g12"
   style="fill:#001242;fill-opacity:1;stroke:none;stroke-width:0;stroke-miterlimit:4;stroke-dasharray:none;stroke-opacity:1"
   transform="matrix(0.87213915,0,0,0.87213915,26.033833,42.050718)">
	<g
   id="g10"
   style="fill:#001242;fill-opacity:1;stroke:none;stroke-width:0;stroke-miterlimit:4;stroke-dasharray:none;stroke-opacity:1">
		<path
   d="m 459.762,306.881 c -3.906,-3.906 -10.237,-3.906 -14.145,0 l -0.017,0.017 c -3.906,3.906 -3.897,10.231 0.009,14.137 1.95,1.951 4.509,2.926 7.067,2.926 2.564,0 5.13,-0.979 7.085,-2.934 3.906,-3.906 3.906,-10.239 10e-4,-14.146 z"
   id="path8"
   style="fill:#001242;fill-opacity:1;stroke:none;stroke-width:0;stroke-miterlimit:4;stroke-dasharray:none;stroke-opacity:1"
   inkscape:connector-curvature="0" />
	</g>
</g>
<g
   id="g18"
   style="fill:#001242;fill-opacity:1;stroke:none;stroke-width:0;stroke-miterlimit:4;stroke-dasharray:none;stroke-opacity:1"
   transform="matrix(0.7835087,0,0,0.7835087,45.559213,52.808132)">
	<g
   id="g16"
   style="fill:#001242;fill-opacity:1;stroke:none;stroke-width:0;stroke-miterlimit:4;stroke-dasharray:none;stroke-opacity:1">
		<path
   d="m 391.93519,379.20154 108.0038,-108.00269 c 16.3573,-16.35841 16.3573,-42.97534 -10e-4,-59.33375 -5.76819,-5.76818 -12.81313,-9.49268 -20.23318,-11.19242 2.54459,-5.46987 3.89146,-11.47292 3.89146,-17.68525 0,-11.20689 -4.36454,-21.74257 -12.28773,-29.66576 -6.21455,-6.21566 -14.03867,-10.22957 -22.53066,-11.67551 4.78085,-14.56629 1.40142,-31.24862 -10.16056,-42.809475 -6.35702,-6.35592 -14.26352,-10.229573 -22.51507,-11.645461 1.38249,-4.195349 2.11158,-8.625567 2.11158,-13.171548 0,-11.206892 -4.36454,-21.742572 -12.28773,-29.66576 -7.9243,-7.923187 -18.45998,-12.287731 -29.66576,-12.287731 -7.11617,0 -13.95852,1.765409 -20.03727,5.08028 l -1.07416,-1.154306 C 341.18805,20.989529 321.42683,12.386225 300.93541,12.386225 h -87.42444 c -6.14776,0 -11.13343,4.985664 -11.13343,11.133426 v 14.599681 c 0,5.842766 0.98845,11.530809 2.87853,16.87935 -5.03575,-2.091552 -10.48447,-3.190201 -16.10128,-3.190201 -11.20689,0 -21.74257,4.364543 -29.66687,12.28773 -11.56754,11.567543 -14.94364,28.262114 -10.15165,42.832849 -8.25824,1.41255 -16.17586,5.28843 -22.53846,11.64991 -7.92318,7.92431 -12.28773,18.45999 -12.28773,29.66576 0,4.53708 0.72687,8.96062 2.1038,13.14706 -8.48197,1.4504 -16.2983,5.46208 -22.507294,11.67218 -12.77527,12.77528 -15.57254,31.80963 -8.39181,47.32541 -7.60372,1.73758 -14.587434,5.56671 -20.239857,11.21802 -16.357297,16.3573 -16.357297,42.97422 0,59.33263 l 22.211197,22.21008 -109.346225,109.344 c -4.347846,4.34785 -4.347846,11.39723 0,15.74619 2.173923,2.17281 5.02351,3.26145 7.871984,3.26145 2.848474,0 5.6980612,-1.08752 7.8719842,-3.26145 L 104.48532,327.83884 c 6.25017,3.56644 13.34297,5.47433 20.7352,5.47433 11.20578,0 21.74146,-4.36455 29.66576,-12.28885 8.60887,-8.60775 12.68066,-20.05842 12.22762,-31.35881 0.56436,0.0234 1.12871,0.0401 1.69306,0.0401 10.74161,-10e-4 21.48878,-4.09072 29.66576,-12.26769 7.92319,-7.9243 12.28773,-18.45999 12.28773,-29.66576 0,-0.56658 -0.0189,-1.12982 -0.0412,-1.69306 0.55768,0.0223 1.11535,0.0401 1.67414,0.0401 10.74272,0 21.48766,-4.0896 29.66576,-12.26769 7.92318,-7.9243 12.28773,-18.45998 12.28773,-29.66576 0,-0.56658 -0.0189,-1.12982 -0.0412,-1.69306 0.55767,0.0223 1.11535,0.0401 1.67413,0.0401 10.74384,0 21.48767,-4.08961 29.66576,-12.2677 15.36996,-15.36996 16.29497,-39.79515 2.7828,-56.25931 l 73.90449,-73.904476 c 3.71893,-3.720047 8.66118,-5.767074 13.92068,-5.767074 5.25949,0 10.20285,2.047027 13.92179,5.767074 3.71893,3.718934 5.76596,8.661186 5.76596,13.920678 0,5.258378 -2.04703,10.202857 -5.76708,13.920678 l -10.89633,10.896335 -39.53579,39.535785 c -4.34785,4.34785 -4.34785,11.39723 0,15.74619 2.17392,2.17281 5.02351,3.26145 7.87198,3.26145 2.84848,0 5.69806,-1.08752 7.87199,-3.26145 l 39.53579,-39.53579 c 7.67496,-7.67607 20.16528,-7.67719 27.84247,-10e-4 7.67608,7.67719 7.67608,20.16639 0,27.84358 l -10.89744,10.89744 -28.63835,28.63835 c -4.34785,4.34785 -4.34785,11.39724 0,15.7462 2.17392,2.17281 5.02351,3.26144 7.87198,3.26144 2.84847,0 5.69806,-1.08752 7.87198,-3.26144 l 28.63835,-28.63835 c 3.71894,-3.72005 8.6623,-5.76708 13.92068,-5.76708 5.25949,0 10.20286,2.04703 13.92179,5.76708 3.71894,3.71893 5.76596,8.66118 5.76596,13.92068 0,5.25837 -2.04702,10.20285 -5.76707,13.92067 l -14.95699,14.957 -13.68136,13.68135 c -4.34785,4.34785 -4.34785,11.39724 0,15.7462 2.17392,2.17281 5.02351,3.26144 7.87198,3.26144 2.84848,0 5.69807,-1.08752 7.87199,-3.26144 l 13.69137,-13.69138 c 7.67719,-7.66383 20.15972,-7.66271 27.83245,0.01 7.67719,7.67608 7.67719,20.16639 0,27.84358 L 376.17786,363.46202 c -27.12005,27.12117 -63.16399,42.82172 -101.49205,44.21312 -2.8173,0.10241 -5.49324,1.27007 -7.4835,3.26924 L 167.43114,511.0851 c -4.34005,4.35564 -4.32781,11.40503 0.0289,15.74508 2.1717,2.16391 5.01461,3.24697 7.85752,3.24697 2.85515,0 5.71253,-1.09197 7.88645,-3.27591 l 73.38466,-73.65515 c 18.64031,11.95825 40.56209,17.64407 62.85232,16.1703 l 57.43476,57.43587 c 2.17392,2.17281 5.02351,3.26144 7.87198,3.26144 2.84959,0 5.69807,-1.08751 7.87199,-3.26144 4.34784,-4.34784 4.34784,-11.39723 0,-15.74619 l -61.06576,-61.07244 c -2.31195,-2.31084 -5.52442,-3.49186 -8.78252,-3.22471 l -3.5297,0.28941 c -16.29274,1.33575 -32.39736,-2.23292 -46.45829,-10.11269 l 7.15514,-7.18074 c 42.31636,-2.61027 81.93453,-20.44022 111.99656,-50.50336 z M 139.14231,305.28035 c -3.71893,3.72005 -8.66341,5.76708 -13.92067,5.76708 -5.2595,0 -10.20286,-2.04703 -13.92068,-5.76708 L 81.217776,275.19829 c -7.676077,-7.67608 -7.676077,-20.1664 0,-27.84358 3.71893,-3.72005 8.66341,-5.76708 13.92179,-5.76708 5.258384,0 10.202864,2.04703 13.920684,5.76708 l 30.08318,30.08206 c 7.67496,7.67608 7.67496,20.1664 -0.001,27.84358 z m 43.58867,-43.58866 c -7.67719,7.67608 -20.16974,7.67608 -27.84359,0 l -30.08317,-30.08318 -14.95811,-14.9581 c -7.67608,-7.67608 -7.67608,-20.1664 0,-27.84247 3.71893,-3.72005 8.66341,-5.76708 13.92068,-5.76708 5.25949,0 10.20286,2.04703 13.92068,5.76708 l 45.04017,45.04017 c 0,0 0,0 0.001,0 3.72005,3.72005 5.76708,8.66341 5.76708,13.92179 0,5.25838 -2.04703,10.20286 -5.76485,13.92179 z m 43.58643,-43.58755 c -7.67718,7.67496 -20.16862,7.67608 -27.84358,0 l -55.93761,-55.93761 c -3.71894,-3.71894 -5.76597,-8.66119 -5.76597,-13.92068 0,-5.25838 2.04703,-10.20286 5.76708,-13.92068 3.83804,-3.83804 8.88047,-5.75706 13.92068,-5.75706 5.03798,0 10.07485,1.9168 13.91177,5.74815 l 25.4949,25.4949 30.45051,30.45051 h 0.001 c 3.71782,3.71894 5.76485,8.66119 5.76485,13.92068 0.002,5.25949 -2.0448,10.20397 -5.76374,13.92179 z m 43.58755,-43.58755 c -7.67607,7.67608 -20.16639,7.67608 -27.84246,0 l -55.93762,-55.93762 c -0.006,-0.006 -0.0122,-0.0111 -0.0189,-0.0178 l -10.87852,-10.87852 c -7.67608,-7.67718 -7.67608,-20.166385 0,-27.843573 3.83803,-3.839151 8.88047,-5.75817 13.92179,-5.75817 5.04132,0 10.08375,1.919019 13.92067,5.75817 l 66.83284,66.832833 c 3.72004,3.71893 5.76707,8.66229 5.76707,13.92067 0.001,5.26061 -2.0448,10.2062 -5.76485,13.92402 z m 2.92751,-56.40401 -30.57963,-30.579628 c 3.46737,0.740224 7.03269,1.133156 10.66146,1.132043 0.0813,0 0.16363,0 0.246,0 l 30.55292,-0.143593 c 6.14776,-0.02894 11.11005,-5.036868 11.08111,-11.185742 -0.0289,-6.131065 -5.00793,-11.081109 -11.13232,-11.081109 -0.0178,0 -0.0356,0 -0.0534,0 l -30.55291,0.143592 c -0.0467,0 -0.0913,0 -0.13803,0 -7.52803,0 -14.60858,-2.921939 -19.94711,-8.234861 -5.37191,-5.347428 -8.32947,-12.464717 -8.32947,-20.045064 v -3.466255 h 76.29101 c 14.33142,0 28.1508,6.016413 37.91509,16.508682 l 0.45304,0.486433 z"
   id="path14"
   style="fill:#001242;fill-opacity:1;fill-rule:nonzero;stroke:none;stroke-width:0;stroke-miterlimit:4;stroke-dasharray:none;stroke-opacity:1"
   inkscape:connector-curvature="0" />
	</g>
</g>
<g
   id="g20">
</g>
<g
   id="g22">
</g>
<g
   id="g24">
</g>
<g
   id="g26">
</g>
<g
   id="g28">
</g>
<g
   id="g30">
</g>
<g
   id="g32">
</g>
<g
   id="g34">
</g>
<g
   id="g36">
</g>
<g
   id="g38">
</g>
<g
   id="g40">
</g>
<g
   id="g42">
</g>
<g
   id="g44">
</g>
<g
   id="g46">
</g>
<g
   id="g48">
</g>
</svg>