<?xml version="1.0" encoding="UTF-8" standalone="no"?>
<!-- Generator: Adobe Illustrator 19.0.0, SVG Export Plug-In . SVG Version: 6.00 Build 0)  -->

<svg
   xmlns:dc="http://purl.org/dc/elements/1.1/"
   xmlns:cc="http://creativecommons.org/ns#"
   xmlns:rdf="http://www.w3.org/1999/02/22-rdf-syntax-ns#"
   xmlns:svg="http://www.w3.org/2000/svg"
   xmlns="http://www.w3.org/2000/svg"
   xmlns:sodipodi="http://sodipodi.sourceforge.net/DTD/sodipodi-0.dtd"
   xmlns:inkscape="http://www.inkscape.org/namespaces/inkscape"
   version="1.1"
   id="Capa_1"
   x="0px"
   y="0px"
   viewBox="0 0 496 496"
   style="enable-background:new 0 0 496 496;"
   xml:space="preserve"
   sodipodi:docname="005-graphic-design.svg"
   inkscape:version="0.92.4 (5da689c313, 2019-01-14)"><metadata
   id="metadata83"><rdf:RDF><cc:Work
       rdf:about=""><dc:format>image/svg+xml</dc:format><dc:type
         rdf:resource="http://purl.org/dc/dcmitype/StillImage" /></cc:Work></rdf:RDF></metadata><defs
   id="defs81" /><sodipodi:namedview
   pagecolor="#ffffff"
   bordercolor="#666666"
   borderopacity="1"
   objecttolerance="10"
   gridtolerance="10"
   guidetolerance="10"
   inkscape:pageopacity="0"
   inkscape:pageshadow="2"
   inkscape:window-width="760"
   inkscape:window-height="480"
   id="namedview79"
   showgrid="false"
   inkscape:zoom="0.47580645"
   inkscape:cx="248"
   inkscape:cy="248"
   inkscape:window-x="0"
   inkscape:window-y="0"
   inkscape:window-maximized="0"
   inkscape:current-layer="Capa_1" />
<g
   id="g26"
   style="fill:#001242;fill-opacity:1">
	<rect
   x="96"
   y="32"
   style="fill:#001242;fill-opacity:1"
   width="16"
   height="16"
   id="rect2" />
	<rect
   x="128"
   y="32"
   style="fill:#001242;fill-opacity:1"
   width="16"
   height="16"
   id="rect4" />
	<rect
   x="64"
   y="32"
   style="fill:#001242;fill-opacity:1"
   width="16"
   height="16"
   id="rect6" />
	<path
   style="fill:#001242;fill-opacity:1"
   d="M464,101.624V0H32v101.624C12.696,110.824,0,130.32,0,152v240c0,30.872,25.12,56,56,56h88v32h-32v16   h272v-16h-32v-32h88c30.88,0,56-25.128,56-56V152C496,130.32,483.304,110.824,464,101.624z M48,80h368V64H48V16h400v48h-16v16h16   v272H48V80z M336,480H160v-32h176V480z M440,432H56c-19.312,0-35.472-13.768-39.192-32h462.384   C475.472,418.232,459.312,432,440,432z M480,384H16V152c0-12.752,6.128-24.496,16-31.928V368h432V120.072   c9.872,7.424,16,19.168,16,31.928V384z"
   id="path8" />
	<rect
   x="336"
   y="232"
   style="fill:#001242;fill-opacity:1"
   width="16"
   height="64"
   id="rect10" />
	<rect
   x="264"
   y="304"
   style="fill:#001242;fill-opacity:1"
   width="64"
   height="16"
   id="rect12" />
	<rect
   x="168"
   y="304"
   style="fill:#001242;fill-opacity:1"
   width="64"
   height="16"
   id="rect14" />
	<rect
   x="144"
   y="232"
   style="fill:#001242;fill-opacity:1"
   width="16"
   height="64"
   id="rect16" />
	<rect
   x="144"
   y="136"
   style="fill:#001242;fill-opacity:1"
   width="16"
   height="64"
   id="rect18" />
	<rect
   x="168"
   y="112"
   style="fill:#001242;fill-opacity:1"
   width="64"
   height="16"
   id="rect20" />
	<rect
   x="264"
   y="112"
   style="fill:#001242;fill-opacity:1"
   width="64"
   height="16"
   id="rect22" />
	<rect
   x="336"
   y="136"
   style="fill:#001242;fill-opacity:1"
   width="16"
   height="64"
   id="rect24" />
</g>
<g
   id="g46"
   style="fill:#faba14;fill-opacity:1">
	<path
   style="fill:#faba14;fill-opacity:1"
   d="M368,336h-48v-48h48V336z M336,320h16v-16h-16V320z"
   id="path28" />
	<path
   style="fill:#faba14;fill-opacity:1"
   d="M368,144h-48V96h48V144z M336,128h16v-16h-16V128z"
   id="path30" />
	<path
   style="fill:#faba14;fill-opacity:1"
   d="M272,336h-48v-48h48V336z M240,320h16v-16h-16V320z"
   id="path32" />
	<path
   style="fill:#faba14;fill-opacity:1"
   d="M272,144h-48V96h48V144z M240,128h16v-16h-16V128z"
   id="path34" />
	<path
   style="fill:#faba14;fill-opacity:1"
   d="M368,240h-48v-48h48V240z M336,224h16v-16h-16V224z"
   id="path36" />
	<path
   style="fill:#faba14;fill-opacity:1"
   d="M176,336h-48v-48h48V336z M144,320h16v-16h-16V320z"
   id="path38" />
	<path
   style="fill:#faba14;fill-opacity:1"
   d="M176,144h-48V96h48V144z M144,128h16v-16h-16V128z"
   id="path40" />
	<path
   style="fill:#faba14;fill-opacity:1"
   d="M176,240h-48v-48h48V240z M144,224h16v-16h-16V224z"
   id="path42" />
	<polygon
   style="fill:#faba14;fill-opacity:1"
   points="192,152 192,272 312,272  "
   id="polygon44" />
</g>
<g
   id="g48">
</g>
<g
   id="g50">
</g>
<g
   id="g52">
</g>
<g
   id="g54">
</g>
<g
   id="g56">
</g>
<g
   id="g58">
</g>
<g
   id="g60">
</g>
<g
   id="g62">
</g>
<g
   id="g64">
</g>
<g
   id="g66">
</g>
<g
   id="g68">
</g>
<g
   id="g70">
</g>
<g
   id="g72">
</g>
<g
   id="g74">
</g>
<g
   id="g76">
</g>
</svg>