<?xml version="1.0" encoding="UTF-8" standalone="no"?>
<!-- Generator: Adobe Illustrator 19.0.0, SVG Export Plug-In . SVG Version: 6.00 Build 0)  -->

<svg
   xmlns:dc="http://purl.org/dc/elements/1.1/"
   xmlns:cc="http://creativecommons.org/ns#"
   xmlns:rdf="http://www.w3.org/1999/02/22-rdf-syntax-ns#"
   xmlns:svg="http://www.w3.org/2000/svg"
   xmlns="http://www.w3.org/2000/svg"
   xmlns:sodipodi="http://sodipodi.sourceforge.net/DTD/sodipodi-0.dtd"
   xmlns:inkscape="http://www.inkscape.org/namespaces/inkscape"
   version="1.1"
   id="Capa_1"
   x="0px"
   y="0px"
   viewBox="0 0 496 496"
   style="enable-background:new 0 0 496 496;"
   xml:space="preserve"
   sodipodi:docname="009-blueprint-1.svg"
   inkscape:version="0.92.4 (5da689c313, 2019-01-14)"><metadata
   id="metadata57"><rdf:RDF><cc:Work
       rdf:about=""><dc:format>image/svg+xml</dc:format><dc:type
         rdf:resource="http://purl.org/dc/dcmitype/StillImage" /></cc:Work></rdf:RDF></metadata><defs
   id="defs55" /><sodipodi:namedview
   pagecolor="#ffffff"
   bordercolor="#666666"
   borderopacity="1"
   objecttolerance="10"
   gridtolerance="10"
   guidetolerance="10"
   inkscape:pageopacity="0"
   inkscape:pageshadow="2"
   inkscape:window-width="760"
   inkscape:window-height="480"
   id="namedview53"
   showgrid="false"
   inkscape:zoom="0.47580645"
   inkscape:cx="216.86874"
   inkscape:cy="327.37976"
   inkscape:window-x="0"
   inkscape:window-y="0"
   inkscape:window-maximized="0"
   inkscape:current-layer="g20" />
<g
   id="g8">
	<rect
   x="224"
   y="248"
   style="fill:#faba14;fill-opacity:1"
   width="80"
   height="96"
   id="rect2" />
	<path
   style="fill:#faba14;fill-opacity:1"
   d="M328,160H200V96h128V160z"
   id="path4" />
	<polygon
   style="fill:#faba14;fill-opacity:1"
   points="48,0 32,24 32,176 64,176 64,24  "
   id="polygon6" />
</g>
<g
   id="g20"
   style="fill:#001242;fill-opacity:1">
	<path
   style="fill:#001242;fill-opacity:1"
   d="M448,0H160c-26.472,0-48,21.528-48,48v320H0v80c0,26.472,21.528,48,48,48h320   c26.472,0,48-21.528,48-48V160h80V48C496,21.528,474.472,0,448,0z M48,480c-17.648,0-32-14.352-32-32v-64h304v64   c0,12.28,4.64,23.504,12.256,32H48z M400,48v400c0,17.648-14.352,32-32,32s-32-14.352-32-32v-80H128V48c0-17.648,14.352-32,32-32   h252.32C404.688,24.504,400,35.696,400,48z M480,144h-64V48c0-17.648,14.352-32,32-32s32,14.352,32,32V144z"
   id="path10" />
	<path
   style="fill:#001242;fill-opacity:1"
   d="M360,64h-32V32H200v32h-32v272h-16v16h224v-16h-16V64z M184,80h96V64h-64V48h96v16h-16v16h48v256   h-32v-80h16v-16H200v16h16v80h-32V80z M256,256v80h-24v-80H256z M272,256h24v80h-24V256z"
   id="path12" />
	<rect
   x="200"
   y="176"
   style="fill:#001242;fill-opacity:1"
   width="128"
   height="16"
   id="rect14" />
	<rect
   x="200"
   y="208"
   style="fill:#001242;fill-opacity:1"
   width="128"
   height="16"
   id="rect16" />
	<path
   style="fill:#001242;fill-opacity:1"
   d="M16,320c0,17.648,14.352,32,32,32s32-14.352,32-32V192h16v-16H0v16h16V320z M48,336   c-8.824,0-16-7.176-16-16v-96h32v96C64,328.824,56.824,336,48,336z M64,208H32v-16h32V208z"
   id="path18" />
</g>
<g
   id="g22">
</g>
<g
   id="g24">
</g>
<g
   id="g26">
</g>
<g
   id="g28">
</g>
<g
   id="g30">
</g>
<g
   id="g32">
</g>
<g
   id="g34">
</g>
<g
   id="g36">
</g>
<g
   id="g38">
</g>
<g
   id="g40">
</g>
<g
   id="g42">
</g>
<g
   id="g44">
</g>
<g
   id="g46">
</g>
<g
   id="g48">
</g>
<g
   id="g50">
</g>
</svg>