<?xml version="1.0" encoding="UTF-8" standalone="no"?>
<!-- Generator: Adobe Illustrator 19.0.0, SVG Export Plug-In . SVG Version: 6.00 Build 0)  -->

<svg
   xmlns:dc="http://purl.org/dc/elements/1.1/"
   xmlns:cc="http://creativecommons.org/ns#"
   xmlns:rdf="http://www.w3.org/1999/02/22-rdf-syntax-ns#"
   xmlns:svg="http://www.w3.org/2000/svg"
   xmlns="http://www.w3.org/2000/svg"
   xmlns:sodipodi="http://sodipodi.sourceforge.net/DTD/sodipodi-0.dtd"
   xmlns:inkscape="http://www.inkscape.org/namespaces/inkscape"
   version="1.1"
   id="Capa_1"
   x="0px"
   y="0px"
   viewBox="0 0 496.944 496.944"
   style="enable-background:new 0 0 496.944 496.944;"
   xml:space="preserve"
   sodipodi:docname="010-house.svg"
   inkscape:version="0.92.4 (5da689c313, 2019-01-14)"><metadata
   id="metadata49"><rdf:RDF><cc:Work
       rdf:about=""><dc:format>image/svg+xml</dc:format><dc:type
         rdf:resource="http://purl.org/dc/dcmitype/StillImage" /></cc:Work></rdf:RDF></metadata><defs
   id="defs47" /><sodipodi:namedview
   pagecolor="#ffffff"
   bordercolor="#666666"
   borderopacity="1"
   objecttolerance="10"
   gridtolerance="10"
   guidetolerance="10"
   inkscape:pageopacity="0"
   inkscape:pageshadow="2"
   inkscape:window-width="760"
   inkscape:window-height="480"
   id="namedview45"
   showgrid="false"
   inkscape:zoom="0.4749026"
   inkscape:cx="248.472"
   inkscape:cy="248.472"
   inkscape:window-x="0"
   inkscape:window-y="0"
   inkscape:window-maximized="0"
   inkscape:current-layer="Capa_1" />
<path
   style="fill:#001242;fill-opacity:1"
   d="M448.472,100V0.944h-112V44l-88-44l-248,124v73.888l16-8v251.056h103.096v-16H32.472V181.888l216-108  l180.392,90.192l7.16-14.312L248.472,56l-232,116v-38.112l232-116l232,116V172l-28.424-14.208l-7.16,14.312l19.584,9.784v243.056  h-87.096v16h103.096V189.888l16,8V124L448.472,100z M432.472,92l-80-40v-3.056h80V92z M432.472,32.944h-80v-16h80V32.944z"
   id="path2" />
<path
   style="fill:#faba14;fill-opacity:1"
   d="M432.472,352.944v-80H403.36c-3.728-14.448-9.472-28.248-17.128-41.192l20.624-20.624l-56.568-56.568  l-20.624,20.624c-12.944-7.656-26.752-13.4-41.192-17.128v-29.112h-80v29.112c-14.448,3.728-28.248,9.472-41.192,17.128  l-20.624-20.624l-56.568,56.568l20.624,20.624c-7.656,12.944-13.4,26.752-17.128,41.192H64.472v80h29.112  c3.728,14.448,9.472,28.248,17.128,41.192L90.088,414.76l56.568,56.568l20.624-20.624c12.944,7.656,26.752,13.4,41.192,17.128  v29.112h80v-29.112c14.448-3.728,28.248-9.472,41.192-17.128l20.624,20.624l56.568-56.568l-20.624-20.624  c7.656-12.944,13.4-26.752,17.128-41.192H432.472z M248.472,392.944c-44.184,0-80-35.816-80-80s35.816-80,80-80s80,35.816,80,80  S292.656,392.944,248.472,392.944z"
   id="path4" />
<g
   id="g12"
   style="fill:#001242;fill-opacity:1">
	<path
   style="fill:#001242;fill-opacity:1"
   d="M248.472,400.944c-48.52,0-88-39.48-88-88s39.48-88,88-88s88,39.48,88,88   S296.992,400.944,248.472,400.944z M248.472,240.944c-39.696,0-72,32.296-72,72s32.304,72,72,72s72-32.296,72-72   S288.168,240.944,248.472,240.944z"
   id="path6" />
	<path
   style="fill:#001242;fill-opacity:1"
   d="M140.496,283.072l-15.424-4.248c15.256-55.28,66-93.88,123.4-93.88v16   C198.248,200.944,153.84,234.72,140.496,283.072z"
   id="path8" />
	<path
   style="fill:#001242;fill-opacity:1"
   d="M136.472,312.944h-16c0-5.712,0.376-11.456,1.128-17.064l15.856,2.128   C136.808,302.912,136.472,307.936,136.472,312.944z"
   id="path10" />
</g>
<g
   id="g14">
</g>
<g
   id="g16">
</g>
<g
   id="g18">
</g>
<g
   id="g20">
</g>
<g
   id="g22">
</g>
<g
   id="g24">
</g>
<g
   id="g26">
</g>
<g
   id="g28">
</g>
<g
   id="g30">
</g>
<g
   id="g32">
</g>
<g
   id="g34">
</g>
<g
   id="g36">
</g>
<g
   id="g38">
</g>
<g
   id="g40">
</g>
<g
   id="g42">
</g>
</svg>