<?xml version="1.0" encoding="iso-8859-1"?>
<!-- Generator: Adobe Illustrator 19.0.0, SVG Export Plug-In . SVG Version: 6.00 Build 0)  -->
<svg version="1.1" id="Capa_1" xmlns="http://www.w3.org/2000/svg" xmlns:xlink="http://www.w3.org/1999/xlink" x="0px" y="0px"
	 viewBox="0 0 499.096 499.096" style="enable-background:new 0 0 499.096 499.096;" xml:space="preserve">
<path style="fill:#FFA64D;" d="M448,137.548L448,137.548L448,137.548L448,137.548c0-59.168-45.88-107.616-104-111.72v-8.28
	c0-4.416-3.584-8-8-8h-16c-4.416,0-8,3.584-8,8v8.28c-58.12,4.104-104,52.552-104,111.72l0,0c0,0,0,0,0.008,0H208
	c-4.416,0-8,3.584-8,8v16c0,4.416,3.584,8,8,8h240c4.416,0,8-3.584,8-8v-16C456,141.132,452.416,137.548,448,137.548z"/>
<g>
	<path style="fill:#333333;" d="M372,233.548c11.032,0,20-8.968,20-20s-8.968-20-20-20s-20,8.968-20,20S360.968,233.548,372,233.548
		z M372,209.548c2.2,0,4,1.8,4,4s-1.8,4-4,4s-4-1.8-4-4S369.8,209.548,372,209.548z"/>
	<path style="fill:#333333;" d="M304,213.548c0-11.032-8.968-20-20-20s-20,8.968-20,20s8.968,20,20,20S304,224.58,304,213.548z
		 M284,217.548c-2.2,0-4-1.8-4-4s1.8-4,4-4s4,1.8,4,4S286.2,217.548,284,217.548z"/>
	<path style="fill:#333333;" d="M368,265.548h-16c0,13.232-10.768,24-24,24s-24-10.768-24-24h-16c0,22.056,17.944,40,40,40
		S368,287.604,368,265.548z"/>
	<path style="fill:#333333;" d="M104,289.548c13.232,0,24-10.768,24-24s-10.768-24-24-24s-24,10.768-24,24
		S90.768,289.548,104,289.548z M104,257.548c4.416,0,8,3.584,8,8s-3.584,8-8,8s-8-3.584-8-8S99.584,257.548,104,257.548z"/>
	<path style="fill:#333333;" d="M205.704,449.548h293.392l-26.376-79.12c-6.576-19.728-23.408-34.112-43.92-37.52l-52.216-8.704
		c21.784-12.856,38.024-34.032,44.384-59.16C440.664,262.564,456,245.9,456,225.548v-50.224c4.76-2.776,8-7.88,8-13.776v-16
		c0-6.008-3.376-11.192-8.288-13.928C452.848,74.06,408.92,26.372,352,18.74v-1.192c0-8.824-7.176-16-16-16h-16
		c-8.824,0-16,7.176-16,16v1.192c-56.92,7.632-100.848,55.32-103.712,112.872c-4.912,2.744-8.288,7.928-8.288,13.936v16
		c0,5.896,3.24,11,8,13.776v50.224c0,20.352,15.336,37.016,35.032,39.496c6.36,25.128,22.6,46.296,44.384,59.16l-52.216,8.704
		c-18.032,3-33.2,14.488-41.08,30.616L152,256.308v-9.96h-0.08c-0.392-14.032-10.536-25.64-23.92-28.232v-48.568H80v48.568
		c-13.384,2.584-23.52,14.2-23.92,28.232H56v9.96L1.256,428.348C0.424,430.964,0,433.7,0,436.452v2.352
		c0,10.92,6.6,20.296,16,24.448v34.296h16v-32.584c9.088-1.832,16.784-8.272,19.96-17.248l13.472-38.168h77.144l13.472,38.168
		c3.168,8.976,10.864,15.416,19.952,17.248v32.584h16v-34.296C198.104,460.556,203.008,455.652,205.704,449.548z M273.392,367.62
		l11.224-28.056l4.472-0.744c0.512,2.152,1.208,4.232,2.056,6.24l18.96,88.488h-2.792l-26.16-26.168l8-24L273.392,367.62z
		 M371.384,339.556l11.224,28.056L366.84,383.38l8,24l-26.152,26.168h-2.792l18.96-88.496c0.848-2.008,1.544-4.088,2.056-6.24
		L371.384,339.556z M329.536,433.548h-3.072L312,366.06c4.92,2.168,10.288,3.488,16,3.488s11.08-1.32,15.992-3.488L329.536,433.548z
		 M349.632,339.764c-3.856,8.12-12.064,13.784-21.632,13.784s-17.776-5.664-21.632-13.784l-1.08-5.04
		c7.296,1.776,14.872,2.824,22.712,2.824s15.416-1.048,22.712-2.824L349.632,339.764z M457.552,375.492l19.344,58.056H438.56
		l-6.712-33.568l-15.688,3.144l6.08,30.424h-50.928l21.84-21.832l-8-24l16.232-16.232l-11.536-28.84l36.328,6.056
		C440.832,351.132,452.848,361.396,457.552,375.492z M440,177.548v16.208c-4.672-3.536-10.056-6.184-16-7.392v-8.816H440z
		 M423.664,248.18c0.152-2.2,0.336-4.392,0.336-6.632V203.02c9.288,3.312,16,12.112,16,22.528
		C440,236.084,433.128,244.964,423.664,248.18z M439.608,129.548H424v16h24v16H208v-16h200v-16h-30.216l15.92-78.32
		C419.512,68.588,437.104,97.108,439.608,129.548z M232,177.548v8.808c-5.944,1.216-11.328,3.856-16,7.392v-16.2H232z M320,17.548
		h16v80h-16l-0.016-80H320z M320,113.548h16c8.824,0,16-7.176,16-16v-62.72c9.52,1.48,18.584,4.272,27.048,8.16l-17.592,86.56
		h-66.92l-17.576-86.56c8.464-3.888,17.52-6.68,27.04-8.16v62.72C304,106.372,311.176,113.548,320,113.548z M262.296,51.228
		l15.912,78.32h-61.816C218.896,97.108,236.488,68.588,262.296,51.228z M216,225.548c0-10.416,6.712-19.216,16-22.528v38.528
		c0,2.24,0.184,4.432,0.336,6.632C222.872,244.964,216,236.084,216,225.548z M248,241.548v-64h160v64c0,44.112-35.888,80-80,80
		S248,285.66,248,241.548z M198.448,375.492c4.704-14.096,16.728-24.36,31.376-26.808l36.328-6.056l-11.536,28.84l16.232,16.232
		l-8,24l21.84,21.848H233.76l6.088-30.432l-15.688-3.144l-6.72,33.576h-9.664c-0.192-1.76-0.496-3.512-1.032-5.192l-12.656-39.776
		L198.448,375.492z M112,185.548v32H96v-32H112z M85.624,233.548h36.752c7.512,0,13.624,6.112,13.624,13.624
		c0,1-0.112,1.992-0.328,2.96l-11.72,52.744c-1.4,6.28-6.864,10.672-13.304,10.672H97.352c-6.44,0-11.904-4.392-13.304-10.672
		L72.32,250.124c-0.208-0.96-0.32-1.952-0.32-2.952C72,239.66,78.112,233.548,85.624,233.548z M97.352,329.548h13.296
		c1.216,0,2.4-0.16,3.584-0.304l11.4,32.304H82.368l11.4-32.304C94.952,329.388,96.136,329.548,97.352,329.548z M36.872,442.38
		c-1.512,4.288-5.584,7.168-10.128,7.168c-5.92,0-10.744-4.824-10.744-10.744v-2.352c0-1.112,0.168-2.2,0.504-3.256l47.168-148.232
		l4.752,21.384c1.536,6.896,5.336,12.736,10.52,16.832L36.872,442.38z M71.08,393.548l5.648-16h54.56l5.648,16H71.08z M192,438.804
		c0,5.92-4.824,10.744-10.744,10.744c-4.544,0-8.616-2.88-10.128-7.168l-42.072-119.208c5.176-4.096,8.976-9.936,10.52-16.832
		l4.752-21.384l47.168,148.24c0.336,1.056,0.504,2.152,0.504,3.256V438.804z"/>
</g>
<g>
</g>
<g>
</g>
<g>
</g>
<g>
</g>
<g>
</g>
<g>
</g>
<g>
</g>
<g>
</g>
<g>
</g>
<g>
</g>
<g>
</g>
<g>
</g>
<g>
</g>
<g>
</g>
<g>
</g>
</svg>
