<svg version="1.1" width="284.929" height="284.929" viewBox="0 0 284.929 284.929" xmlns="http://www.w3.org/2000/svg" xmlns:xlink="http://www.w3.org/1999/xlink" id="Capa_1" overflow="hidden"><g><path d=" M 282.082 76.511 L 267.808 62.238 C 265.906 60.332 263.715 59.382 261.238 59.382 C 258.767 59.382 256.577 60.332 254.675 62.238 L 142.466 174.441 L 30.262 62.241 C 28.359 60.335 26.169 59.385 23.695 59.385 C 21.22 59.385 19.03 60.335 17.128 62.241 L 2.856 76.515 C 0.95 78.417 0 80.607 0 83.082 C 0 85.555 0.953 87.745 2.856 89.647 L 135.899 222.693 C 137.801 224.596 139.992 225.547 142.466 225.547 C 144.94 225.547 147.127 224.596 149.028 222.693 L 282.082 89.647 C 283.984 87.744 284.929 85.554 284.929 83.082 C 284.929 80.607 283.984 78.417 282.082 76.511 Z" stroke="none" stroke-width="1" stroke-linecap="butt" fill="#333234" fill-opacity="1"/></g><g></g><g></g><g></g><g></g><g></g><g></g><g></g><g></g><g></g><g></g><g></g><g></g><g></g><g></g><g></g></svg>