<svg version="1.1" width="650.639" height="491.076" xmlns="http://www.w3.org/2000/svg" xmlns:xlink="http://www.w3.org/1999/xlink" id="svg1486" overflow="hidden"><defs id="defs1490"></defs><g id="g835" transform="matrix(1.53056,0,0,-1.33333,594.998,341.903)"><path d=" M 0 0 C -17.62 0 -32.036 -14.416 -32.036 -32.036 C -32.036 -64.185 -58.339 -90.487 -90.487 -90.487 L -107.961 -90.487 L -243.739 -90.487 L -311.968 -90.487 C -353.731 -90.487 -387.9 -56.318 -387.9 -14.556 C -387.9 27.207 -353.731 61.377 -311.968 61.377 C -303.587 61.377 -296.729 68.233 -296.729 76.615 C -296.729 84.996 -303.587 91.854 -311.968 91.854 L -351.701 91.854 C -372.074 91.854 -388.744 108.523 -388.744 128.896 C -388.744 149.247 -372.113 165.901 -351.771 165.939 L -315.625 165.939 C -298.006 165.939 -283.59 180.355 -283.59 197.976 C -283.59 230.124 -257.287 256.427 -225.139 256.427 L -39.732 256.427 C 2.03 256.427 36.2 222.257 36.2 180.495 C 36.2 138.732 2.03 104.563 -39.732 104.563 C -48.113 104.563 -54.971 97.705 -54.971 89.324 C -54.971 80.943 -48.113 74.086 -39.732 74.086 L 0 74.086 C 48.471 74.086 48.471 0 0 0" id="path837" stroke="none" fill="#FAD200" fill-rule="evenodd" fill-opacity="1"/></g><g id="g839" transform="matrix(1.33333,0,0,-1.33333,241.462,89.628)"><path d=" M 0 0 C -0.589 -0.722 -0.032 -1.799 0.898 -1.736 C 1.203 -1.71 1.451 -1.584 1.648 -1.349 C 2.09 -0.808 2.542 -0.28 3 0.247 C 3.717 1.077 2.879 2.314 1.838 1.951 C 1.662 1.884 1.526 1.794 1.4 1.652 C 0.923 1.112 0.457 0.558 0 0 M -4.957 -7.124 C -5.174 -7.504 -5.143 -7.968 -4.874 -8.314 C -4.414 -8.905 -3.486 -8.841 -3.114 -8.19 C -2.768 -7.589 -2.408 -6.996 -2.035 -6.411 C -1.786 -6.02 -1.814 -5.515 -2.112 -5.157 C -2.569 -4.604 -3.443 -4.656 -3.828 -5.263 C -4.218 -5.875 -4.594 -6.495 -4.957 -7.124 M -8.493 -15.111 C -8.564 -15.346 -8.557 -15.564 -8.477 -15.795 C -8.113 -16.748 -6.777 -16.715 -6.46 -15.745 C -6.27 -15.124 -6.042 -14.39 -5.79 -13.796 C -5.636 -13.387 -5.741 -12.926 -6.065 -12.63 C -6.618 -12.126 -7.514 -12.333 -7.779 -13.034 C -8.041 -13.712 -8.28 -14.418 -8.493 -15.111 M -9.897 -23.78 C -9.919 -24.873 -8.478 -25.301 -7.903 -24.327 C -7.819 -24.174 -7.772 -24.009 -7.769 -23.834 C -7.753 -23.147 -7.719 -22.462 -7.66 -21.777 C -7.566 -20.656 -9.039 -20.167 -9.634 -21.135 C -9.719 -21.279 -9.763 -21.419 -9.78 -21.585 C -9.846 -22.312 -9.881 -23.05 -9.897 -23.78 M -8.915 -32.499 C -8.826 -32.846 -8.588 -33.114 -8.254 -33.242 C -7.448 -33.542 -6.653 -32.821 -6.847 -31.99 C -7.014 -31.324 -7.159 -30.654 -7.281 -29.979 C -7.49 -28.869 -9.033 -28.789 -9.354 -29.876 C -9.399 -30.034 -9.405 -30.187 -9.378 -30.349 C -9.248 -31.07 -9.092 -31.787 -8.915 -32.499 M -5.683 -40.65 C -5.472 -41.035 -5.056 -41.244 -4.622 -41.195 C -3.869 -41.096 -3.458 -40.297 -3.816 -39.627 C -4.149 -39.023 -4.463 -38.415 -4.76 -37.792 C -4.973 -37.346 -5.449 -37.107 -5.934 -37.202 C -6.607 -37.337 -6.982 -38.079 -6.687 -38.699 C -6.372 -39.36 -6.038 -40.009 -5.683 -40.65 M -0.562 -47.74 C 0.171 -48.539 1.488 -47.872 1.269 -46.799 C 1.227 -46.612 1.145 -46.455 1.018 -46.312 C 0.551 -45.799 0.102 -45.276 -0.337 -44.741 C -0.63 -44.382 -1.122 -44.253 -1.553 -44.423 C -2.223 -44.688 -2.442 -45.528 -1.988 -46.086 C -1.525 -46.649 -1.053 -47.2 -0.562 -47.74 M 5.9 -53.572 C 6.739 -54.195 7.875 -53.38 7.551 -52.382 C 7.478 -52.177 7.36 -52.004 7.183 -51.873 C 6.626 -51.455 6.081 -51.026 5.541 -50.587 C 4.811 -49.99 3.72 -50.567 3.806 -51.508 C 3.838 -51.802 3.962 -52.041 4.19 -52.232 C 4.753 -52.69 5.32 -53.137 5.9 -53.572 M 13.217 -58.22 C 13.519 -58.381 13.865 -58.392 14.176 -58.248 C 14.964 -57.883 14.998 -56.758 14.232 -56.348 C 13.619 -56.018 13.01 -55.677 12.409 -55.325 C 12.125 -55.156 11.774 -55.131 11.468 -55.255 C 10.651 -55.594 10.569 -56.708 11.327 -57.159 C 11.949 -57.523 12.582 -57.877 13.217 -58.22 M 21.048 -61.856 C 21.442 -62.014 21.895 -61.924 22.196 -61.623 C 22.735 -61.083 22.551 -60.164 21.841 -59.881 C 21.19 -59.621 20.543 -59.354 19.9 -59.077 C 18.853 -58.635 17.927 -59.906 18.69 -60.771 C 18.792 -60.883 18.916 -60.971 19.055 -61.031 C 19.715 -61.315 20.38 -61.59 21.048 -61.856 M 29.189 -64.664 C 30.185 -64.961 30.973 -63.79 30.324 -62.979 C 30.192 -62.809 30.001 -62.687 29.797 -62.624 C 29.125 -62.426 28.453 -62.219 27.786 -62.005 C 26.805 -61.685 25.984 -62.826 26.608 -63.659 C 26.74 -63.835 26.922 -63.963 27.13 -64.03 C 27.813 -64.25 28.501 -64.461 29.189 -64.664 M 37.513 -66.795 C 38.5 -67.005 39.201 -65.875 38.56 -65.073 C 38.399 -64.886 38.211 -64.771 37.971 -64.716 C 37.283 -64.565 36.597 -64.408 35.912 -64.247 C 34.994 -64.032 34.272 -65.017 34.756 -65.836 C 34.911 -66.081 35.136 -66.252 35.42 -66.319 C 36.117 -66.482 36.814 -66.643 37.513 -66.795 M 45.945 -68.369 C 46.837 -68.499 47.477 -67.569 47.034 -66.784 C 46.868 -66.503 46.603 -66.32 46.281 -66.267 C 45.587 -66.157 44.884 -66.052 44.195 -65.925 C 43.852 -65.867 43.518 -65.97 43.267 -66.212 C 42.65 -66.829 42.971 -67.861 43.828 -68.022 C 44.529 -68.148 45.24 -68.258 45.945 -68.369 M 54.44 -69.479 C 55.543 -69.595 56.073 -68.161 55.142 -67.531 C 55.002 -67.439 54.838 -67.381 54.672 -67.363 C 53.97 -67.288 53.269 -67.21 52.567 -67.127 C 52.178 -67.078 51.793 -67.255 51.568 -67.574 C 51.112 -68.241 51.513 -69.142 52.314 -69.241 C 53.022 -69.325 53.731 -69.403 54.44 -69.479 M 62.946 -70.238 C 63.986 -70.324 64.519 -69.021 63.714 -68.354 C 63.544 -68.218 63.35 -68.135 63.132 -68.117 C 62.423 -68.055 61.714 -67.995 61.005 -67.937 C 60.547 -67.897 60.119 -68.158 59.938 -68.58 C 59.658 -69.249 60.104 -69.998 60.83 -70.059 C 61.536 -70.116 62.241 -70.177 62.946 -70.238 M 71.398 -71.069 C 71.866 -71.118 72.321 -70.857 72.498 -70.418 C 72.771 -69.768 72.332 -69.026 71.63 -68.953 C 70.922 -68.876 70.215 -68.799 69.507 -68.727 C 68.473 -68.619 67.912 -69.918 68.71 -70.598 C 68.878 -70.738 69.069 -70.821 69.288 -70.844 C 69.991 -70.919 70.695 -70.993 71.398 -71.069 M 79.826 -72.1 C 80.767 -72.218 81.384 -71.158 80.818 -70.404 C 80.63 -70.169 80.409 -70.033 80.109 -69.989 C 79.404 -69.895 78.698 -69.802 77.992 -69.71 C 76.92 -69.576 76.347 -70.94 77.214 -71.614 C 77.363 -71.728 77.535 -71.799 77.721 -71.822 C 78.423 -71.913 79.124 -72.005 79.826 -72.1 M 88.217 -73.356 C 89.247 -73.528 89.882 -72.247 89.12 -71.531 C 88.964 -71.385 88.774 -71.291 88.563 -71.256 C 87.859 -71.14 87.156 -71.026 86.453 -70.916 C 85.31 -70.749 84.747 -72.244 85.727 -72.873 C 85.852 -72.95 85.978 -72.995 86.123 -73.02 C 86.821 -73.13 87.52 -73.242 88.217 -73.356 M 96.563 -74.871 C 97.569 -75.06 98.237 -73.882 97.564 -73.118 C 97.401 -72.94 97.212 -72.832 96.977 -72.782 C 96.277 -72.644 95.578 -72.508 94.878 -72.375 C 93.818 -72.176 93.161 -73.5 93.986 -74.229 C 94.134 -74.351 94.291 -74.431 94.48 -74.466 C 95.175 -74.599 95.868 -74.733 96.563 -74.871 M 104.842 -76.68 C 105.912 -76.93 106.616 -75.594 105.8 -74.852 C 105.666 -74.732 105.512 -74.649 105.336 -74.608 C 104.671 -74.487 103.924 -74.275 103.252 -74.122 C 102.306 -73.9 101.579 -74.988 102.15 -75.779 C 102.3 -75.992 102.526 -76.139 102.779 -76.197 C 103.442 -76.35 104.184 -76.56 104.842 -76.68 M 113.036 -78.822 C 113.44 -78.934 113.884 -78.806 114.149 -78.477 C 114.635 -77.89 114.356 -76.979 113.62 -76.774 C 112.933 -76.579 112.246 -76.388 111.557 -76.198 C 111.287 -76.124 111.004 -76.161 110.76 -76.295 C 109.927 -76.765 110.079 -77.999 110.997 -78.253 C 111.678 -78.439 112.356 -78.629 113.036 -78.822 M 121.108 -81.349 C 122.042 -81.674 122.88 -80.642 122.365 -79.791 C 122.239 -79.578 122.034 -79.416 121.801 -79.336 L 121.647 -79.282 C 121.021 -79.069 120.395 -78.859 119.766 -78.652 C 118.87 -78.36 118.063 -79.298 118.484 -80.142 C 118.62 -80.4 118.826 -80.586 119.106 -80.677 C 119.725 -80.879 120.339 -81.087 120.955 -81.295 Z M 128.95 -84.426 C 129.797 -84.791 130.662 -84.013 130.393 -83.121 C 130.289 -82.824 130.098 -82.608 129.81 -82.479 L 128.795 -82.036 L 127.833 -81.63 C 126.883 -81.249 126.001 -82.256 126.505 -83.149 C 126.63 -83.355 126.793 -83.501 127.015 -83.595 L 127.956 -83.993 Z M 136.498 -88.163 C 136.979 -88.421 137.56 -88.29 137.879 -87.846 C 138.246 -87.328 138.079 -86.602 137.522 -86.297 L 137.325 -86.188 L 136.414 -85.693 L 135.626 -85.278 C 134.719 -84.813 133.742 -85.751 134.173 -86.679 C 134.279 -86.896 134.431 -87.053 134.643 -87.166 L 135.41 -87.571 L 136.301 -88.054 Z M 143.677 -92.565 C 144.056 -92.822 144.553 -92.801 144.916 -92.525 C 145.493 -92.076 145.465 -91.205 144.858 -90.796 L 144.287 -90.409 L 143.449 -89.855 L 143.064 -89.607 C 142.164 -89.036 141.075 -90.002 141.532 -90.965 C 141.62 -91.146 141.75 -91.295 141.921 -91.403 L 142.285 -91.639 L 143.104 -92.18 Z M 150.397 -97.618 C 151.128 -98.215 152.216 -97.64 152.133 -96.698 C 152.1 -96.404 151.977 -96.164 151.749 -95.974 L 151.423 -95.702 L 150.667 -95.088 L 150.076 -94.618 C 149.769 -94.375 149.361 -94.326 149.002 -94.476 C 148.257 -94.795 148.126 -95.792 148.761 -96.293 L 149.333 -96.747 L 150.071 -97.348 Z M 156.595 -103.299 C 157.347 -104.051 158.624 -103.357 158.383 -102.296 C 158.335 -102.104 158.242 -101.936 158.102 -101.796 L 157.823 -101.514 L 157.148 -100.844 L 156.571 -100.283 C 155.799 -99.556 154.562 -100.263 154.797 -101.295 C 154.849 -101.503 154.943 -101.67 155.097 -101.819 L 155.658 -102.364 L 156.316 -103.017 Z M 162.199 -109.568 C 162.899 -110.403 164.241 -109.8 164.072 -108.712 C 164.039 -108.528 163.965 -108.364 163.847 -108.219 L 163.492 -107.781 L 162.898 -107.064 L 162.474 -106.563 C 161.855 -105.848 160.687 -106.224 160.604 -107.165 C 160.584 -107.461 160.665 -107.719 160.856 -107.946 L 161.266 -108.431 L 161.845 -109.13 Z M 167.149 -116.367 C 167.37 -116.694 167.74 -116.87 168.133 -116.835 C 168.934 -116.765 169.368 -115.848 168.919 -115.184 L 168.431 -114.445 L 167.918 -113.687 L 167.718 -113.398 C 167.474 -113.048 167.034 -112.874 166.616 -112.969 C 165.876 -113.134 165.539 -113.998 165.974 -114.619 L 166.161 -114.89 L 166.661 -115.629 Z M 171.386 -123.621 C 171.91 -124.603 173.393 -124.234 173.393 -123.114 C 173.389 -122.938 173.352 -122.789 173.271 -122.631 L 173.067 -122.24 L 172.644 -121.444 L 172.256 -120.733 C 171.707 -119.771 170.26 -120.15 170.26 -121.27 C 170.264 -121.449 170.309 -121.605 170.393 -121.764 L 170.771 -122.455 L 171.183 -123.23 Z M 174.879 -131.264 C 175.009 -131.588 175.289 -131.829 175.63 -131.906 C 176.466 -132.097 177.174 -131.269 176.855 -130.474 L 176.479 -129.541 L 176.136 -128.719 L 176.031 -128.476 C 175.661 -127.661 174.548 -127.613 174.118 -128.396 C 173.961 -128.693 173.948 -129.016 174.079 -129.326 L 174.175 -129.55 L 174.51 -130.352 Z M 177.599 -139.228 C 177.733 -139.668 178.129 -139.979 178.593 -139.989 C 179.314 -140.005 179.847 -139.315 179.64 -138.622 L 179.429 -137.896 L 179.173 -137.051 L 179.021 -136.562 C 178.676 -135.506 177.151 -135.607 176.955 -136.712 C 176.929 -136.88 176.938 -137.047 176.992 -137.209 L 177.139 -137.677 L 177.388 -138.501 Z M 179.516 -147.412 C 179.578 -147.747 179.802 -148.035 180.112 -148.179 C 180.898 -148.543 181.767 -147.865 181.607 -147.015 L 181.498 -146.424 L 181.331 -145.565 L 181.194 -144.904 C 181.097 -144.446 180.714 -144.104 180.246 -144.062 C 179.535 -144.001 178.963 -144.645 179.111 -145.343 L 179.242 -145.983 L 179.406 -146.821 Z M 180.615 -155.746 C 180.696 -156.72 181.963 -157.073 182.534 -156.281 C 182.688 -156.076 182.757 -155.814 182.736 -155.56 L 182.693 -155.045 L 182.613 -154.182 L 182.534 -153.419 C 182.512 -153.2 182.417 -152.985 182.269 -152.822 C 181.57 -152.057 180.311 -152.624 180.417 -153.647 L 180.494 -154.389 L 180.572 -155.231 Z M 180.882 -164.148 C 180.882 -165.317 182.468 -165.648 182.933 -164.564 C 182.984 -164.437 183.008 -164.312 183.011 -164.175 L 183.02 -163.678 L 183.026 -162.816 L 183.023 -162.024 C 183.006 -161.126 181.987 -160.646 181.286 -161.208 C 181.032 -161.418 180.895 -161.712 180.895 -162.041 L 180.896 -162.812 L 180.891 -163.651 Z M 180.304 -172.533 C 180.259 -172.961 180.457 -173.357 180.827 -173.575 C 181.496 -173.96 182.323 -173.539 182.419 -172.774 L 182.482 -172.239 L 182.575 -171.389 L 182.649 -170.636 C 182.735 -169.604 181.469 -169.064 180.786 -169.838 C 180.636 -170.015 180.553 -170.207 180.529 -170.438 L 180.457 -171.17 L 180.367 -171.999 Z M 178.867 -180.813 C 178.643 -181.873 179.948 -182.554 180.687 -181.767 C 180.822 -181.618 180.901 -181.466 180.947 -181.27 L 181.087 -180.649 L 181.266 -179.817 L 181.397 -179.167 C 181.601 -178.084 180.249 -177.44 179.537 -178.275 C 179.419 -178.419 179.347 -178.571 179.309 -178.753 L 179.181 -179.383 L 179.007 -180.192 Z M 176.566 -188.893 C 176.234 -189.911 177.436 -190.729 178.261 -190.045 C 178.411 -189.916 178.524 -189.754 178.586 -189.565 L 178.838 -188.824 L 179.101 -188.02 L 179.259 -187.521 C 179.367 -187.162 179.286 -186.781 179.038 -186.499 C 178.491 -185.881 177.465 -186.102 177.224 -186.892 L 177.073 -187.368 L 176.817 -188.151 Z M 173.401 -196.656 C 173.216 -197.044 173.286 -197.5 173.57 -197.821 C 174.086 -198.387 174.997 -198.257 175.326 -197.566 L 175.738 -196.684 L 176.087 -195.914 L 176.226 -195.598 C 176.658 -194.574 175.449 -193.651 174.57 -194.354 C 174.44 -194.462 174.339 -194.597 174.271 -194.752 L 174.142 -195.048 L 173.804 -195.796 Z M 169.372 -204.018 C 168.893 -204.805 169.547 -205.772 170.465 -205.626 C 170.775 -205.562 171.013 -205.407 171.183 -205.139 L 171.354 -204.865 L 171.795 -204.145 L 172.305 -203.286 C 172.525 -202.899 172.483 -202.419 172.199 -202.076 C 171.725 -201.507 170.824 -201.584 170.456 -202.229 L 169.972 -203.044 L 169.544 -203.744 Z M 164.511 -210.852 C 164.27 -211.157 164.217 -211.545 164.354 -211.907 C 164.661 -212.666 165.671 -212.816 166.178 -212.176 L 166.487 -211.79 L 167.012 -211.122 L 167.505 -210.479 C 168.034 -209.766 167.531 -208.771 166.643 -208.771 C 166.314 -208.779 166.004 -208.928 165.807 -209.194 L 165.329 -209.817 L 164.82 -210.466 Z M 158.861 -217.045 C 158.511 -217.395 158.445 -217.915 158.691 -218.343 C 159.051 -218.941 159.856 -219.046 160.356 -218.561 L 160.786 -218.141 L 161.394 -217.534 L 161.88 -217.036 C 162.105 -216.804 162.213 -216.478 162.17 -216.157 C 162.049 -215.273 160.969 -214.919 160.349 -215.558 L 159.88 -216.037 L 159.291 -216.626 Z M 152.497 -222.496 C 151.576 -223.223 152.309 -224.672 153.439 -224.363 C 153.575 -224.323 153.681 -224.269 153.794 -224.185 L 154.258 -223.833 L 154.948 -223.296 L 155.494 -222.859 C 156.225 -222.263 155.892 -221.1 154.943 -220.974 C 154.646 -220.946 154.39 -221.019 154.155 -221.204 L 153.63 -221.624 L 152.961 -222.145 Z M 145.515 -227.128 C 144.552 -227.701 145.003 -229.183 146.141 -229.107 C 146.306 -229.093 146.448 -229.047 146.592 -228.964 L 146.909 -228.781 L 147.681 -228.322 L 148.441 -227.856 C 149.382 -227.26 148.909 -225.816 147.799 -225.891 C 147.62 -225.906 147.471 -225.954 147.318 -226.048 L 146.58 -226.499 L 145.832 -226.944 Z M 138.018 -230.898 C 137.642 -231.069 137.403 -231.421 137.386 -231.833 C 137.351 -232.612 138.173 -233.166 138.882 -232.844 L 139.601 -232.53 L 140.445 -232.148 L 140.849 -231.96 C 141.813 -231.5 141.569 -230.058 140.507 -229.939 C 140.304 -229.922 140.12 -229.948 139.936 -230.036 L 139.556 -230.214 L 138.736 -230.584 Z M 130.136 -233.787 C 129.067 -234.136 129.186 -235.682 130.309 -235.856 C 130.468 -235.877 130.628 -235.866 130.78 -235.816 L 131.642 -235.549 L 132.559 -235.251 L 132.833 -235.158 C 133.169 -235.042 133.417 -234.774 133.513 -234.433 C 133.737 -233.608 132.943 -232.865 132.139 -233.146 L 131.889 -233.23 L 130.997 -233.52 Z M 121.985 -235.814 C 121.643 -235.886 121.362 -236.111 121.221 -236.433 C 120.877 -237.218 121.57 -238.076 122.409 -237.901 L 123.04 -237.777 L 124.027 -237.57 L 124.518 -237.461 C 125.534 -237.224 125.645 -235.826 124.672 -235.433 C 124.47 -235.355 124.258 -235.335 124.046 -235.386 L 123.579 -235.488 L 122.616 -235.69 Z M 113.658 -237.03 C 113.217 -237.076 112.834 -237.412 112.737 -237.847 C 112.573 -238.565 113.156 -239.224 113.889 -239.147 L 114.858 -239.047 L 116.03 -238.911 C 116.981 -238.792 117.294 -237.541 116.507 -236.988 C 116.287 -236.83 116.018 -236.767 115.75 -236.8 L 114.627 -236.931 Z M 105.25 -237.491 C 104.243 -237.512 103.825 -238.801 104.639 -239.41 C 104.834 -239.552 105.053 -239.625 105.295 -239.619 L 106.179 -239.605 L 107.29 -239.576 L 107.447 -239.57 C 108.493 -239.526 108.85 -238.14 107.952 -237.596 C 107.775 -237.486 107.564 -237.435 107.355 -237.443 L 106.134 -237.477 Z M 8.91 6.19 C 9.689 6.884 9.098 8.179 8.058 8.04 C 7.847 8.013 7.652 7.922 7.493 7.78 C 6.956 7.301 6.425 6.814 5.903 6.319 C 5.56 5.997 5.476 5.5 5.676 5.078 C 5.991 4.433 6.843 4.28 7.364 4.771 C 7.872 5.252 8.388 5.725 8.91 6.19" id="path841" stroke="none" fill="#FFFFFF" fill-rule="evenodd" fill-opacity="1"/></g><g id="g843" transform="matrix(1.33333,0,0,-1.33333,266.676,199.06)"><path d=" M 0 0 C 0.199 0.314 0.617 0.408 0.932 0.208 C 1.247 0.009 1.34 -0.409 1.14 -0.724 C 1.064 -0.844 -25.678 -42.397 -4.556 -66.618 C -4.311 -66.897 -4.339 -67.323 -4.619 -67.568 C -4.899 -67.813 -5.325 -67.785 -5.57 -67.505 C -27.364 -42.514 -0.078 -0.123 0 0" id="path845" stroke="none" fill="#000618" fill-rule="evenodd" fill-opacity="1"/></g><g id="g847" transform="matrix(1.33333,0,0,-1.33333,370.652,191.343)"><path d=" M 0 0 C -0.199 0.315 -0.104 0.731 0.211 0.93 C 0.525 1.128 0.941 1.033 1.14 0.718 C 1.184 0.649 16.458 -23.061 0.348 -41.275 C 0.102 -41.553 -0.324 -41.579 -0.603 -41.333 C -0.881 -41.087 -0.907 -40.661 -0.66 -40.383 C 14.772 -22.935 0.041 -0.066 0 0" id="path849" stroke="none" fill="#000618" fill-rule="evenodd" fill-opacity="1"/></g><g id="g851" transform="matrix(1.33333,0,0,-1.33333,272.438,161.649)"><path d=" M 0 0 L -11.264 -12.384 C -11.264 -12.384 -5.871 -21.93 -6.407 -34.447 C -6.943 -46.964 -49.145 -116.346 28.82 -115.988 C 106.785 -115.631 63.408 -75.407 63.408 -75.407 C 63.408 -75.407 89.126 -67.08 76.139 -29.842 C 63.153 7.396 0 0 0 0" id="path853" stroke="none" fill="#000618" fill-rule="evenodd" fill-opacity="1"/></g><g id="g855" transform="matrix(1.33333,0,0,-1.33333,357.94,263.125)"><path d=" M 0 0 C -0.453 0.454 -0.719 0.7 -0.719 0.7 C -0.719 0.7 0.206 1 1.615 1.738 C 3.835 4.222 6.087 7.135 8.276 10.536 C 18.909 27.064 7.594 49.79 7.594 49.79 L 1.576 51.587 C 1.576 51.587 -10.405 55.878 -13.623 56.951 C -16.842 58.024 -54.036 55.699 -64.586 35.851 C -75.137 16.002 -63.384 -12.773 -63.384 -12.773 C -63.384 -12.773 -19.524 -11.357 -17.021 -11.179 C -15.158 -11.045 -7.948 -8.237 0 0" id="path857" stroke="none" fill="#01020E" fill-rule="evenodd" fill-opacity="1"/></g><g id="g859" transform="matrix(1.33333,0,0,-1.33333,385.894,277.559)"><path d=" M 0 0 C 12.525 -5.469 14.15 -16.921 15.778 -29.665 C 17.222 -40.967 17.674 -58.021 14.697 -83.928 C 11.722 -109.834 -35.627 -49.752 -35.627 -49.752 Z" id="path861" stroke="none" fill="#EF8871" fill-rule="evenodd" fill-opacity="1"/></g><g id="g863" transform="matrix(1.33333,0,0,-1.33333,287.683,277.107)"><path d=" M 0 0 L -12.158 6.22 C -12.158 6.22 -25.004 3.023 -31.577 -5.238 C -38.148 -13.501 -58.053 -84.105 -58.804 -92.743 C -59.555 -101.381 -53.704 -134.287 -43 -134.287 C -32.297 -134.287 -26.972 -62.344 -26.972 -62.344 L -18.23 -35.379 Z" id="path865" stroke="none" fill="#F4AD85" fill-rule="evenodd" fill-opacity="1"/></g><g id="g867" transform="matrix(1.33333,0,0,-1.33333,287.683,277.107)"><path d=" M 0 0 L -12.158 6.22 C -12.158 6.22 -16.272 5.195 -21.035 2.81 C -19.46 2.049 -18.229 0.104 -18.373 -4.207 C -18.749 -15.475 -35.931 -58.475 -39.686 -70.493 C -43.442 -82.511 -46.446 -89.646 -46.446 -89.646 L -54.272 -73.233 C -54.979 -75.885 -55.624 -78.37 -56.193 -80.634 C -53.265 -96.41 -49.624 -118.037 -49.129 -130.4 C -47.314 -132.808 -45.267 -134.287 -43 -134.287 C -32.297 -134.287 -26.972 -62.344 -26.972 -62.344 L -18.23 -35.379 Z" id="path869" stroke="none" fill="#EF8871" fill-rule="evenodd" fill-opacity="1"/></g><g id="g871" transform="matrix(1.33333,0,0,-1.33333,330.651,256.423)"><path d=" M 0 0 C 0 0 32.309 -11.515 41.433 -15.852 C 41.416 -15.868 39.688 -17.674 37.727 -27.578 C 35.755 -37.53 37.727 -51.989 35.662 -66.261 C 34.169 -76.572 27.187 -128.741 23.428 -156.897 L -56.214 -150.473 C -56.238 -149.218 -56.29 -147.71 -56.363 -146 C -49.821 -151.093 -43.552 -151.319 -47.433 -136.442 C -54.193 -110.528 -52.879 -65.462 -50.626 -51.941 C -48.373 -38.422 -45.016 -24.191 -48.208 -10.484 C -46.064 -8.554 0 0 0 0" id="path873" stroke="none" fill="#D84F50" fill-rule="evenodd" fill-opacity="1"/></g><g id="g875" transform="matrix(1.33333,0,0,-1.33333,358.944,266.775)"><path d=" M 0 0 C 8.083 -3.032 16.291 -6.223 20.213 -8.088 C 20.196 -8.104 18.469 -9.91 16.507 -19.814 C 14.535 -29.767 16.507 -44.226 14.442 -58.497 C 14.144 -60.562 13.624 -64.307 12.955 -69.197 C -5.039 -72.001 -58.189 -78.089 -70.944 -76.959 C -71.866 -76.877 -72.774 -76.738 -73.667 -76.548 C -73.666 -62.486 -72.85 -50.201 -71.846 -44.178 C -71.788 -43.832 -71.729 -43.485 -71.67 -43.139 C -67.168 -56.426 -10.489 -63.854 -10.489 -63.854 C -10.489 -63.854 -1.091 -43.065 -3.532 -35.366 C -5.973 -27.667 -17.244 -27.882 -17.244 -27.882 L -16.958 -21.001 C -16.958 -21.001 -5.689 -5.743 -2.982 -1.1 C -2.643 -0.516 -1.589 -0.165 -8.88178e-16 2.22045e-15" id="path877" stroke="none" fill="#C23E3E" fill-rule="evenodd" fill-opacity="1"/></g><g id="g879" transform="matrix(1.33333,0,0,-1.33333,262.429,331.035)"><path d=" M 0 0 C 0.05 0.455 0.102 0.894 0.154 1.313 C 1.969 4.887 8.879 20.606 4.94 46.271 C 5.155 46.337 5.381 46.403 5.626 46.474 C 10.155 17.122 0.574 0.567 0.351 0.186 C 0.332 0.149 0.306 0.116 0.273 0.087 C 0.195 0.019 0.096 -0.01 0 0 M 90.236 41.171 C 90.438 41.084 90.635 40.998 90.826 40.914 C 89.272 38.161 87.083 32.379 85.069 20.281 C 82.657 5.781 85.421 -0.758 87.537 -3.51 C 87.515 -3.841 87.49 -4.172 87.464 -4.503 C 85.194 -1.928 81.764 4.73 84.371 20.398 C 86.349 32.283 88.584 38.219 90.236 41.171 M 76.966 46.464 L 77.632 46.21 C 76.196 40.42 74.273 33.628 71.588 29.626 C 69.167 26.02 66.341 22.695 62.234 20.315 C 58.134 17.937 52.769 16.511 45.278 16.7 C 38.751 16.865 33.505 19.271 29.445 22.688 C 24.16 27.135 20.887 33.292 19.412 38.438 C 17.348 45.636 15.406 48.034 14.744 48.685 L 15.531 48.858 C 16.454 47.776 18.263 45.017 20.094 38.632 C 21.538 33.596 24.736 27.572 29.899 23.229 C 33.848 19.907 38.948 17.567 45.295 17.407 C 52.64 17.222 57.884 18.611 61.88 20.928 C 65.872 23.242 68.632 26.491 71 30.02 C 73.638 33.95 75.543 40.711 76.966 46.464" id="path881" stroke="none" fill="#B23539" fill-rule="evenodd" fill-opacity="1"/></g><g id="g883" transform="matrix(1.33333,0,0,-1.33333,327.312,210.34)"><path d=" M 0 0 L 0.243 0.002 C 7.257 0.08 13.101 -5.59 13.145 -12.604 L 13.307 -38.471 C 17.996 -40.186 23.607 -42.263 28.862 -44.271 C 20.594 -62.125 10.842 -73.924 -4.743 -70.544 C -26.091 -65.914 -25.331 -47.989 -31.833 -41.38 C -25.76 -40.064 -18.634 -38.633 -12.452 -37.424 L -12.606 -12.901 C -12.65 -5.887 -7.014 -0.078 0 0" id="path885" stroke="none" fill="#EF8871" fill-rule="evenodd" fill-opacity="1"/></g><g id="g887" transform="matrix(1.33333,0,0,-1.33333,343.782,221.403)"><path d=" M 0 0 C 0.503 -1.344 0.782 -2.794 0.792 -4.308 L 0.954 -30.174 C 5.644 -31.889 11.255 -33.966 16.51 -35.974 C 10.429 -49.105 3.544 -58.961 -5.873 -61.911 C 9.102 -51.813 4.499 -39.338 1.307 -38.023 C -1.886 -36.709 -27.228 -29.603 -27.228 -29.603 C -26.408 -29.441 -25.598 -29.282 -24.805 -29.127 L -24.958 -4.604 C -24.983 -0.646 -23.198 2.93 -20.377 5.307 C -13.625 5.37 -6.898 3.275 0 0" id="path889" stroke="none" fill="#EA745D" fill-rule="evenodd" fill-opacity="1"/></g><g id="g891" transform="matrix(1.33333,0,0,-1.33333,365.773,177.671)"><path d=" M 0 0 C 0.249 -0.001 0.495 -0.009 0.74 -0.026 L 0.748 -0.028 L 0.747 -0.027 C 5.277 -0.364 9.14 -3.785 9.854 -8.467 C 10.684 -13.909 6.943 -18.994 1.502 -19.824 C -3.94 -20.653 -9.026 -16.914 -9.855 -11.473 C -10.339 -8.31 -9.277 -5.268 -7.235 -3.112 C -7.099 -6.062 -6.154 -9.611 -2.384 -9.478 L -3.249 -3.795 C -3.6 -1.494 -1.59 -0.147 0 0" id="path893" stroke="none" fill="#EA745D" fill-rule="evenodd" fill-opacity="1"/></g><g id="g895" transform="matrix(1.33333,0,0,-1.33333,270.803,192.653)"><path d=" M 0 0 C -0.24 -0.065 -0.476 -0.138 -0.708 -0.22 L -0.715 -0.223 L -0.714 -0.222 C -4.999 -1.731 -7.832 -6.044 -7.297 -10.75 C -6.673 -16.219 -1.733 -20.149 3.735 -19.526 C 9.206 -18.903 13.136 -13.964 12.513 -8.495 C 12.152 -5.315 10.332 -2.657 7.798 -1.11 C 8.437 -3.995 8.454 -7.667 4.779 -8.524 L 4.128 -2.813 C 3.866 -0.5 1.574 0.274 0 0" id="path897" stroke="none" fill="#EA745D" fill-rule="evenodd" fill-opacity="1"/></g><g id="g899" transform="matrix(1.33333,0,0,-1.33333,311.851,119.321)"><path d=" M 0 0 L 0 0 C 18.607 2.477 35.859 -10.721 38.335 -29.327 L 42.43 -60.098 C 44.908 -78.704 31.708 -95.955 13.101 -98.432 C -5.502 -100.908 -22.753 -87.711 -25.23 -69.104 L -29.326 -38.333 C -31.802 -19.726 -18.604 -2.476 0 0" id="path901" stroke="none" fill="#F4AD85" fill-rule="evenodd" fill-opacity="1"/></g><g id="g903" transform="matrix(1.33333,0,0,-1.33333,311.851,119.321)"><path d=" M 0 0 L 0 0 C 17.648 2.35 34.073 -9.401 37.833 -26.493 C 37.653 -28.134 37.155 -29.805 36.276 -31.502 L 20.506 -30.581 C 20.506 -30.581 10.127 -50.423 -11.191 -55.244 C -16.922 -56.54 -18.719 -62.315 -17.549 -67.803 C -14.698 -81.167 -3.225 -100.317 25.028 -94.501 C 21.426 -96.491 17.409 -97.858 13.101 -98.432 C -5.502 -100.908 -22.753 -87.71 -25.23 -69.104 L -29.326 -38.333 C -31.802 -19.726 -18.604 -2.476 0 0" id="path905" stroke="none" fill="#EF8871" fill-rule="evenodd" fill-opacity="1"/></g><g id="g907" transform="matrix(1.33333,0,0,-1.33333,303.602,209.74)"><path d=" M 0 0 C 2.45 0.373 4.74 -1.312 5.113 -3.761 C 5.487 -6.211 3.803 -8.501 1.353 -8.875 C -1.097 -9.247 -3.388 -7.563 -3.761 -5.114 C -4.134 -2.664 -2.45 -0.374 0 0" id="path909" stroke="none" fill="#EA745D" fill-rule="evenodd" fill-opacity="1"/></g><g id="g911" transform="matrix(1.33333,0,0,-1.33333,352.653,201.979)"><path d=" M 0 0 C 2.45 0.373 4.74 -1.312 5.114 -3.761 C 5.487 -6.212 3.804 -8.5 1.354 -8.875 C -1.097 -9.248 -3.387 -7.564 -3.761 -5.114 C -4.134 -2.664 -2.45 -0.374 0 0" id="path913" stroke="none" fill="#EA745D" fill-rule="evenodd" fill-opacity="1"/></g><g id="g915" transform="matrix(1.33333,0,0,-1.33333,296.599,185.944)"><path d=" M 0 0 C -0.701 0.086 -1.342 -0.414 -1.429 -1.115 C -1.515 -1.815 -1.015 -2.458 -0.318 -2.544 C 0.838 -2.701 2.216 -2.631 3.357 -2.44 C 5.868 -2.022 8.138 -0.901 9.776 1.086 C 10.224 1.629 10.147 2.442 9.604 2.891 C 9.061 3.34 8.246 3.263 7.798 2.719 C 5.926 0.448 2.816 -0.298 0 0" id="path917" stroke="none" fill="#01020E" fill-rule="evenodd" fill-opacity="1"/></g><g id="g919" transform="matrix(1.33333,0,0,-1.33333,372.05,286.864)"><path d=" M 0 0 C 0 0 1.303 0.188 1.597 -0.833 C 1.89 -1.854 -2.43 -7.347 -2.711 -7.534 C -2.992 -7.722 -11.56 -6.643 -11.56 -6.643 C -11.56 -6.643 -12.012 -6.22 -11.915 -5.895 C -11.818 -5.568 -11.501 -5.284 -11.501 -5.284 Z" id="path921" stroke="none" fill="#000618" fill-rule="evenodd" fill-opacity="1"/></g><g id="g923" transform="matrix(1.33333,0,0,-1.33333,353.586,172.687)"><path d=" M 0 0 C -2.801 0.507 -5.938 0.05 -8.002 -2.075 C -8.494 -2.582 -9.309 -2.594 -9.815 -2.101 C -10.321 -1.607 -10.333 -0.794 -9.841 -0.287 C -8.046 1.562 -5.693 2.494 -3.157 2.707 C -2.005 2.804 -0.625 2.762 0.511 2.512 C 1.203 2.369 1.649 1.689 1.506 0.997 C 1.362 0.305 0.684 -0.141 0 0" id="path925" stroke="none" fill="#01020E" fill-rule="evenodd" fill-opacity="1"/></g><g id="g927" transform="matrix(1.33333,0,0,-1.33333,284.039,190.977)"><path d=" M 0 0 C 0 0 0.302 -2.262 0.581 -4.361 C 0.86 -6.461 -3.17 -12.08 -4.78 -12.294 L -5.8 -4.63 C -5.8 -4.63 -6.95 -1.206 -11.29 -1.784 C -26.644 11.753 -28.122 36.287 -15.584 50.779 C -3.046 65.271 27.375 70.142 32.941 69.074 C 38.509 68.007 45.203 59.694 45.203 59.694 C 45.203 59.694 49.189 64.334 53.668 62.794 C 58.147 61.253 75.727 36.635 76.608 30.012 C 77.49 23.389 66.416 8.559 66.416 8.559 C 62.076 7.981 61.861 4.376 61.861 4.376 L 62.495 -0.389 C 60.886 -0.604 59.697 1.435 59.418 3.534 C 59.138 5.634 58.837 7.896 58.837 7.896 C 44.677 12.054 36.996 29.342 36.996 29.342 C 36.996 29.342 22.24 -0.293 0 0" id="path929" stroke="none" fill="#000618" fill-rule="evenodd" fill-opacity="1"/></g><g id="g931" transform="matrix(1.33333,0,0,-1.33333,252.03,154.987)"><path d=" M 0 0 C -0.022 6.278 1.436 12.496 4.38 17.928 C 18.264 7.171 40.691 -0.031 59.371 41.23 C 60.575 40.64 61.779 39.826 62.911 38.935 C 55.675 17.951 37.192 -18.691 0 0" id="path933" stroke="none" fill="#0F1630" fill-rule="evenodd" fill-opacity="1"/></g><g id="g935" transform="matrix(1.33333,0,0,-1.33333,284.039,190.977)"><path d=" M 0 0 C 0 0 0.302 -2.262 0.581 -4.361 C 0.86 -6.461 -3.17 -12.08 -4.78 -12.294 L -5.8 -4.63 C -5.8 -4.63 -6.95 -1.206 -11.29 -1.784 C -17.299 3.514 -21.182 10.496 -22.933 17.901 C -22.913 17.888 3.369 -0.366 35.723 33.597 C 35.723 33.597 50.525 10.511 72.183 17.388 C 69.426 12.59 66.416 8.559 66.416 8.559 C 62.076 7.981 61.861 4.376 61.861 4.376 L 62.496 -0.389 C 60.886 -0.604 59.697 1.435 59.418 3.534 C 59.139 5.634 58.837 7.896 58.837 7.896 C 44.677 12.054 36.996 29.342 36.996 29.342 C 36.996 29.342 22.24 -0.293 0 0" id="path937" stroke="none" fill="#01020E" fill-rule="evenodd" fill-opacity="1"/></g><g id="g939" transform="matrix(1.33333,0,0,-1.33333,370.981,251.821)"><path d=" M 0 0 L 2.215 -0.604 C 2.215 -0.604 3.513 10.955 3.501 12.075 C 3.487 13.194 2.916 14.806 2.063 16.693 C 1.208 18.581 -1.925 25.717 -2.093 25.945 C -2.262 26.174 -4.287 24.415 -3.374 21.289 C -2.461 18.162 -0.914 13.931 -0.928 13.026 C -0.941 12.121 -3.011 4.114 -3.011 4.114 Z" id="path941" stroke="none" fill="#EF8871" fill-rule="evenodd" fill-opacity="1"/></g><g id="g943" transform="matrix(1.33333,0,0,-1.33333,373.944,251.955)"><path d=" M 0 0 C -0.005 1.058 -0.36 2.944 -2.581 4.291 C -4.802 5.638 -10.044 9.79 -11.162 10.275 C -12.28 10.762 -13.561 10.542 -14.889 9.694 C -16.217 8.846 -20.41 5.966 -21.294 5.047 C -22.178 4.129 -24.379 -1.527 -24.649 -2.121 C -24.919 -2.715 -22.704 -3.253 -20.937 -1.915 C -20.937 -1.915 -21.862 -3.771 -22.159 -4.4 C -22.456 -5.028 -22.865 -9.812 -22.901 -10.781 C -22.938 -11.751 -20.258 -11.267 -19.349 -9.037 C -19.349 -9.037 -19.494 -10.643 -19.495 -11.142 C -19.496 -11.64 -17.962 -11.452 -17.962 -11.452 C -17.962 -11.452 -16.194 -21.043 -15.798 -22.24 C -15.402 -23.437 -0.175 -78.189 -0.175 -78.189 L 21.852 -76.859 C 21.852 -76.859 -2.177 -23.122 -2.335 -22.332 C -3.697 -15.57 0.028 -5.684 0 0" id="path945" stroke="none" fill="#F4AD85" fill-rule="evenodd" fill-opacity="1"/></g><g id="g947" transform="matrix(1.33333,0,0,-1.33333,349.994,267.223)"><path d=" M 0 0 L 0.094 -0.507 L 0.128 -0.691 L 0.131 -0.709 L 0.133 -0.717 L 0.138 -0.743 L 0.143 -0.77 L 0.147 -0.797 L 0.152 -0.82 L 0.152 -0.824 L 0.158 -0.852 L 0.168 -0.908 L 0.174 -0.937 L 0.174 -0.939 L 0.19 -1.026 L 0.196 -1.057 C 0.668 -3.583 1.85 -9.837 2.164 -10.789 C 2.458 -11.677 10.906 -42.013 15.254 -57.634 C 19.985 -55.737 23.664 -53.494 23.664 -53.494 C 23.664 -53.494 6.624 -13.827 6.226 -12.264 C 5.828 -10.701 6.765 -9.461 6.436 -9.039 C 6.107 -8.616 4.792 -8.006 4.464 -6.879 C 4.136 -5.752 3.337 -1.762 3.854 -0.166 C 4.252 1.066 5.546 0.915 6.116 0.782 C 6.768 0.599 7.392 0.415 7.787 0.363 C 8.642 0.25 8.577 0.771 8.577 0.771 C 8.766 2.538 10.48 5.053 10.48 5.053 C 9.547 5.561 8.1 7.968 8.1 7.968 C 7.146 8.38 6.396 8.91 5.651 8.384 C 4.905 7.856 2.834 5.703 2.826 5.515 C 2.818 5.327 2.61 3.216 2.254 1.802 C 1.898 0.388 0 0 0 0" id="path949" stroke="none" fill="#EF8871" fill-rule="evenodd" fill-opacity="1"/></g><g id="g951" transform="matrix(1.33333,0,0,-1.33333,218.625,468.951)"><path d=" M 0 0 L 159.681 0 C 162.135 0 164.141 2.158 164.141 4.798 L 164.141 4.799 C 164.141 7.437 162.134 9.596 159.681 9.596 L 0 9.596 C -2.453 9.596 -4.459 7.436 -4.459 4.799 L -4.459 4.798 C -4.459 2.16 -2.453 0 0 0" id="path953" stroke="none" fill="#000618" fill-rule="evenodd" fill-opacity="1"/></g><g id="g955" transform="matrix(1.33333,0,0,-1.33333,435.395,333.257)"><path d=" M 0 0 L -52.562 0 L -112.913 0 L -165.475 0 C -167.936 0 -169.646 -2.013 -169.275 -4.474 L -156.628 -88.472 C -156.258 -90.933 -153.94 -92.946 -151.48 -92.946 L -126.908 -92.946 L -38.566 -92.946 L -13.995 -92.946 C -11.534 -92.946 -9.217 -90.933 -8.847 -88.472 L 3.801 -4.474 C 4.172 -2.013 2.461 0 0 0" id="path957" stroke="none" fill="#000618" fill-rule="evenodd" fill-opacity="1"/></g><g id="g959" transform="matrix(1.33333,0,0,-1.33333,430.489,338.55)"><path d=" M 0 0 L -50.225 0 L -107.891 0 L -158.114 0 C -160.466 0 -162.1 -1.924 -161.747 -4.274 L -149.661 -84.536 C -149.308 -86.888 -147.094 -88.812 -144.742 -88.812 L -121.264 -88.812 L -36.852 -88.812 L -13.373 -88.812 C -11.021 -88.812 -8.808 -86.888 -8.453 -84.536 L 3.632 -4.274 C 3.985 -1.924 2.352 0 0 0" id="path961" stroke="none" fill="#0F1630" fill-rule="evenodd" fill-opacity="1"/></g><g id="g963" transform="matrix(1.33333,0,0,-1.33333,226.808,423.818)"><path d=" M 0 0 L 3.1 -20.585 C 3.453 -22.937 5.667 -24.86 8.019 -24.86 L 31.497 -24.86 L 115.909 -24.86 L 139.388 -24.86 C 141.739 -24.86 143.953 -22.937 144.308 -20.585 L 156.393 59.677 C 156.677 61.565 155.678 63.179 154.055 63.739 C 135.956 32.519 91.481 -18.62 0 0" id="path965" stroke="none" fill="#000618" fill-rule="evenodd" fill-opacity="1"/></g><g id="g967" transform="matrix(1.33333,0,0,-1.33333,325.08,428.517)"><path d=" M 0 0 C 9.687 0 17.586 6.595 17.586 14.681 C 17.586 22.766 9.687 29.36 0 29.36 C -9.687 29.36 -17.586 22.766 -17.586 14.681 C -17.586 6.595 -9.687 0 0 0" id="path969" stroke="none" fill="#000618" fill-rule="evenodd" fill-opacity="1"/></g><g id="g971" transform="matrix(1.33333,0,0,-1.33333,339.554,417.616)"><path d=" M 0 0 L -6.141 3.38 L -16.38 -3.655 C -14.696 -4.295 -12.826 -4.65 -10.856 -4.65 C -6.384 -4.65 -2.425 -2.816 1.77636e-15 8.88178e-16 M -10.856 17.66 C -5.937 17.66 -1.639 15.44 0.681 12.136 L -19.765 -1.809 C -22.499 0.233 -24.22 3.201 -24.22 6.505 C -24.22 12.665 -18.237 17.66 -10.856 17.66" id="path973" stroke="none" fill="#FFFFFF" fill-rule="evenodd" fill-opacity="1"/></g><g id="g975" transform="matrix(1.33333,0,0,-1.33333,348.803,185.009)"><path d=" M 0 0 L 0 0 C -1.551 -0.247 -2.616 -1.716 -2.369 -3.265 L -1.784 -6.939 C -1.538 -8.489 -0.068 -9.555 1.481 -9.309 C 3.03 -9.062 4.098 -7.593 3.851 -6.042 L 3.266 -2.368 C 3.019 -0.818 1.55 0.247 0 0" id="path977" stroke="none" fill="#01020E" fill-rule="evenodd" fill-opacity="1"/></g><g id="g979" transform="matrix(1.33333,0,0,-1.33333,303.225,191.914)"><path d=" M 0 0 L 0 0 C -1.55 -0.246 -2.615 -1.716 -2.369 -3.266 L -1.784 -6.939 C -1.537 -8.488 -0.068 -9.556 1.482 -9.309 C 3.031 -9.063 4.098 -7.592 3.85 -6.043 L 3.265 -2.368 C 3.019 -0.819 1.549 0.247 0 0" id="path981" stroke="none" fill="#01020E" fill-rule="evenodd" fill-opacity="1"/></g><g id="g983" transform="matrix(1.33333,0,0,-1.33333,344.804,218.754)"><path d=" M 0 0 C 0.446 -0.37 0.536 -1.011 0.202 -1.43 C -0.133 -1.849 -0.766 -1.888 -1.212 -1.517 C -1.222 -1.508 -4.631 1.467 -10.707 -4.129 C -11.101 -4.492 -11.741 -4.442 -12.137 -4.016 C -12.533 -3.59 -12.535 -2.95 -12.142 -2.587 C -4.807 4.168 -0.014 0.012 0 0" id="path985" stroke="none" fill="#EF8871" fill-rule="evenodd" fill-opacity="1"/></g><g id="g987" transform="matrix(1.33333,0,0,-1.33333,373.134,287.121)"><path d=" M 0 0 C 0 0 0.442 -0.053 0.513 -0.616 C 0.583 -1.18 -2.822 -5.604 -12.351 -5.939 C -12.351 -5.939 -12.579 -5.868 -12.614 -5.722 C -12.65 -5.575 -12.499 -5.412 -12.499 -5.412 L -12.548 -5.234 C -12.548 -5.234 -12.891 -5.48 -12.891 -5.774 C -12.891 -6.067 -11.482 -11.953 -11.2 -13.433 C -10.919 -14.911 -8.022 -14.569 -5.574 -13.977 C -3.126 -13.385 2.712 -11.34 4.245 -8.175 C 4.245 -8.175 4.433 -7.377 4.198 -6.695 C 3.963 -6.015 1.006 -0.534 0.854 -0.205 C 0.701 0.123 0.233 0.29 -0.097 0.222 Z" id="path989" stroke="none" fill="#0F1630" fill-rule="evenodd" fill-opacity="1"/></g><g id="g991" transform="matrix(1.33333,0,0,-1.33333,362.697,294.341)"><path d=" M 0 0 C -1.324 -0.274 -2.826 -0.465 -4.523 -0.524 C -4.523 -0.524 -4.752 -0.453 -4.787 -0.307 C -4.823 -0.16 -4.672 0.003 -4.672 0.003 L -4.721 0.181 C -4.721 0.181 -5.063 -0.065 -5.063 -0.359 C -5.063 -0.652 -3.655 -6.538 -3.373 -8.018 C -3.092 -9.496 -0.195 -9.154 2.253 -8.562 C 2.601 -8.478 3.019 -8.364 3.482 -8.222 L 0 -0.001 Z" id="path993" stroke="none" fill="#000618" fill-rule="evenodd" fill-opacity="1"/></g><g id="g995" transform="matrix(1.33333,0,0,-1.33333,149.016,475.012)"><path d=" M 0 0 L 263.769 0 C 267.082 0 269.792 -2.711 269.792 -6.024 C 269.792 -9.337 267.082 -12.048 263.769 -12.048 L 0 -12.048 C -3.313 -12.048 -6.024 -9.338 -6.024 -6.024 C -6.024 -2.711 -3.313 0 0 0" id="path997" stroke="none" fill="#000618" fill-rule="evenodd" fill-opacity="1"/></g><g id="g999" transform="matrix(1.33333,0,0,-1.33333,131.918,462.552)"><path d=" M 0 0 L 289.416 0 C 293.641 0 297.099 -3.458 297.099 -7.684 L 297.099 -7.685 C 297.099 -11.91 293.641 -15.369 289.416 -15.369 L 0 -15.369 C -4.226 -15.369 -7.684 -11.911 -7.684 -7.685 L -7.684 -7.684 C -7.684 -3.458 -4.226 0 0 0" id="path1001" stroke="none" fill="#BE865E" fill-rule="evenodd" fill-opacity="1"/></g><path d=" M 365.812 462.552 L 387.13 462.552 L 387.13 483.044 L 365.812 483.044 Z" id="path1003" stroke="none" stroke-width="1.33333" fill="#915E40" fill-rule="evenodd" fill-opacity="1"/><path d=" M 398.204 462.552 L 409.279 462.552 L 409.279 483.044 L 398.204 483.044 Z" id="path1005" stroke="none" stroke-width="1.33333" fill="#915E40" fill-rule="evenodd" fill-opacity="1"/><path d=" M 420.907 462.552 L 426.444 462.552 L 426.444 483.044 L 420.907 483.044 Z" id="path1007" stroke="none" stroke-width="1.33333" fill="#915E40" fill-rule="evenodd" fill-opacity="1"/><path d=" M 445.408 462.552 L 469.255 462.552 L 469.255 483.044 L 445.408 483.044 Z" id="path1009" stroke="none" stroke-width="1.33333" fill="#915E40" fill-rule="evenodd" fill-opacity="1"/><path d=" M 487.232 462.552 L 499.155 462.552 L 499.155 483.044 L 487.232 483.044 Z" id="path1011" stroke="none" stroke-width="1.33333" fill="#915E40" fill-rule="evenodd" fill-opacity="1"/><g id="g1013" transform="matrix(1.33333,0,0,-1.33333,132.746,465.879)"><path d=" M 0 0 L 140.662 0 C 143.173 0 145.229 -2.056 145.229 -4.567 L 145.229 -4.568 C 145.229 -7.08 143.173 -9.136 140.662 -9.136 L 0 -9.136 C -2.511 -9.136 -4.567 -7.08 -4.567 -4.568 L -4.567 -4.567 C -4.567 -2.056 -2.512 0 0 0" id="path1015" stroke="none" fill="#D49D80" fill-rule="evenodd" fill-opacity="1"/></g><g id="g1017" transform="matrix(1.33333,0,0,-1.33333,257.1,47.3767)"><path d=" M 0 0 L 3.288 -18.927 L 45.958 15.394 L 1.403 4.437 Z" id="path1019" stroke="none" fill="#D5EAF5" fill-rule="evenodd" fill-opacity="1"/></g><g id="g1021" transform="matrix(1.33333,0,0,-1.33333,261.484,72.6123)"><path d=" M 0 0 L 16.455 13.235 C 16.675 14.783 17.225 16.591 17.225 16.591 L 3.399 12.876 Z" id="path1023" stroke="none" fill="#ECF6FC" fill-rule="evenodd" fill-opacity="1"/></g><g id="g1025" transform="matrix(1.33333,0,0,-1.33333,318.377,26.8519)"><path d=" M 0 0 L -57.705 -10.674 L -45.958 -15.394 Z" id="path1027" stroke="none" fill="#FFFFFF" fill-rule="evenodd" fill-opacity="1"/></g><g id="g1029" transform="matrix(1.33333,0,0,-1.33333,318.377,26.8519)"><path d=" M 0 0 L -25.932 -34.453 L -39.271 -21.444 Z" id="path1031" stroke="none" fill="#FFFFFF" fill-rule="evenodd" fill-opacity="1"/></g><g id="g1033" transform="matrix(1.33333,0,0,-1.33333,140.142,284.452)"><path d=" M 0 0 C 5.619 1.338 11.473 2.05 17.485 2.05 C 25.867 2.05 32.724 8.907 32.724 17.288 C 32.724 18.018 32.671 18.735 32.571 19.437 L 56.669 19.437 C 60.305 19.437 63.28 16.463 63.28 12.827 L 63.28 -14.436 L 63.28 -16.452 L 63.28 -33.807 C 63.28 -34.111 63.106 -34.372 62.824 -34.488 C 62.542 -34.605 62.235 -34.544 62.02 -34.329 L 50.755 -23.063 L 6.611 -23.063 C 2.975 -23.063 0 -20.089 0 -16.452 Z" id="path1035" stroke="none" fill="#A6CAE4" fill-rule="evenodd" fill-opacity="1"/></g><path d=" M 145.604 255.182 L 212.348 255.182 C 217.196 255.182 221.163 259.149 221.163 263.996 L 221.163 300.348 L 221.163 303.037 L 221.163 326.174 C 221.163 326.582 220.931 326.929 220.555 327.085 C 220.179 327.24 219.771 327.158 219.483 326.872 L 204.463 311.85 L 145.604 311.85 C 140.756 311.85 136.789 307.884 136.789 303.037 L 136.789 263.996 C 136.789 259.149 140.756 255.182 145.604 255.182" id="path1039" stroke="none" stroke-width="1.33333" fill="#FF5A14" fill-rule="evenodd" fill-opacity="1"/><g id="g1041" transform="matrix(1.33333,0,0,-1.33333,199.285,273.892)"><path d=" M 0 0 L -8.532 0.033 C -8.691 0.033 -8.853 0.07 -9.005 0.147 L -23.691 7.646 L -23.788 -19.077 L -9.076 -11.707 C -8.928 -11.627 -8.758 -11.581 -8.578 -11.582 L -0.137 -11.615 L -0.025 -11.611 C 1.493 -11.611 2.878 -10.97 3.886 -9.937 C 4.887 -8.909 5.519 -7.498 5.547 -5.941 L 5.544 -5.833 C 5.544 -4.226 4.917 -2.765 3.904 -1.708 C 2.899 -0.659 1.519 -0.006 0 0 M -8.282 2.109 L 0 2.077 C 2.114 2.069 4.024 1.172 5.403 -0.266 C 6.778 -1.701 7.629 -3.673 7.629 -5.833 L 7.629 -5.861 C 7.629 -5.896 7.627 -5.93 7.624 -5.964 C 7.59 -8.078 6.734 -9.993 5.376 -11.386 C 3.987 -12.813 2.074 -13.696 -0.025 -13.696 L -0.05 -13.696 C -0.082 -13.696 -0.114 -13.694 -0.145 -13.691 L -8.339 -13.659 L -22.945 -20.977 C -23.27 -21.14 -23.612 -21.211 -23.952 -21.191 C -24.295 -21.172 -24.629 -21.062 -24.932 -20.865 C -25.232 -20.67 -25.467 -20.41 -25.628 -20.107 C -25.784 -19.812 -25.866 -19.479 -25.865 -19.125 L -25.768 7.702 C -25.767 8.063 -25.682 8.398 -25.523 8.692 C -25.36 8.995 -25.124 9.251 -24.824 9.443 C -24.52 9.638 -24.185 9.745 -23.839 9.762 C -23.495 9.779 -23.152 9.707 -22.833 9.544 L -22.756 9.5 Z" id="path1043" stroke="none" fill="#FFFFFF" fill-rule="evenodd" fill-opacity="1"/></g><g id="g1045" transform="matrix(1.33333,0,0,-1.33333,201.739,290.392)"><path d=" M 0 0 L 0 -9.351 C 0 -11.184 -1.5 -12.684 -3.333 -12.684 C -5.167 -12.684 -6.667 -11.184 -6.667 -9.351 L -6.667 -0.26 L -1.89 -0.278 C -1.235 -0.281 -0.6 -0.184 0 0" id="path1047" stroke="none" fill="#FFFFFF" fill-rule="evenodd" fill-opacity="1"/></g><path d=" M 189.969 290.736 L 192.053 290.736 L 192.053 272.475 L 189.969 272.475 Z" id="path1049" stroke="none" stroke-width="1.33333" fill="#FFFFFF" fill-rule="evenodd" fill-opacity="1"/><path d=" M 196.651 290.736 L 198.735 290.736 L 198.735 272.475 L 196.651 272.475 Z" id="path1051" stroke="none" stroke-width="1.33333" fill="#FFFFFF" fill-rule="evenodd" fill-opacity="1"/><g id="g1053" transform="matrix(1.33333,0,0,-1.33333,160.315,284.676)"><path d=" M 0 0 C 0.567 0.097 1.105 -0.284 1.201 -0.851 C 1.298 -1.417 0.917 -1.955 0.351 -2.052 L -7.648 -3.444 C -8.215 -3.541 -8.753 -3.16 -8.85 -2.594 C -8.947 -2.027 -8.566 -1.489 -7.999 -1.393 Z M 0.627 12.733 C 1.145 12.484 1.361 11.862 1.112 11.345 C 0.862 10.828 0.241 10.611 -0.277 10.86 L -6.3 13.769 C -6.817 14.018 -7.034 14.64 -6.784 15.157 C -6.535 15.674 -5.913 15.892 -5.396 15.642 Z M -0.277 -6.114 C 0.241 -5.865 0.862 -6.082 1.112 -6.6 C 1.361 -7.116 1.145 -7.738 0.627 -7.987 L -4.642 -10.531 C -5.16 -10.781 -5.781 -10.564 -6.031 -10.047 C -6.28 -9.53 -6.063 -8.908 -5.546 -8.658 Z M 0.351 6.798 C 0.917 6.701 1.298 6.163 1.201 5.597 C 1.105 5.03 0.567 4.649 0 4.745 L -7.999 6.139 C -8.566 6.234 -8.947 6.773 -8.85 7.34 C -8.753 7.906 -8.215 8.287 -7.648 8.19 Z" id="path1055" stroke="none" fill="#FFFFFF" fill-rule="evenodd" fill-opacity="1"/></g><g id="g1057" transform="matrix(1.33333,0,0,-1.33333,498.211,75.0759)"><path d=" M 0 0 L -52.08 0 C -55.863 0 -58.958 -3.095 -58.958 -6.878 L -58.958 -35.241 L -58.958 -37.34 L -58.958 -55.395 C -58.958 -55.712 -58.777 -55.982 -58.483 -56.104 C -58.19 -56.226 -57.871 -56.162 -57.647 -55.938 L -45.927 -44.218 L 0 -44.218 C 3.782 -44.218 6.877 -41.123 6.877 -37.34 L 6.877 -6.878 C 6.877 -3.095 3.782 0 0 0" id="path1059" stroke="none" fill="#A6CAE4" fill-rule="evenodd" fill-opacity="1"/></g><g id="g1061" transform="matrix(1.33333,0,0,-1.33333,494.224,75.0759)"><path d=" M 0 0 L -52.079 0 C -55.862 0 -58.957 -3.095 -58.957 -6.878 L -58.957 -35.241 L -58.957 -37.34 L -58.957 -55.395 C -58.957 -55.712 -58.776 -55.982 -58.483 -56.104 C -58.19 -56.226 -57.871 -56.162 -57.646 -55.938 L -45.927 -44.218 L 0 -44.218 C 3.783 -44.218 6.878 -41.123 6.878 -37.34 L 6.878 -6.878 C 6.878 -3.095 3.783 0 0 0" id="path1063" stroke="none" fill="#FF5A14" fill-rule="evenodd" fill-opacity="1"/></g><g id="g1065" transform="matrix(1.33333,0,0,-1.33333,442.166,103.295)"><path d=" M 0 0 C 2.729 0 4.954 2.227 4.954 4.955 C 4.954 7.685 2.729 9.911 0 9.911 C -2.729 9.911 -4.956 7.685 -4.956 4.955 C -4.956 2.227 -2.729 0 0 0" id="path1067" stroke="none" fill="#F09A9B" fill-rule="evenodd" fill-opacity="1"/></g><g id="g1069" transform="matrix(1.33333,0,0,-1.33333,442.166,105.387)"><path d=" M 0 0 L 0 0 C 3.864 0 7.026 -3.162 7.026 -7.026 L 7.026 -10.049 L 7.026 -11.892 L 7.026 -13.881 C 7.026 -14.313 6.673 -14.667 6.239 -14.667 L -6.241 -14.667 C -6.673 -14.667 -7.026 -14.313 -7.026 -13.881 L -7.026 -11.892 L -7.026 -10.049 L -7.026 -7.026 C -7.026 -3.162 -3.864 0 0 0" id="path1071" stroke="none" fill="#F09A9B" fill-rule="evenodd" fill-opacity="1"/></g><g id="g1073" transform="matrix(1.33333,0,0,-1.33333,476.842,103.295)"><path d=" M 0 0 C 2.729 0 4.955 2.227 4.955 4.955 C 4.955 7.685 2.729 9.911 0 9.911 C -2.729 9.911 -4.955 7.685 -4.955 4.955 C -4.955 2.227 -2.729 0 0 0" id="path1075" stroke="none" fill="#F09A9B" fill-rule="evenodd" fill-opacity="1"/></g><g id="g1077" transform="matrix(1.33333,0,0,-1.33333,476.842,105.387)"><path d=" M 0 0 L 0 0 C 3.864 0 7.026 -3.162 7.026 -7.026 L 7.026 -10.049 L 7.026 -11.892 L 7.026 -13.881 C 7.026 -14.313 6.673 -14.667 6.24 -14.667 L -6.24 -14.667 C -6.673 -14.667 -7.025 -14.313 -7.025 -13.881 L -7.025 -11.892 L -7.025 -10.049 L -7.025 -7.026 C -7.025 -3.162 -3.864 0 0 0" id="path1079" stroke="none" fill="#F09A9B" fill-rule="evenodd" fill-opacity="1"/></g><g id="g1081" transform="matrix(1.33333,0,0,-1.33333,459.505,98.9027)"><path d=" M 0 0 C 3.283 0 5.96 2.678 5.96 5.961 C 5.96 9.243 3.283 11.921 0 11.921 C -3.283 11.921 -5.961 9.243 -5.961 5.961 C -5.961 2.678 -3.283 0 0 0" id="path1083" stroke="none" fill="#FFFFFF" fill-rule="evenodd" fill-opacity="1"/></g><g id="g1085" transform="matrix(1.33333,0,0,-1.33333,459.505,101.421)"><path d=" M 0 0 L 0 0 C 4.648 0 8.451 -3.803 8.451 -8.451 L 8.451 -12.086 L 8.451 -14.303 L 8.451 -16.696 C 8.451 -17.217 8.026 -17.642 7.506 -17.642 L -7.507 -17.642 C -8.027 -17.642 -8.452 -17.217 -8.452 -16.696 L -8.452 -14.303 L -8.452 -12.086 L -8.452 -8.451 C -8.452 -3.803 -4.648 0 0 0" id="path1087" stroke="none" fill="#FFFFFF" fill-rule="evenodd" fill-opacity="1"/></g><g id="g1089" fill="#0050BE" fill-opacity="1" transform="matrix(1.33333,0,0,-1.33333,546.033,303.894)"><path d=" M 0 0 C -1.559 -0.363 -3.146 -0.89 -4.576 -1.631 C -4.277 -1.986 -3.964 -2.329 -3.635 -2.658 C -1.77 -4.524 0.525 -5.891 3.04 -6.637 C 2.327 -5.746 1.751 -4.722 1.292 -3.716 C 0.75 -2.524 0.329 -1.269 0 0 M 19.658 -1.631 C 18.229 -0.891 16.642 -0.364 15.082 0 C 14.753 -1.269 14.332 -2.524 13.791 -3.715 C 13.332 -4.723 12.755 -5.746 12.042 -6.637 C 14.557 -5.891 16.852 -4.524 18.718 -2.658 C 19.046 -2.329 19.359 -1.986 19.658 -1.631 M 15.289 16.188 C 16.951 16.596 18.667 17.191 20.159 18.04 C 19.718 18.624 19.235 19.178 18.718 19.696 C 16.852 21.562 14.558 22.93 12.043 23.676 C 12.755 22.785 13.332 21.761 13.791 20.755 C 14.451 19.303 14.936 17.748 15.289 16.188 M -5.077 18.04 C -3.585 17.191 -1.869 16.596 -0.207 16.188 C 0.146 17.748 0.631 19.303 1.293 20.755 C 1.751 21.761 2.327 22.785 3.04 23.676 C 0.525 22.93 -1.77 21.562 -3.635 19.696 C -4.153 19.178 -4.636 18.624 -5.077 18.04 M 6.598 15.312 L 6.598 24.154 C 4.918 23.545 3.679 21.447 3.007 19.973 C 2.403 18.647 1.962 17.225 1.639 15.8 C 3.273 15.512 4.937 15.355 6.598 15.312 M 6.598 -7.115 L 6.598 0.825 C 5.009 0.784 3.417 0.64 1.851 0.375 C 2.147 -0.755 2.524 -1.874 3.008 -2.934 C 3.679 -4.409 4.918 -6.506 6.598 -7.115 M 8.485 0.825 L 8.485 -7.115 C 10.165 -6.505 11.403 -4.408 12.075 -2.934 C 12.558 -1.874 12.935 -0.755 13.231 0.375 C 11.665 0.64 10.073 0.784 8.485 0.825 M 8.485 24.154 L 8.485 15.312 C 10.145 15.355 11.809 15.512 13.443 15.8 C 13.12 17.225 12.679 18.647 12.075 19.973 C 11.403 21.447 10.165 23.545 8.485 24.154 M 16.098 9.464 L 23.319 9.464 C 23.174 11.936 22.454 14.326 21.208 16.466 C 19.51 15.478 17.553 14.795 15.649 14.335 C 15.913 12.727 16.058 11.094 16.098 9.464 M 13.802 13.948 C 12.049 13.636 10.266 13.468 8.485 13.424 L 8.485 9.464 L 14.21 9.464 C 14.172 10.964 14.04 12.466 13.802 13.948 M 1.281 13.948 C 1.043 12.466 0.911 10.964 0.873 9.464 L 6.598 9.464 L 6.598 13.424 C 4.817 13.468 3.033 13.636 1.281 13.948 M -8.237 9.464 L -1.016 9.464 C -0.976 11.094 -0.831 12.727 -0.567 14.335 C -2.474 14.796 -4.434 15.479 -6.125 16.466 C -7.372 14.326 -8.092 11.936 -8.237 9.464 M -1.016 7.575 L -8.237 7.575 C -8.076 4.836 -7.211 2.202 -5.713 -0.098 C -4.068 0.792 -2.226 1.416 -0.414 1.84 C -0.776 3.726 -0.968 5.655 -1.016 7.575 M 6.598 7.575 L 0.873 7.575 C 0.918 5.782 1.097 3.979 1.435 2.217 C 3.138 2.512 4.869 2.672 6.598 2.714 Z M 14.21 7.575 L 8.485 7.575 L 8.485 2.714 C 10.214 2.672 11.945 2.512 13.648 2.217 C 13.985 3.979 14.164 5.782 14.21 7.575 M 23.319 7.575 L 16.099 7.575 C 16.051 5.655 15.858 3.726 15.496 1.84 C 17.308 1.416 19.15 0.792 20.795 -0.098 C 22.293 2.202 23.158 4.836 23.319 7.575 M 7.541 26.214 C 12.25 26.214 16.724 24.359 20.053 21.031 C 23.382 17.702 25.235 13.228 25.235 8.52 C 25.235 3.811 23.382 -0.664 20.053 -3.992 C 16.724 -7.321 12.25 -9.175 7.541 -9.175 C 2.832 -9.175 -1.642 -7.321 -4.971 -3.992 C -8.299 -0.664 -10.153 3.811 -10.153 8.52 C -10.153 13.228 -8.299 17.702 -4.971 21.031 C -1.642 24.359 2.832 26.214 7.541 26.214" id="path1091" stroke="none" fill="#0050BE" fill-rule="evenodd" fill-opacity="1"/></g><g id="g1093" fill="#0050BE" fill-opacity="1" transform="matrix(1.33333,0,0,-1.33333,91.6559,163.091)"><path d=" M 0 0 L -3.545 0 C -3.602 0 -3.65 -0.016 -3.68 -0.043 L -3.703 -0.067 C -3.745 -0.108 -3.77 -0.165 -3.77 -0.224 L -3.77 -11.419 C -3.77 -11.479 -3.745 -11.535 -3.703 -11.577 C -3.66 -11.619 -3.605 -11.644 -3.545 -11.644 L 0 -11.644 C 0.057 -11.644 0.104 -11.629 0.134 -11.603 L 0.158 -11.577 C 0.199 -11.535 0.224 -11.479 0.224 -11.419 L 0.224 -0.224 C 0.224 -0.164 0.199 -0.107 0.157 -0.065 C 0.115 -0.024 0.059 0 0 0 M 2.207 -9.456 C 3.1 -10.357 4.6 -11.54 5.875 -11.54 L 13.674 -11.54 C 14.809 -11.54 15.731 -10.767 15.947 -9.647 C 16.009 -9.351 16.202 -9.099 16.474 -8.963 C 17.194 -8.603 17.215 -7.419 17.112 -6.758 C 17.03 -6.377 17.18 -5.988 17.495 -5.757 C 18.435 -5.064 18.117 -3.56 17.714 -2.666 C 17.592 -2.442 17.565 -2.188 17.631 -1.942 C 17.726 -1.589 17.798 -1.209 17.798 -0.842 C 17.798 -0.519 17.74 -0.161 17.519 0.091 C 17.333 0.303 17.051 0.426 16.784 0.498 C 16.483 0.579 16.162 0.607 15.852 0.607 L 11.598 0.607 C 10.648 0.607 9.879 0.921 9.493 1.853 C 9.048 2.926 9.463 4.538 9.792 5.59 C 9.949 6.095 10.034 6.617 10.035 7.146 C 10.036 7.893 9.861 8.661 9.491 9.313 C 9.376 9.517 9.055 10 8.811 10.104 L 8.149 10.104 C 8.125 8.812 8.036 7.475 7.689 6.237 C 7.225 4.582 6.339 3.277 4.8 2.448 C 3.333 1.658 2.457 -0.261 2.207 -1.855 Z M 1.318 1.542 C 1.916 2.636 2.746 3.591 3.861 4.191 C 4.905 4.753 5.47 5.653 5.783 6.771 C 6.16 8.116 6.175 9.703 6.175 11.095 C 6.175 11.642 6.619 12.085 7.167 12.085 L 8.863 12.085 C 9.036 12.085 9.208 12.055 9.373 12.004 C 10.157 11.759 10.821 10.979 11.212 10.289 C 11.75 9.341 12.013 8.232 12.015 7.146 C 12.016 6.418 11.899 5.695 11.682 5.001 C 11.531 4.52 11.114 3.111 11.308 2.63 C 11.357 2.595 11.539 2.59 11.598 2.59 L 15.852 2.59 C 16.336 2.59 16.828 2.537 17.296 2.411 C 17.954 2.234 18.553 1.91 19.007 1.395 C 19.559 0.765 19.78 -0.016 19.78 -0.842 C 19.78 -1.271 19.721 -1.701 19.627 -2.12 C 20.24 -3.7 20.363 -5.664 19.118 -6.958 C 19.195 -8.265 18.872 -9.689 17.764 -10.485 C 17.16 -12.328 15.68 -13.522 13.674 -13.522 L 5.875 -13.522 C 4.543 -13.522 3.212 -12.816 2.129 -11.999 C 2.027 -12.367 1.83 -12.708 1.546 -12.991 L 1.512 -13.022 C 1.102 -13.409 0.564 -13.626 0 -13.626 L -3.545 -13.626 C -4.131 -13.626 -4.69 -13.394 -5.104 -12.979 C -5.519 -12.564 -5.751 -12.006 -5.751 -11.419 L -5.751 -0.224 C -5.751 0.362 -5.519 0.921 -5.09 1.349 L -5.057 1.378 C -4.647 1.766 -4.109 1.981 -3.545 1.981 L 0 1.981 C 0.479 1.981 0.939 1.825 1.318 1.542" id="path1095" stroke="none" fill="#0050BE" fill-rule="evenodd" fill-opacity="1"/></g><g id="g1097" transform="matrix(1.33333,0,0,-1.33333,469.695,59.3519)"><path d=" M 0 0 L 3.005 0 C 3.728 0 4.319 0.592 4.319 1.314 L 4.319 4.319 C 4.319 5.042 3.728 5.634 3.005 5.634 L 0 5.634 C -0.724 5.634 -1.314 5.042 -1.314 4.319 L -1.314 1.314 C -1.314 0.592 -0.724 0 0 0" id="path1099" stroke="none" fill="#FFFFFF" fill-rule="evenodd" fill-opacity="1"/></g><g id="g1101" transform="matrix(1.33333,0,0,-1.33333,483.589,59.3519)"><path d=" M 0 0 L 3.005 0 C 3.729 0 4.319 0.592 4.319 1.314 L 4.319 4.319 C 4.319 5.042 3.729 5.634 3.005 5.634 L 0 5.634 C -0.723 5.634 -1.314 5.042 -1.314 4.319 L -1.314 1.314 C -1.314 0.592 -0.723 0 0 0" id="path1103" stroke="none" fill="#A6CAE4" fill-rule="evenodd" fill-opacity="1"/></g><g id="g1105" transform="matrix(1.33333,0,0,-1.33333,497.484,59.3519)"><path d=" M 0 0 L 3.005 0 C 3.729 0 4.319 0.592 4.319 1.314 L 4.319 4.319 C 4.319 5.042 3.729 5.634 3.005 5.634 L 0 5.634 C -0.723 5.634 -1.313 5.042 -1.313 4.319 L -1.313 1.314 C -1.313 0.592 -0.723 0 0 0" id="path1107" stroke="none" fill="#FFFFFF" fill-rule="evenodd" fill-opacity="1"/></g><g id="g1109" transform="matrix(1.33333,0,0,-1.33333,511.38,59.3519)"><path d=" M 0 0 L 3.005 0 C 3.728 0 4.319 0.592 4.319 1.314 L 4.319 4.319 C 4.319 5.042 3.728 5.634 3.005 5.634 L 0 5.634 C -0.723 5.634 -1.314 5.042 -1.314 4.319 L -1.314 1.314 C -1.314 0.592 -0.723 0 0 0" id="path1111" stroke="none" fill="#A6CAE4" fill-rule="evenodd" fill-opacity="1"/></g><g id="g1113" transform="matrix(1.33333,0,0,-1.33333,525.274,59.3519)"><path d=" M 0 0 L 3.005 0 C 3.729 0 4.319 0.592 4.319 1.314 L 4.319 4.319 C 4.319 5.042 3.729 5.634 3.005 5.634 L 0 5.634 C -0.723 5.634 -1.313 5.042 -1.313 4.319 L -1.313 1.314 C -1.313 0.592 -0.723 0 0 0" id="path1115" stroke="none" fill="#FFFFFF" fill-rule="evenodd" fill-opacity="1"/></g><g id="g1117" transform="matrix(1.33333,0,0,-1.33333,539.169,59.3519)"><path d=" M 0 0 L 3.006 0 C 3.729 0 4.32 0.592 4.32 1.314 L 4.32 4.319 C 4.32 5.042 3.729 5.634 3.006 5.634 L 0 5.634 C -0.723 5.634 -1.313 5.042 -1.313 4.319 L -1.313 1.314 C -1.313 0.592 -0.723 0 0 0" id="path1119" stroke="none" fill="#FFFFFF" fill-rule="evenodd" fill-opacity="1"/></g><g id="g1121" transform="matrix(1.33333,0,0,-1.33333,553.065,59.3519)"><path d=" M 0 0 L 3.005 0 C 3.728 0 4.319 0.592 4.319 1.314 L 4.319 4.319 C 4.319 5.042 3.728 5.634 3.005 5.634 L 0 5.634 C -0.723 5.634 -1.314 5.042 -1.314 4.319 L -1.314 1.314 C -1.314 0.592 -0.723 0 0 0" id="path1123" stroke="none" fill="#FFFFFF" fill-rule="evenodd" fill-opacity="1"/></g><g id="g1125" transform="matrix(1.33333,0,0,-1.33333,511.882,44.2035)"><path d=" M 0 0 L 3.005 0 C 3.728 0 4.319 0.591 4.319 1.313 L 4.319 4.319 C 4.319 5.042 3.728 5.633 3.005 5.633 L 0 5.633 C -0.723 5.633 -1.314 5.042 -1.314 4.319 L -1.314 1.313 C -1.314 0.591 -0.723 0 0 0" id="path1127" stroke="none" fill="#FFFFFF" fill-rule="evenodd" fill-opacity="1"/></g><g id="g1129" transform="matrix(1.33333,0,0,-1.33333,525.778,44.2035)"><path d=" M 0 0 L 3.005 0 C 3.728 0 4.319 0.591 4.319 1.313 L 4.319 4.319 C 4.319 5.042 3.728 5.633 3.005 5.633 L 0 5.633 C -0.724 5.633 -1.314 5.042 -1.314 4.319 L -1.314 1.313 C -1.314 0.591 -0.724 0 0 0" id="path1131" stroke="none" fill="#A6CAE4" fill-rule="evenodd" fill-opacity="1"/></g><g id="g1133" transform="matrix(1.33333,0,0,-1.33333,539.673,44.2035)"><path d=" M 0 0 L 3.005 0 C 3.729 0 4.319 0.591 4.319 1.313 L 4.319 4.319 C 4.319 5.042 3.729 5.633 3.005 5.633 L 0 5.633 C -0.723 5.633 -1.314 5.042 -1.314 4.319 L -1.314 1.313 C -1.314 0.591 -0.723 0 0 0" id="path1135" stroke="none" fill="#FFFFFF" fill-rule="evenodd" fill-opacity="1"/></g><g id="g1137" transform="matrix(1.33333,0,0,-1.33333,525.274,75.6253)"><path d=" M 0 0 L 3.005 0 C 3.728 0 4.319 0.591 4.319 1.313 L 4.319 4.319 C 4.319 5.042 3.728 5.633 3.005 5.633 L 0 5.633 C -0.723 5.633 -1.313 5.042 -1.313 4.319 L -1.313 1.313 C -1.313 0.591 -0.723 0 0 0" id="path1139" stroke="none" fill="#FFFFFF" fill-rule="evenodd" fill-opacity="1"/></g><g id="g1141" transform="matrix(1.33333,0,0,-1.33333,539.169,75.6253)"><path d=" M 0 0 L 3.006 0 C 3.729 0 4.319 0.591 4.319 1.313 L 4.319 4.319 C 4.319 5.042 3.729 5.633 3.006 5.633 L 0 5.633 C -0.723 5.633 -1.313 5.042 -1.313 4.319 L -1.313 1.313 C -1.313 0.591 -0.723 0 0 0" id="path1143" stroke="none" fill="#A6CAE4" fill-rule="evenodd" fill-opacity="1"/></g><g id="g1145" fill="#0050BE" fill-opacity="1" transform="matrix(1.33333,0,0,-1.33333,188.097,173.943)"><path d=" M 0 0 L 0 0 C 3.003 3.004 7.918 3.004 10.921 0 L 11.663 -0.741 L 12.404 0 C 15.407 3.004 20.321 3.004 23.325 0 C 26.329 -3.003 26.329 -7.917 23.325 -10.921 L 22.583 -11.662 L 11.663 -22.583 L 0.741 -11.662 L 0 -10.921 C -3.003 -7.917 -3.003 -3.003 0 0" id="path1147" stroke="none" fill="#0050BE" fill-rule="evenodd" fill-opacity="1"/></g><g id="g1149" transform="matrix(1.33333,0,0,-1.33333,168.442,344.985)"><path d=" M 0 0 C -8.01 8.155 -13.968 -2.204 -13.136 -12.604 C -12.348 -22.463 -3.849 -56.292 -5.424 -70.524 L -2.17 -70.524 C 5.791 -52.274 10.254 -10.44 0 0" id="path1151" stroke="none" fill="#63A9BA" fill-rule="evenodd" fill-opacity="1"/></g><g id="g1153" transform="matrix(1.33333,0,0,-1.33333,163.953,439.017)"><path d=" M 0 0 C 7.748 28.765 -2.061 68.526 -2.094 68.662 C -2.153 68.909 -2.402 69.061 -2.649 69 C -2.896 68.94 -3.048 68.691 -2.988 68.444 C -2.955 68.31 6.866 28.503 -0.941 0 Z" id="path1155" stroke="none" fill="#80B9C9" fill-rule="evenodd" fill-opacity="1"/></g><g id="g1157" transform="matrix(1.33333,0,0,-1.33333,142.094,368.95)"><path d=" M 0 0 C -8.44 4.472 -10.569 -5.285 -7.278 -13.358 C -4.551 -20.048 7.497 -39.837 12.052 -52.551 L 16.342 -52.551 C 16.707 -34.98 9.964 -5.278 0 0" id="path1159" stroke="none" fill="#FFFFFF" fill-rule="evenodd" fill-opacity="1"/></g><g id="g1161" transform="matrix(1.33333,0,0,-1.33333,161.793,439.017)"><path d=" M 0 0 C -2.792 23.764 -18.596 49.594 -18.653 49.688 C -18.763 49.869 -19 49.927 -19.181 49.817 C -19.362 49.707 -19.42 49.471 -19.31 49.289 C -19.254 49.195 -3.551 23.532 -0.763 0 Z" id="path1163" stroke="none" fill="#B8B8C1" fill-rule="evenodd" fill-opacity="1"/></g><g id="g1165" transform="matrix(1.33333,0,0,-1.33333,189.66,383.987)"><path d=" M 0 0 C 8.181 3.573 9.478 -5.669 5.843 -12.961 C 3.384 -17.895 -5.478 -30.526 -11.446 -41.272 L -18.257 -41.272 C -15.928 -25.016 -8.456 -3.694 0 0" id="path1167" stroke="none" fill="#3A7F80" fill-rule="evenodd" fill-opacity="1"/></g><g id="g1169" transform="matrix(1.33333,0,0,-1.33333,168.56,439.017)"><path d=" M 0 0 C 5.808 19.695 19.185 38.256 19.238 38.331 C 19.353 38.492 19.578 38.529 19.739 38.414 C 19.901 38.299 19.938 38.074 19.823 37.913 C 19.77 37.839 6.535 19.472 0.74 0 Z" id="path1171" stroke="none" fill="#51A5A5" fill-rule="evenodd" fill-opacity="1"/></g><g id="g1173" transform="matrix(1.33333,0,0,-1.33333,146.31,428.787)"><path d=" M 0 0 L 28.284 0 C 29.13 0 29.822 -0.691 29.822 -1.538 L 29.822 -8.521 C 29.822 -9.367 29.13 -10.06 28.284 -10.06 L 0 -10.06 C -0.846 -10.06 -1.538 -9.367 -1.538 -8.521 L -1.538 -1.538 C -1.538 -0.691 -0.846 0 0 0" id="path1175" stroke="none" fill="#2F365C" fill-rule="evenodd" fill-opacity="1"/></g><g id="g1177" fill="#0050BE" fill-opacity="1" transform="matrix(1.33333,0,0,-1.33333,152.778,436.36)"><path d=" M 0 0 L 18.581 0 L 23.433 -4.379 L 19.469 -19.645 L 9.291 -19.645 L -0.888 -19.645 L -4.851 -4.379 Z" id="path1179" stroke="none" fill="#0050BE" fill-rule="evenodd" fill-opacity="1"/></g><g id="g1181" transform="matrix(1.33333,0,0,-1.33333,184.022,442.198)"><path d=" M 0 0 L -0.815 -3.138 L -27.469 -3.138 L -28.284 0 Z" id="path1183" stroke="none" fill="#121C39" fill-rule="evenodd" fill-opacity="1"/></g><g id="g1185" transform="matrix(1.33333,0,0,-1.33333,363.415,55.4704)"><path d=" M 0 0 C 1.448 0 2.629 1.181 2.629 2.629 C 2.629 4.077 1.448 5.258 0 5.258 C -1.448 5.258 -2.629 4.077 -2.629 2.629 C -2.629 1.181 -1.448 0 0 0" id="path1187" stroke="none" fill="#A6CAE4" fill-rule="evenodd" fill-opacity="1"/></g><g id="g1189" transform="matrix(1.33333,0,0,-1.33333,420.5,256.267)"><path d=" M 0 0 C 1.447 0 2.629 1.181 2.629 2.629 C 2.629 4.076 1.447 5.258 0 5.258 C -1.448 5.258 -2.629 4.076 -2.629 2.629 C -2.629 1.181 -1.448 0 0 0" id="path1191" stroke="none" fill="#A6CAE4" fill-rule="evenodd" fill-opacity="1"/></g><g id="g1193" transform="matrix(1.33333,0,0,-1.33333,485.605,402.485)"><path d=" M 0 0 C 1.447 0 2.629 1.182 2.629 2.629 C 2.629 4.077 1.447 5.258 0 5.258 C -1.448 5.258 -2.629 4.077 -2.629 2.629 C -2.629 1.182 -1.448 0 0 0" id="path1195" stroke="none" fill="#A6CAE4" fill-rule="evenodd" fill-opacity="1"/></g><g id="g1197" transform="matrix(1.33333,0,0,-1.33333,83.0003,374.443)"><path d=" M 0 0 C 1.448 0 2.629 1.182 2.629 2.629 C 2.629 4.077 1.448 5.258 0 5.258 C -1.448 5.258 -2.629 4.077 -2.629 2.629 C -2.629 1.182 -1.448 0 0 0" id="path1199" stroke="none" fill="#A6CAE4" fill-rule="evenodd" fill-opacity="1"/></g><g id="g1201" transform="matrix(1.33333,0,0,-1.33333,503.622,162.128)"><path d=" M 0 0 C 1.448 0 2.629 1.181 2.629 2.629 C 2.629 4.077 1.448 5.258 0 5.258 C -1.447 5.258 -2.629 4.077 -2.629 2.629 C -2.629 1.181 -1.447 0 0 0" id="path1203" stroke="none" fill="#A6CAE4" fill-rule="evenodd" fill-opacity="1"/></g><g id="g1205" transform="matrix(1.33333,0,0,-1.33333,188.156,139.094)"><path d=" M 0 0 C 1.448 0 2.629 1.181 2.629 2.629 C 2.629 4.077 1.448 5.258 0 5.258 C -1.448 5.258 -2.629 4.077 -2.629 2.629 C -2.629 1.181 -1.448 0 0 0" id="path1207" stroke="none" fill="#A6CAE4" fill-rule="evenodd" fill-opacity="1"/></g><g id="g1209" fill="#0050BE" fill-opacity="1" transform="matrix(1.33333,0,0,-1.33333,179.643,340.392)"><path d=" M 0 0 C 1.448 0 2.629 1.181 2.629 2.629 C 2.629 4.077 1.448 5.258 0 5.258 C -1.448 5.258 -2.629 4.077 -2.629 2.629 C -2.629 1.181 -1.448 0 0 0" id="path1211" stroke="none" fill="#0050BE" fill-rule="evenodd" fill-opacity="1"/></g><g id="g1213" fill="#0050BE" fill-opacity="1" transform="matrix(1.33333,0,0,-1.33333,514.639,322.866)"><path d=" M 0 0 C 1.448 0 2.629 1.181 2.629 2.629 C 2.629 4.077 1.448 5.258 0 5.258 C -1.448 5.258 -2.629 4.077 -2.629 2.629 C -2.629 1.181 -1.448 0 0 0" id="path1215" stroke="none" fill="#0050BE" fill-rule="evenodd" fill-opacity="1"/></g><g id="g1217" fill="#0050BE" fill-opacity="1" transform="matrix(1.33333,0,0,-1.33333,444.536,174.646)"><path d=" M 0 0 C 1.447 0 2.629 1.181 2.629 2.629 C 2.629 4.076 1.447 5.258 0 5.258 C -1.449 5.258 -2.63 4.076 -2.63 2.629 C -2.63 1.181 -1.449 0 0 0" id="path1219" stroke="none" fill="#0050BE" fill-rule="evenodd" fill-opacity="1"/></g><g id="g1221" fill="#0050BE" fill-opacity="1" transform="matrix(1.33333,0,0,-1.33333,415.993,44.9548)"><path d=" M 0 0 C 1.447 0 2.629 1.181 2.629 2.629 C 2.629 4.077 1.447 5.258 0 5.258 C -1.448 5.258 -2.629 4.077 -2.629 2.629 C -2.629 1.181 -1.448 0 0 0" id="path1223" stroke="none" fill="#0050BE" fill-rule="evenodd" fill-opacity="1"/></g><g id="g1225" fill="#0050BE" fill-opacity="1" transform="matrix(1.33333,0,0,-1.33333,557.203,133.085)"><path d=" M 0 0 C 1.447 0 2.629 1.181 2.629 2.629 C 2.629 4.077 1.447 5.258 0 5.258 C -1.448 5.258 -2.629 4.077 -2.629 2.629 C -2.629 1.181 -1.448 0 0 0" id="path1227" stroke="none" fill="#0050BE" fill-rule="evenodd" fill-opacity="1"/></g><g id="g1229" fill="#FF5A14" fill-opacity="1" transform="matrix(1.33333,0,0,-1.33333,500.204,435.338)"><path d=" M 0 0 C -0.987 0.986 -2.311 1.535 -3.706 1.535 C -5.101 1.535 -6.425 0.986 -7.41 0 C -8.397 -0.986 -8.946 -2.31 -8.946 -3.705 C -8.946 -5.101 -8.397 -6.424 -7.41 -7.41 C -6.425 -8.396 -5.101 -8.945 -3.706 -8.945 C -2.311 -8.945 -0.987 -8.396 0 -7.41 C 0.985 -6.424 1.534 -5.101 1.534 -3.705 C 1.534 -2.31 0.985 -0.986 0 0 M -3.706 4.89 C -1.419 4.89 0.755 3.988 2.371 2.372 C 3.987 0.756 4.889 -1.419 4.889 -3.705 C 4.889 -5.991 3.987 -8.166 2.371 -9.782 C 0.755 -11.398 -1.419 -12.3 -3.706 -12.3 C -5.992 -12.3 -8.166 -11.398 -9.783 -9.782 C -11.399 -8.166 -12.3 -5.991 -12.3 -3.705 C -12.3 -1.419 -11.399 0.756 -9.783 2.372 C -8.166 3.988 -5.992 4.89 -3.706 4.89" id="path1231" stroke="none" fill="#FF5A14" fill-rule="evenodd" fill-opacity="1"/></g><g id="g1233" transform="matrix(1.33333,0,0,-1.33333,477.017,462.719)"><path d=" M 0 0 L 0 0 C 7.415 0 13.48 6.063 13.48 13.48 L 13.48 14.232 L 13.48 26.524 L 13.48 27.53 C 13.48 28.187 12.944 28.722 12.287 28.722 L -12.286 28.722 C -12.942 28.722 -13.479 28.187 -13.479 27.53 L -13.479 26.524 L -13.479 14.232 L -13.479 13.48 C -13.479 6.063 -7.413 0 0 0" id="path1235" stroke="none" fill="#D84F50" fill-rule="evenodd" fill-opacity="1"/></g><g id="g1237" fill="#FF5A14" fill-opacity="1" transform="matrix(1.33333,0,0,-1.33333,488.837,442.499)"><path d=" M 0 0 C 0 -1.439 -0.229 -2.828 -0.651 -4.132 C -0.89 -4.868 -1.19 -5.577 -1.548 -6.253 C -3.012 -9.027 -5.415 -11.237 -8.327 -12.451 C -9.916 -13.113 -11.657 -13.48 -13.48 -13.48 C -14.232 -13.48 -14.97 -13.418 -15.689 -13.298 C -13.685 -14.483 -11.351 -15.165 -8.865 -15.165 C -5.836 -15.165 -3.033 -14.153 -0.775 -12.451 C 0.693 -11.343 1.932 -9.941 2.85 -8.335 C 3.222 -7.685 3.541 -7 3.802 -6.288 C 4.327 -4.851 4.615 -3.3 4.615 -1.685 L 4.615 -0.933 L 4.615 6.858 L 4.615 9.004 L 4.615 11.359 L 4.615 12.365 C 4.615 13.021 4.079 13.557 3.422 13.557 L 0 13.557 L 0 13.044 L 0 7.917 L 0 5.326 L 0 0.752 Z" id="path1239" stroke="none" fill="#FF5A14" fill-rule="evenodd" fill-opacity="1"/></g><g id="g1241" transform="matrix(1.33333,0,0,-1.33333,461.44,462.719)"><path d=" M 0 0 L 23.366 0 C 24.355 0 25.163 0.809 25.163 1.797 C 25.163 2.786 24.355 3.595 23.366 3.595 L 0 3.595 C -0.988 3.595 -1.797 2.786 -1.797 1.797 C -1.797 0.809 -0.988 0 0 0" id="path1243" stroke="none" fill="#D84F50" fill-rule="evenodd" fill-opacity="1"/></g><g id="g1245" transform="matrix(1.33333,0,0,-1.33333,464.8,427.839)"><path d=" M 0 0 L 0.001 0 C 1.25 0 2.271 -1.021 2.271 -2.271 L 2.271 -10.403 C 2.271 -11.652 1.25 -12.674 0.001 -12.674 L 0 -12.674 C -1.248 -12.674 -2.271 -11.652 -2.271 -10.403 L -2.271 -2.271 C -2.271 -1.021 -1.248 0 0 0" id="path1247" stroke="none" fill="#DE7272" fill-rule="evenodd" fill-opacity="1"/></g><g id="g1249" transform="matrix(1.33333,0,0,-1.33333,461.666,402.262)"><path d=" M 0 0 L 10.276 0 C 11.056 0 11.693 0.638 11.693 1.417 C 11.693 2.196 11.056 2.833 10.276 2.833 L -3.547 2.833 C -5.582 2.833 -7.248 4.499 -7.248 6.534 C -7.248 8.569 -5.583 10.234 -3.547 10.234 L 32.4 10.234 C 34.436 10.234 36.101 8.569 36.101 6.534 C 36.101 4.499 34.436 2.833 32.4 2.833 L 19.862 2.833 C 19.083 2.833 18.445 2.196 18.445 1.417 C 18.445 0.638 19.083 0 19.862 0 L 24.687 0 C 26.258 0 27.543 -1.285 27.543 -2.855 C 27.543 -4.426 26.258 -5.711 24.687 -5.711 L 16.708 -5.711 C 13.586 -5.711 11.03 -8.267 11.03 -11.389 L 11.03 -13.992 C 11.03 -14.729 10.427 -15.332 9.689 -15.332 C 8.952 -15.332 8.349 -14.729 8.349 -13.992 L 8.349 -9.04 C 8.349 -7.209 6.851 -5.711 5.021 -5.711 L 0 -5.711 C -1.57 -5.711 -2.855 -4.426 -2.855 -2.855 C -2.855 -1.285 -1.57 0 0 0" id="path1251" stroke="none" fill="#FFFFFF" fill-rule="evenodd" fill-opacity="1"/></g></svg>