<svg version="1.1" width="867.427" height="560.577" xmlns="http://www.w3.org/2000/svg" xmlns:xlink="http://www.w3.org/1999/xlink" id="svg1382" overflow="hidden"><defs id="defs1386"><clipPath id="clipPath500"><path d=" M 0 500 L 750 500 L 750 0 L 0 0 Z" id="path498"/></clipPath><clipPath id="clipPath508"><path d=" M 175.49 403.074 L 240.168 403.074 L 240.168 360.423 L 175.49 360.423 Z" id="path506"/></clipPath><clipPath id="clipPath562"><path d=" M 267.142 313.281 L 295.09 313.281 L 295.09 277.49 L 267.142 277.49 Z" id="path560"/></clipPath><clipPath id="clipPath468"><path d=" M 0 500 L 750 500 L 750 0 L 0 0 Z" id="path466"/></clipPath><clipPath id="clipPath476"><path d=" M 212.135 467.769 L 268.852 467.769 L 268.852 427.324 L 212.135 427.324 Z" id="path474"/></clipPath><clipPath id="clipPath436"><path d=" M 0 500 L 750 500 L 750 0 L 0 0 Z" id="path434"/></clipPath><clipPath id="clipPath444"><path d=" M 536.208 355.762 L 594.433 355.762 L 594.433 315.317 L 536.208 315.317 Z" id="path442"/></clipPath><clipPath id="clipPath28"><path d=" M 0 500 L 750 500 L 750 0 L 0 0 Z" id="path26"/></clipPath><clipPath id="clipPath68"><path d=" M 61.5743 116.669 L 135.318 116.669 L 135.318 53.9896 L 61.5743 53.9896 Z" id="path66"/></clipPath><clipPath id="clipPath92"><path d=" M 61.4435 116.669 L 130.465 116.669 L 130.465 53.9896 L 61.4435 53.9896 Z" id="path90"/></clipPath><clipPath id="clipPath116"><path d=" M 618.19 133.016 L 689.59 133.016 L 689.59 56.4085 L 618.19 56.4085 Z" id="path114"/></clipPath><clipPath id="clipPath200"><path d=" M 329.273 357.048 L 441.913 357.048 L 441.913 277.215 L 329.273 277.215 Z" id="path198"/></clipPath><clipPath id="clipPath224"><path d=" M 179.093 296.476 L 252.798 296.476 L 252.798 282.941 L 179.093 282.941 Z" id="path222"/></clipPath><clipPath id="clipPath260"><path d=" M 185.846 328.556 L 243.001 328.556 L 243.001 316.816 L 185.846 316.816 Z" id="path258"/></clipPath><clipPath id="clipPath296"><path d=" M 171 311.103 L 235.686 311.103 L 235.686 301.403 L 171 301.403 Z" id="path294"/></clipPath><clipPath id="clipPath344"><path d=" M 377.52 431.304 L 389.812 431.304 L 389.812 406.946 L 377.52 406.946 Z" id="path342"/></clipPath><clipPath id="clipPath380"><path d=" M 352.069 451.768 L 405.629 451.768 L 405.629 412.014 L 352.069 412.014 Z" id="path378"/></clipPath><clipPath id="clipPath412"><path d=" M 473.196 450.727 L 537.164 450.727 L 537.164 401.078 L 473.196 401.078 Z" id="path410"/></clipPath></defs><g id="g22" transform="matrix(1.33333,0,0,-1.33333,-66.2867,623.691)"><g id="g24" clip-path="url(#clipPath28)"><g id="g30" transform="matrix(1,0,0,1,691.413,47.3356)"><path d=" M 0 0 L -632.826 0 C -637.726 0 -641.698 3.972 -641.698 8.872 L -641.698 8.872 C -641.698 13.772 -637.726 17.744 -632.826 17.744 L 0 17.744 C 4.9 17.744 8.872 13.772 8.872 8.872 L 8.872 8.872 C 8.872 3.972 4.9 0 0 0" id="path32" stroke="none" fill="#96D3D6" fill-rule="nonzero" fill-opacity="1"/></g><g id="g34" transform="matrix(1,0,0,1,83.933,114.006)"><path d=" M 0 0 C -3.573 9.733 -10.24 17.483 -15.159 26.447 C -19.844 34.986 -22.68 44.53 -23.459 54.237 C -24.521 67.467 -20.237 79.946 -18.772 92.969 C -17.681 102.673 -17.197 112.667 -21.118 121.775 C -24.518 129.674 -29.783 136.637 -32.848 144.696 C -35.749 152.324 -34.614 165.796 -23.84 165.568 C -15.018 165.382 -8.48 159.773 -4.039 152.684 C -0.349 146.795 2.858 140.529 4.61 133.804 C 6.214 127.646 6.566 121.239 6.791 114.88 C 7.41 97.356 7.097 79.585 2.577 62.644 C 1.191 57.453 -0.583 52.362 -1.674 47.102 C -5.054 30.788 -1.421 13.143 8.13 -0.508" id="path36" stroke="none" fill="#019CA8" fill-rule="nonzero" fill-opacity="1"/></g><g id="g38" transform="matrix(1,0,0,1,80.7716,202.234)"><path d=" M 0 0 C 2.309 1.515 5.427 3.722 8.734 6.337 C 9.198 6.704 9.65 7.069 10.096 7.431 C 10.105 7.767 10.111 8.103 10.119 8.439 C 9.512 7.948 8.893 7.451 8.253 6.945 C 4.961 4.341 1.909 2.076 -0.313 0.45 C -1.471 -0.398 -2.393 -1.072 -3.008 -1.541 C -2.589 2.564 -2.325 6.564 -2.373 10.42 C -2.38 12.609 -2.465 14.739 -2.604 16.811 C -2.074 17.116 -0.757 18.031 1.083 19.408 C 3.421 21.159 6.577 23.658 9.955 26.551 C 9.954 26.585 9.953 26.618 9.952 26.652 C 9.941 26.948 9.929 27.244 9.918 27.54 C 9.803 27.442 9.692 27.345 9.577 27.247 C 6.16 24.316 3.02 21.718 0.743 19.839 C -0.928 18.459 -2.121 17.464 -2.614 16.995 C -3.07 23.587 -4.128 29.552 -5.387 34.658 C -5.455 34.927 -5.526 35.179 -5.595 35.444 C -5.11 35.914 -3.946 37.229 -2.3 39.121 C 0.674 42.535 3.262 45.507 6.015 48.667 C 6.216 48.894 6.412 49.115 6.612 49.341 C 6.515 49.622 6.423 49.904 6.321 50.183 C 6.026 49.851 5.732 49.518 5.432 49.178 C 2.166 45.458 -0.7 42.01 -2.721 39.472 C -3.732 38.203 -4.535 37.164 -5.073 36.433 C -5.324 36.092 -5.512 35.826 -5.644 35.628 C -7.237 41.698 -9.053 46.514 -10.519 49.883 C -10.468 49.895 -10.441 49.908 -10.441 49.92 C -10.441 49.935 -10.467 49.948 -10.509 49.961 C -10.235 50.299 -9.46 51.637 -8.327 53.638 C -6.32 57.162 -4.723 59.967 -3.071 62.866 C -2.561 63.734 -2.054 64.596 -1.54 65.469 C -1.698 65.704 -1.859 65.936 -2.021 66.167 C -2.583 65.234 -3.158 64.262 -3.742 63.254 C -5.824 59.655 -7.593 56.333 -8.811 53.896 C -9.818 51.88 -10.448 50.49 -10.585 50.038 C -10.615 50.106 -10.648 50.185 -10.678 50.253 C -11.469 52.03 -12.111 53.395 -12.593 54.299 C -13.059 55.21 -13.319 55.68 -13.351 55.664 C -13.383 55.649 -13.186 55.148 -12.781 54.21 C -12.362 53.279 -11.78 51.891 -11.049 50.097 C -11.042 50.081 -11.035 50.063 -11.029 50.048 C -11.694 50.136 -12.89 50.274 -14.454 50.613 C -16.904 51.123 -20.252 52.151 -24.039 52.947 C -25.63 53.291 -27.159 53.584 -28.59 53.833 C -28.468 53.56 -28.344 53.288 -28.218 53.017 C -26.946 52.766 -25.598 52.491 -24.203 52.189 C -20.442 51.4 -17.081 50.457 -14.553 50.074 C -12.858 49.804 -11.597 49.787 -10.944 49.832 C -9.605 46.489 -7.913 41.734 -6.419 35.772 C -7.989 36.103 -12.378 36.709 -17.572 37.294 C -18.353 37.383 -19.116 37.466 -19.856 37.545 C -19.717 37.274 -19.579 37.003 -19.444 36.73 C -18.86 36.662 -18.267 36.593 -17.658 36.524 C -12.372 35.928 -7.886 35.537 -6.356 35.522 C -6.27 35.175 -6.182 34.841 -6.097 34.486 C -4.937 29.493 -3.964 23.692 -3.546 17.299 C -4.065 17.644 -4.846 18.123 -5.845 18.695 C -7.769 19.797 -10.491 21.214 -13.583 22.595 C -14.148 22.848 -14.702 23.086 -15.25 23.318 C -15.213 23.025 -15.18 22.732 -15.148 22.439 C -14.737 22.259 -14.321 22.076 -13.899 21.888 C -10.826 20.515 -8.084 19.185 -6.102 18.211 C -4.965 17.653 -4.087 17.223 -3.524 16.972 C -3.392 14.849 -3.32 12.663 -3.325 10.419 C -3.297 6.382 -3.61 2.179 -4.085 -2.15 C -5.165 -1.466 -8.707 0.344 -12.775 2.721 C -13.789 3.309 -14.752 3.885 -15.65 4.43 C -15.681 4.161 -15.718 3.894 -15.751 3.626 C -14.942 3.112 -14.076 2.582 -13.165 2.051 C -10.671 0.6 -8.336 -0.576 -6.613 -1.353 C -5.443 -1.881 -4.569 -2.228 -4.109 -2.369 C -4.656 -7.313 -5.413 -12.428 -6.165 -17.682 C -7.725 -16.802 -11.079 -15.089 -14.931 -13.03 C -16.118 -12.399 -17.247 -11.79 -18.295 -11.223 C -18.342 -11.474 -18.39 -11.726 -18.437 -11.978 C -17.459 -12.537 -16.406 -13.122 -15.296 -13.714 C -12.599 -15.152 -10.105 -16.352 -8.274 -17.162 C -7.427 -17.537 -6.731 -17.826 -6.214 -18.023 C -6.27 -18.412 -6.326 -18.795 -6.381 -19.185 C -7.072 -24.24 -7.657 -29.205 -7.869 -34.045 C -9.112 -33.238 -12.53 -31.35 -16.541 -29.103 C -17.918 -28.333 -19.22 -27.604 -20.395 -26.947 C -20.407 -27.215 -20.411 -27.485 -20.42 -27.753 C -19.35 -28.394 -18.17 -29.079 -16.919 -29.779 C -14.355 -31.213 -11.99 -32.432 -10.253 -33.263 C -9.196 -33.769 -8.378 -34.132 -7.885 -34.319 C -7.889 -34.416 -7.898 -34.515 -7.901 -34.612 C -8.105 -39.47 -7.879 -44.181 -7.299 -48.627 C -8.3 -47.989 -11.527 -46.367 -15.406 -44.571 C -16.669 -43.987 -17.869 -43.446 -18.958 -42.966 C -18.895 -43.257 -18.836 -43.549 -18.77 -43.84 C -17.828 -44.294 -16.807 -44.777 -15.732 -45.275 C -11.694 -47.144 -8.264 -48.593 -7.272 -48.866 C -7.263 -48.93 -7.258 -48.997 -7.249 -49.062 C -6.675 -53.244 -5.801 -57.165 -4.75 -60.809 C -5.721 -60.445 -8.973 -59.661 -12.87 -58.867 C -13.105 -58.819 -13.337 -58.773 -13.568 -58.727 C -13.424 -59.024 -13.263 -59.313 -13.115 -59.608 C -13.084 -59.614 -13.055 -59.62 -13.025 -59.627 C -8.992 -60.448 -5.597 -61.008 -4.691 -61.017 C -3.454 -65.266 -1.972 -69.125 -0.391 -72.494 C -0.144 -73.033 0.107 -73.543 0.357 -74.058 C -0.66 -73.712 -2.776 -73.172 -5.252 -72.642 C -5.054 -72.946 -4.857 -73.251 -4.66 -73.556 C -2.306 -74.04 -0.337 -74.363 0.529 -74.416 C 3.176 -79.79 5.968 -83.847 8.038 -86.64 C 8.585 -87.347 9.095 -88.008 9.575 -88.629 L 9.983 -88.654 C 9.941 -88.601 9.903 -88.551 9.861 -88.497 C 9.395 -87.845 8.897 -87.148 8.364 -86.403 C 6.376 -83.536 3.662 -79.407 1.097 -73.976 C 1.449 -73.377 2.04 -72.159 2.702 -70.574 C 2.594 -70.196 2.481 -69.821 2.38 -69.441 C 1.729 -71.261 1.188 -72.752 0.926 -73.604 C 0.708 -73.136 0.489 -72.678 0.274 -72.191 C -1.285 -68.75 -2.742 -64.806 -3.945 -60.469 C -3.111 -59.875 -1.515 -58.562 0.352 -56.805 C 0.334 -56.474 0.329 -56.143 0.316 -55.813 C -1.615 -57.752 -3.235 -59.305 -4.034 -60.143 C -4.989 -56.649 -5.783 -52.91 -6.306 -48.937 C -6.322 -48.808 -6.332 -48.674 -6.348 -48.544 C -5.17 -47.559 -2.271 -44.763 1.052 -41.383 C 1.218 -41.215 1.379 -41.049 1.542 -40.883 C 1.642 -40.41 1.748 -39.938 1.858 -39.467 C 1.415 -39.912 0.963 -40.369 0.5 -40.84 C -2.661 -44.054 -5.305 -46.881 -6.387 -48.177 C -6.906 -43.875 -7.099 -39.344 -6.89 -34.654 C -6.882 -34.457 -6.864 -34.256 -6.854 -34.058 C -6.283 -33.739 -5.435 -33.227 -4.368 -32.548 C -2.403 -31.298 0.265 -29.497 3.14 -27.408 C 4.057 -26.74 4.935 -26.087 5.77 -25.454 C 5.871 -25.074 5.96 -24.692 6.057 -24.312 C 4.865 -25.184 3.773 -25.983 2.684 -26.781 C 0.499 -28.358 -1.694 -29.942 -4.676 -32.095 C -5.586 -32.754 -6.319 -33.294 -6.832 -33.69 C -6.596 -29.024 -6.027 -24.228 -5.357 -19.326 C -5.29 -18.854 -5.223 -18.388 -5.156 -17.918 C -3.619 -17.127 0.61 -14.579 5.533 -11.457 C 6.697 -10.719 7.815 -10.003 8.863 -9.325 C 8.902 -9.013 8.934 -8.701 8.971 -8.389 C 7.765 -9.135 6.47 -9.945 5.118 -10.803 C 0.387 -13.802 -3.587 -16.445 -5.108 -17.581 C -4.341 -12.217 -3.575 -6.973 -3.045 -1.895 C -2.377 -1.517 -1.332 -0.875 0 0" id="path40" stroke="none" fill="#0C8184" fill-rule="nonzero" fill-opacity="1"/></g><g id="g42" transform="matrix(1,0,0,1,109.871,114.006)"><path d=" M 0 0 C 3.573 9.733 10.24 17.483 15.159 26.447 C 19.844 34.986 22.68 44.53 23.459 54.237 C 24.521 67.467 20.237 79.946 18.772 92.969 C 17.681 102.673 17.197 112.667 21.118 121.775 C 24.518 129.674 29.783 136.637 32.848 144.696 C 35.749 152.324 34.614 165.796 23.84 165.568 C 15.018 165.382 8.48 159.773 4.039 152.684 C 0.349 146.795 -2.858 140.529 -4.61 133.804 C -6.214 127.646 -6.566 121.239 -6.791 114.88 C -7.41 97.356 -7.097 79.585 -2.577 62.644 C -1.191 57.453 0.583 52.362 1.674 47.102 C 5.054 30.788 1.421 13.143 -8.13 -0.508" id="path44" stroke="none" fill="#12ACAF" fill-rule="nonzero" fill-opacity="1"/></g><g id="g46" transform="matrix(1,0,0,1,113.032,202.234)"><path d=" M 0 0 C -2.309 1.515 -5.427 3.722 -8.734 6.337 C -9.198 6.704 -9.65 7.069 -10.095 7.431 C -10.105 7.767 -10.111 8.103 -10.119 8.439 C -9.512 7.948 -8.893 7.451 -8.253 6.945 C -4.961 4.341 -1.909 2.076 0.313 0.45 C 1.471 -0.398 2.393 -1.072 3.008 -1.541 C 2.589 2.564 2.325 6.564 2.373 10.42 C 2.38 12.609 2.465 14.739 2.604 16.811 C 2.074 17.116 0.757 18.031 -1.083 19.408 C -3.421 21.159 -6.577 23.658 -9.955 26.551 C -9.954 26.585 -9.953 26.618 -9.952 26.652 C -9.941 26.948 -9.929 27.244 -9.918 27.54 C -9.803 27.442 -9.692 27.345 -9.577 27.247 C -6.16 24.316 -3.02 21.718 -0.743 19.839 C 0.928 18.459 2.121 17.464 2.614 16.995 C 3.07 23.587 4.128 29.552 5.387 34.658 C 5.455 34.927 5.526 35.179 5.595 35.444 C 5.11 35.914 3.946 37.229 2.3 39.121 C -0.674 42.535 -3.262 45.507 -6.015 48.667 C -6.216 48.894 -6.412 49.115 -6.612 49.341 C -6.515 49.622 -6.423 49.904 -6.321 50.183 C -6.026 49.851 -5.732 49.518 -5.432 49.178 C -2.166 45.458 0.7 42.01 2.721 39.472 C 3.732 38.203 4.535 37.164 5.073 36.433 C 5.324 36.092 5.512 35.826 5.644 35.628 C 7.237 41.698 9.053 46.514 10.519 49.883 C 10.468 49.895 10.441 49.908 10.441 49.92 C 10.441 49.935 10.467 49.948 10.509 49.961 C 10.235 50.299 9.46 51.637 8.327 53.638 C 6.32 57.162 4.723 59.967 3.071 62.866 C 2.561 63.734 2.054 64.596 1.54 65.469 C 1.698 65.704 1.859 65.936 2.021 66.167 C 2.583 65.234 3.158 64.262 3.742 63.254 C 5.824 59.655 7.593 56.333 8.811 53.896 C 9.818 51.88 10.448 50.49 10.585 50.038 C 10.615 50.106 10.648 50.185 10.678 50.253 C 11.469 52.03 12.111 53.395 12.593 54.299 C 13.059 55.21 13.319 55.68 13.351 55.664 C 13.383 55.649 13.186 55.148 12.781 54.21 C 12.362 53.279 11.78 51.891 11.049 50.097 C 11.042 50.081 11.035 50.063 11.029 50.048 C 11.694 50.136 12.89 50.274 14.454 50.613 C 16.904 51.123 20.252 52.151 24.039 52.947 C 25.63 53.291 27.159 53.584 28.59 53.833 C 28.468 53.56 28.344 53.288 28.218 53.017 C 26.946 52.766 25.598 52.491 24.203 52.189 C 20.442 51.4 17.081 50.457 14.553 50.074 C 12.858 49.804 11.597 49.787 10.944 49.832 C 9.605 46.489 7.913 41.734 6.419 35.772 C 7.989 36.103 12.378 36.709 17.572 37.294 C 18.353 37.383 19.116 37.466 19.856 37.545 C 19.717 37.274 19.579 37.003 19.443 36.73 C 18.86 36.662 18.267 36.593 17.658 36.524 C 12.372 35.928 7.886 35.537 6.356 35.522 C 6.27 35.175 6.182 34.841 6.097 34.486 C 4.937 29.493 3.964 23.692 3.546 17.299 C 4.065 17.644 4.846 18.123 5.845 18.695 C 7.769 19.797 10.491 21.214 13.583 22.595 C 14.148 22.848 14.702 23.086 15.25 23.318 C 15.212 23.025 15.18 22.732 15.148 22.439 C 14.737 22.259 14.321 22.076 13.899 21.888 C 10.826 20.515 8.084 19.185 6.102 18.211 C 4.965 17.653 4.087 17.223 3.524 16.972 C 3.392 14.849 3.32 12.663 3.325 10.419 C 3.297 6.382 3.61 2.179 4.085 -2.15 C 5.165 -1.466 8.707 0.344 12.775 2.721 C 13.789 3.309 14.752 3.885 15.65 4.43 C 15.681 4.161 15.718 3.894 15.751 3.626 C 14.942 3.112 14.076 2.582 13.165 2.051 C 10.671 0.6 8.336 -0.576 6.613 -1.353 C 5.443 -1.881 4.569 -2.228 4.109 -2.369 C 4.656 -7.313 5.413 -12.428 6.165 -17.682 C 7.725 -16.802 11.079 -15.089 14.931 -13.03 C 16.118 -12.399 17.247 -11.79 18.295 -11.223 C 18.342 -11.474 18.39 -11.726 18.437 -11.978 C 17.458 -12.537 16.406 -13.122 15.296 -13.714 C 12.599 -15.152 10.105 -16.352 8.274 -17.162 C 7.427 -17.537 6.731 -17.826 6.214 -18.023 C 6.27 -18.412 6.326 -18.795 6.381 -19.185 C 7.072 -24.24 7.657 -29.205 7.869 -34.045 C 9.112 -33.238 12.53 -31.35 16.541 -29.103 C 17.918 -28.333 19.22 -27.604 20.395 -26.947 C 20.407 -27.215 20.411 -27.485 20.42 -27.753 C 19.35 -28.394 18.17 -29.079 16.919 -29.779 C 14.355 -31.213 11.99 -32.432 10.253 -33.263 C 9.196 -33.769 8.378 -34.132 7.885 -34.319 C 7.889 -34.416 7.898 -34.515 7.901 -34.612 C 8.105 -39.47 7.879 -44.181 7.299 -48.627 C 8.3 -47.989 11.527 -46.367 15.406 -44.571 C 16.669 -43.987 17.869 -43.446 18.958 -42.966 C 18.895 -43.257 18.836 -43.549 18.77 -43.84 C 17.828 -44.294 16.807 -44.777 15.732 -45.275 C 11.694 -47.144 8.264 -48.593 7.272 -48.866 C 7.263 -48.93 7.258 -48.997 7.249 -49.062 C 6.675 -53.244 5.801 -57.165 4.75 -60.809 C 5.721 -60.445 8.973 -59.661 12.87 -58.867 C 13.105 -58.819 13.337 -58.773 13.568 -58.727 C 13.424 -59.024 13.263 -59.313 13.115 -59.608 C 13.084 -59.614 13.055 -59.62 13.025 -59.627 C 8.992 -60.448 5.597 -61.008 4.691 -61.017 C 3.454 -65.266 1.972 -69.125 0.391 -72.494 C 0.144 -73.033 -0.107 -73.543 -0.357 -74.058 C 0.66 -73.712 2.776 -73.172 5.252 -72.642 C 5.054 -72.946 4.857 -73.251 4.66 -73.556 C 2.306 -74.04 0.337 -74.363 -0.529 -74.416 C -3.176 -79.79 -5.968 -83.847 -8.038 -86.64 C -8.585 -87.347 -9.095 -88.008 -9.575 -88.629 L -9.983 -88.654 C -9.941 -88.601 -9.903 -88.551 -9.861 -88.497 C -9.395 -87.845 -8.897 -87.148 -8.364 -86.403 C -6.376 -83.536 -3.662 -79.407 -1.097 -73.976 C -1.449 -73.377 -2.04 -72.159 -2.702 -70.574 C -2.594 -70.196 -2.481 -69.821 -2.38 -69.441 C -1.729 -71.261 -1.188 -72.752 -0.926 -73.604 C -0.708 -73.136 -0.489 -72.678 -0.274 -72.191 C 1.285 -68.75 2.742 -64.806 3.945 -60.469 C 3.111 -59.875 1.515 -58.562 -0.352 -56.805 C -0.334 -56.474 -0.329 -56.143 -0.316 -55.813 C 1.615 -57.752 3.235 -59.305 4.034 -60.143 C 4.989 -56.649 5.783 -52.91 6.306 -48.937 C 6.322 -48.808 6.332 -48.674 6.348 -48.544 C 5.17 -47.559 2.271 -44.763 -1.053 -41.383 C -1.218 -41.215 -1.38 -41.049 -1.542 -40.883 C -1.642 -40.41 -1.748 -39.938 -1.858 -39.467 C -1.415 -39.912 -0.963 -40.369 -0.5 -40.84 C 2.661 -44.054 5.305 -46.881 6.387 -48.177 C 6.906 -43.875 7.099 -39.344 6.89 -34.654 C 6.882 -34.457 6.864 -34.256 6.854 -34.058 C 6.283 -33.739 5.435 -33.227 4.368 -32.548 C 2.403 -31.298 -0.265 -29.497 -3.14 -27.408 C -4.057 -26.74 -4.935 -26.087 -5.77 -25.454 C -5.871 -25.074 -5.96 -24.692 -6.057 -24.312 C -4.865 -25.184 -3.773 -25.983 -2.684 -26.781 C -0.499 -28.358 1.694 -29.942 4.676 -32.095 C 5.586 -32.754 6.319 -33.294 6.832 -33.69 C 6.596 -29.024 6.027 -24.228 5.357 -19.326 C 5.29 -18.854 5.223 -18.388 5.156 -17.918 C 3.619 -17.127 -0.61 -14.579 -5.533 -11.457 C -6.697 -10.719 -7.815 -10.003 -8.863 -9.325 C -8.902 -9.013 -8.934 -8.701 -8.971 -8.389 C -7.765 -9.135 -6.47 -9.945 -5.118 -10.803 C -0.387 -13.802 3.587 -16.445 5.108 -17.581 C 4.341 -12.217 3.575 -6.973 3.045 -1.895 C 2.377 -1.517 1.332 -0.875 0 0" id="path48" stroke="none" fill="#0C8184" fill-rule="nonzero" fill-opacity="1"/></g><g id="g50" transform="matrix(1,0,0,1,100.682,110.395)"><path d=" M 0 0 C -2.984 2.061 -4.73 5.453 -6.178 8.777 C -12.172 22.538 -15.984 38.682 -14.067 53.68 C -12.053 69.436 -8.598 85.387 -9.528 101.344 C -10.055 110.376 -12.066 119.272 -14.792 127.899 C -19.611 143.151 -28.609 170.569 -13.232 183.103 C -5.454 189.443 3.255 181.141 8.054 175.076 C 16.14 164.856 18.747 150.571 20.621 138.013 C 24.534 111.795 15.559 86.509 8.059 61.775 C 4.218 49.109 1.132 35.82 -0.204 22.666 C -0.589 18.871 -0.861 15.026 -0.284 11.256 C 0.613 5.399 3.981 2.177 7.369 -2.266" id="path52" stroke="none" fill="#0A9093" fill-rule="nonzero" fill-opacity="1"/></g><g id="g54" transform="matrix(1,0,0,1,100.894,111.251)"><path d=" M 0 0 C -0.255 0.587 -0.526 1.209 -0.817 1.875 C -1.148 2.612 -1.43 3.505 -1.807 4.483 C -3.14 8.078 -4.666 13.314 -5.612 19.882 C -5.012 20.199 -3.837 20.919 -2.256 21.966 C -1.639 22.374 -0.959 22.834 -0.237 23.335 C -0.2 23.661 -0.16 23.988 -0.121 24.315 C -1.027 23.636 -1.866 23.01 -2.604 22.46 C -4.039 21.388 -5.1 20.585 -5.646 20.126 C -5.721 20.655 -5.8 21.174 -5.867 21.721 C -6.441 26.406 -6.665 31.701 -6.519 37.446 C -4.93 38.294 -1.266 40.508 3.179 43.31 C 3.267 43.7 3.357 44.09 3.447 44.48 C -1.124 41.539 -4.878 39.022 -6.505 37.82 C -6.413 41.085 -6.207 44.488 -5.872 48.012 C -5.595 50.988 -5.219 54.054 -4.786 57.182 C -4.103 57.724 -2.622 58.964 -0.364 60.448 C 2.31 62.215 5.861 64.585 9.789 67.261 C 9.923 67.697 10.057 68.132 10.191 68.567 C 5.92 65.633 2.091 62.966 -0.711 60.943 C -2.225 59.837 -3.396 58.856 -4.148 58.12 C -4.392 57.883 -4.578 57.687 -4.739 57.512 C -4.465 59.471 -4.174 61.449 -3.855 63.46 C -3.201 67.595 -2.456 71.84 -1.747 76.183 C -0.888 76.59 0.488 77.294 2.268 78.234 C 5.301 79.837 9.463 82.102 14.033 84.649 C 14.408 84.859 14.775 85.064 15.144 85.27 C 15.25 85.654 15.357 86.037 15.461 86.421 C 14.854 86.084 14.24 85.743 13.617 85.396 C 9.043 82.846 4.927 80.497 1.968 78.759 C 0.369 77.819 -0.876 77.067 -1.688 76.551 C -1.501 77.697 -1.316 78.846 -1.137 80.006 C -0.266 85.691 0.457 91.278 0.743 96.712 C 0.806 97.765 0.845 98.805 0.883 99.844 C 1.121 99.98 1.392 100.139 1.733 100.344 C 2.746 100.95 4.181 101.874 5.93 103.054 C 9.427 105.411 14.139 108.855 19.087 112.979 C 19.703 113.494 20.308 114.006 20.901 114.516 C 20.938 114.92 20.974 115.324 21.007 115.729 C 20.203 115.038 19.385 114.341 18.54 113.635 C 13.613 109.529 8.98 106.025 5.582 103.548 C 4.269 102.595 2.93 101.624 1.549 100.621 C 1.299 100.439 1.084 100.28 0.896 100.139 C 1.041 104.352 0.997 108.449 0.802 112.378 C 0.61 116.426 0.234 120.287 -0.231 123.951 C -0.004 124.127 0.357 124.438 0.87 124.901 C 2.078 126.02 3.244 127.099 4.377 128.148 C 7.323 130.904 11.389 134.712 15.927 138.867 C 17.193 140.025 18.424 141.144 19.614 142.221 C 19.56 142.542 19.503 142.865 19.448 143.187 C 18.126 142.014 16.757 140.785 15.35 139.497 C 10.804 135.336 6.797 131.451 3.956 128.581 C 2.535 127.146 1.401 125.969 0.636 125.138 C 0.231 124.699 -0.065 124.365 -0.255 124.135 C -0.356 124.923 -0.456 125.714 -0.564 126.482 C -1.171 130.878 -1.93 134.944 -2.725 138.631 C -3.257 141.106 -3.803 143.395 -4.342 145.516 C -4.157 145.672 -3.949 145.849 -3.702 146.064 C -2.832 146.821 -1.597 147.944 -0.09 149.351 C 2.925 152.165 7.014 156.134 11.412 160.635 C 12.322 161.566 13.202 162.479 14.061 163.376 C 13.942 163.662 13.816 163.944 13.693 164.227 C 12.741 163.242 11.78 162.247 10.801 161.232 C 6.925 157.31 3.336 153.678 -0.511 149.785 C -1.62 148.657 -2.757 147.5 -3.932 146.305 C -4.114 146.115 -4.271 145.95 -4.413 145.797 C -5.456 149.875 -6.47 153.277 -7.299 155.886 C -7.925 157.898 -8.47 159.44 -8.845 160.485 C -9.22 161.529 -9.434 162.071 -9.472 162.058 C -9.509 162.046 -9.367 161.48 -9.064 160.414 C -8.672 159.053 -8.231 157.521 -7.724 155.758 C -6.989 153.157 -6.069 149.774 -5.113 145.749 C -5.755 146.079 -7.169 146.693 -9.15 147.497 C -11.93 148.624 -15.799 150.106 -20.108 151.647 C -20.537 151.8 -20.959 151.95 -21.379 152.098 C -21.335 151.78 -21.286 151.463 -21.238 151.146 C -20.957 151.045 -20.677 150.944 -20.396 150.842 C -16.931 149.614 -13.578 148.425 -9.362 146.931 C -7.233 146.193 -5.707 145.69 -5.062 145.533 C -5.032 145.409 -5.003 145.29 -4.974 145.165 C -5.067 145.049 -5.127 144.964 -5.113 144.95 C -5.101 144.937 -5.036 144.975 -4.945 145.038 C -4.468 143.001 -3.986 140.819 -3.514 138.467 C -2.772 134.786 -2.063 130.732 -1.5 126.354 C -1.424 125.772 -1.355 125.17 -1.282 124.577 C -1.791 124.882 -2.983 125.469 -4.662 126.247 C -6.968 127.316 -10.179 128.738 -13.746 130.261 C -14.642 130.644 -15.518 131.015 -16.365 131.37 C -16.254 131.014 -16.145 130.663 -16.036 130.316 C -15.398 130.04 -14.749 129.76 -14.082 129.475 C -10.519 127.954 -7.274 126.621 -4.907 125.695 C -3.073 124.977 -1.776 124.508 -1.258 124.381 C -0.797 120.572 -0.422 116.551 -0.247 112.327 C -0.076 108.431 -0.051 104.371 -0.208 100.197 C -0.706 100.583 -1.427 101.113 -2.321 101.76 C -5.347 103.956 -7.441 105.475 -9.443 106.928 C -9.782 107.181 -10.125 107.438 -10.473 107.699 C -10.417 107.304 -10.367 106.908 -10.317 106.513 C -10.194 106.422 -10.074 106.332 -9.95 106.24 C -7.172 104.194 -4.577 102.454 -2.659 101.258 C -1.616 100.608 -0.786 100.123 -0.225 99.824 C -0.266 98.814 -0.307 97.803 -0.371 96.779 C -0.669 91.394 -1.395 85.846 -2.263 80.18 C -2.435 79.126 -2.605 78.082 -2.775 77.038 C -3.838 78.488 -6.17 81.345 -8.957 84.585 C -9.298 84.98 -9.631 85.365 -9.961 85.744 C -9.991 85.348 -10.027 84.954 -10.061 84.559 C -9.909 84.382 -9.759 84.206 -9.605 84.027 C -6.66 80.604 -4.048 77.735 -2.85 76.577 C -3.568 72.168 -4.272 67.845 -4.957 63.634 C -5.276 61.591 -5.564 59.582 -5.834 57.591 C -6.833 58.714 -9.354 61.223 -12.097 64.334 C -12.255 64.511 -12.408 64.686 -12.562 64.861 C -12.617 64.492 -12.672 64.124 -12.727 63.755 C -9.814 60.454 -6.996 58.012 -5.884 57.228 C -6.301 54.12 -6.659 51.071 -6.917 48.108 C -7.247 44.414 -7.437 40.844 -7.495 37.43 C -7.815 37.772 -8.225 38.224 -8.686 38.808 C -9.76 40.178 -11.297 42.097 -13.145 44.054 C -13.691 44.639 -14.23 45.192 -14.756 45.716 C -14.762 45.322 -14.774 44.928 -14.773 44.533 C -14.443 44.187 -14.109 43.834 -13.769 43.469 C -11.93 41.522 -10.355 39.706 -9.139 38.407 C -8.495 37.725 -7.916 37.255 -7.499 36.973 C -7.574 31.376 -7.292 26.204 -6.666 21.619 C -6.601 21.143 -6.525 20.693 -6.454 20.23 C -7.252 21.174 -9.547 23.507 -12.559 26.438 C -12.449 25.965 -12.335 25.493 -12.218 25.022 C -9.334 22.353 -7.135 20.413 -6.404 19.902 C -5.352 13.225 -3.69 7.922 -2.221 4.324 C -1.81 3.351 -1.493 2.467 -1.127 1.74 C -0.8 1.086 -0.495 0.477 -0.207 -0.099 C -0.013 -0.48 0.137 -0.766 0.263 -1.002 L 0.438 -1.056 C 0.335 -0.796 0.193 -0.453 0 0" id="path56" stroke="none" fill="#0E6B6B" fill-rule="nonzero" fill-opacity="1"/></g><g id="g58" transform="matrix(1,0,0,1,61.9559,116.669)"><path d=" M 0 0 C -0.536 -5.208 -3.815 -44.388 16.715 -61.224 C 17.881 -62.181 19.358 -62.679 20.866 -62.679 L 51.986 -62.679 C 53.493 -62.679 54.97 -62.181 56.136 -61.224 C 76.667 -44.388 73.387 -5.208 72.852 0 Z" id="path60" stroke="none" fill="#EDCE4F" fill-rule="nonzero" fill-opacity="1"/></g><g id="g62"><g id="g64"></g><g id="g84"><g id="g82" clip-path="url(#clipPath68)" opacity="0.320007"><g id="g72" transform="matrix(1,0,0,1,129.183,88.9396)"><path d=" M 0 0 C -9.379 7.125 -25.884 0.465 -34.524 -4.995 C -43.574 -10.714 -49.189 -19.857 -55.907 -27.923 C -54.322 -29.961 -52.533 -31.837 -50.511 -33.495 C -50.501 -33.504 -50.488 -33.509 -50.478 -33.518 C -48.864 -31.703 -47.309 -29.799 -45.8 -27.841 C -40.888 -21.467 -36.078 -15.309 -29.188 -10.955 C -25.388 -8.554 -21.166 -7.06 -16.82 -6.016 C -13.178 -5.141 -6.444 -3.733 -3.805 -7.259 C -1.186 -10.759 -1.321 -15.973 -1.277 -20.88 C 1.214 -15.947 2.902 -10.541 4.029 -5.173 C 3.096 -3.164 1.793 -1.362 0 0" id="path70" stroke="none" fill="#FFAC00" fill-rule="nonzero" fill-opacity="1"/></g><g id="g76" transform="matrix(1,0,0,1,126.64,109.969)"><path d=" M 0 0 C -7.576 -2.336 -15.292 -4.213 -22.965 -6.197 C -36.603 -9.723 -50.101 -13.729 -62.639 -20.261 C -63.01 -20.455 -63.379 -20.659 -63.749 -20.858 C -59.693 -16.425 -56.082 -11.5 -52.554 -7.465 C -48.189 -2.471 -43.518 2.394 -38.415 6.7 L -50.088 6.7 C -55.217 1.599 -59.964 -3.916 -64.553 -9.419 C -64.724 -9.623 -64.895 -9.829 -65.066 -10.035 C -64.798 -15.846 -64.064 -22.534 -62.414 -29.141 C -59.222 -27.308 -55.991 -25.68 -52.904 -24.246 C -39.398 -17.97 -24.573 -14.804 -10.234 -11.059 C -4.74 -9.624 2.321 -8.272 8.67 -5.815 C 8.71 -2.379 8.603 0.586 8.471 2.822 C 5.567 1.584 2.441 0.753 0 0" id="path74" stroke="none" fill="#FFAC00" fill-rule="nonzero" fill-opacity="1"/></g><g id="g80" transform="matrix(1,0,0,1,111.671,73.1124)"><path d=" M 0 0 C -7.737 0.2 -14.317 -4.124 -19.61 -9.421 C -22.457 -12.27 -24.5 -15.621 -26.306 -19.123 L -24.842 -19.123 L -17.237 -19.123 C -16.968 -18.692 -16.706 -18.257 -16.419 -17.835 C -12.91 -12.677 -4.572 -5.547 2.068 -8.574 C 5.023 -9.92 6.865 -12.874 8.216 -16.078 C 10.277 -14.122 12.071 -11.926 13.63 -9.561 C 10.8 -4.623 5.88 -0.152 0 0" id="path78" stroke="none" fill="#FFAC00" fill-rule="nonzero" fill-opacity="1"/></g></g></g></g><g id="g86"><g id="g88"></g><g id="g100"><g id="g98" clip-path="url(#clipPath92)" opacity="0.169998"><g id="g96" transform="matrix(1,0,0,1,115.24,79.12)"><path d=" M 0 0 C -6.195 1.154 -12.59 1.552 -18.498 3.747 C -25.086 6.195 -30.817 10.887 -34.518 16.861 C -37.931 22.371 -39.589 28.788 -40.616 35.187 C -40.741 35.971 -40.857 36.759 -40.963 37.549 L -53.284 37.549 C -53.82 32.341 -57.099 -6.839 -36.569 -23.675 C -35.403 -24.632 -33.926 -25.13 -32.418 -25.13 L -1.299 -25.13 C 0.209 -25.13 1.686 -24.632 2.852 -23.675 C 8.712 -18.87 12.627 -12.242 15.225 -5.105 C 10.519 -2.58 5.272 -0.982 0 0" id="path94" stroke="none" fill="#FFAC00" fill-rule="nonzero" fill-opacity="1"/></g></g></g></g><g id="g102" transform="matrix(1,0,0,1,134.63,109.22)"><path d=" M 0 0 L -72.497 0 C -75.034 0 -77.09 2.056 -77.09 4.593 L -77.09 10.202 C -77.09 12.738 -75.034 14.795 -72.497 14.795 L 0 14.795 C 2.536 14.795 4.593 12.738 4.593 10.202 L 4.593 4.593 C 4.593 2.056 2.536 0 0 0" id="path104" stroke="none" fill="#F9DB5D" fill-rule="nonzero" fill-opacity="1"/></g><g id="g106" transform="matrix(1,0,0,1,618.19,133.017)"><path d=" M 0 0 L 10.783 -76.608 L 61.029 -76.608 L 71.812 0 Z" id="path108" stroke="none" fill="#E3FCFC" fill-rule="nonzero" fill-opacity="1"/></g><g id="g110"><g id="g112"></g><g id="g124"><g id="g122" clip-path="url(#clipPath116)"><g id="g120" transform="matrix(1,0,0,1,677.211,59.4214)"><path d=" M 0 0 L -4.112 2.553 L -2.681 7.178 L 1.432 4.624 Z M -5.845 3.629 L -9.957 6.182 L -8.525 10.807 L -4.413 8.253 Z M -7.88 -2.943 L -11.992 -0.389 L -10.56 4.235 L -6.448 1.681 Z M -13.724 0.686 L -17.837 3.24 L -16.405 7.864 L -12.292 5.31 Z M -19.569 4.315 L -23.681 6.869 L -22.25 11.493 L -18.137 8.939 Z M -21.759 -2.757 L -25.871 -0.204 L -24.284 4.921 L -20.172 2.367 Z M -27.603 0.872 L -31.716 3.425 L -30.129 8.55 L -26.017 5.997 Z M -33.448 4.501 L -37.561 7.055 L -35.974 12.179 L -31.861 9.626 Z M -35.483 -2.071 L -39.595 0.482 L -38.164 5.107 L -34.051 2.553 Z M -41.328 1.558 L -45.44 4.112 L -44.008 8.736 L -39.896 6.182 Z M -49.25 14.313 L -47.663 19.437 L -43.551 16.884 L -45.138 11.759 Z M -50.87 31.586 L -49.438 36.21 L -45.326 33.657 L -46.758 29.033 Z M -52.645 48.359 L -51.214 52.984 L -47.101 50.43 L -48.533 45.806 Z M -56.455 58.56 L -55.023 63.185 L -50.911 60.631 L -52.343 56.007 Z M -52.989 69.757 L -48.876 67.203 L -50.308 62.579 L -54.42 65.132 Z M -47.144 66.127 L -43.031 63.574 L -44.463 58.95 L -48.576 61.503 Z M -45.109 72.699 L -40.997 70.146 L -42.429 65.522 L -46.541 68.075 Z M -39.265 69.07 L -35.152 66.517 L -36.584 61.893 L -40.696 64.446 Z M -33.42 65.441 L -29.307 62.888 L -30.739 58.264 L -34.852 60.817 Z M -31.385 72.013 L -27.273 69.46 L -28.704 64.835 L -32.817 67.389 Z M -25.54 68.384 L -21.428 65.831 L -22.86 61.206 L -26.972 63.76 Z M -19.696 64.755 L -15.583 62.201 L -17.015 57.577 L -21.127 60.131 Z M -17.661 71.327 L -13.548 68.773 L -14.98 64.149 L -19.093 66.703 Z M -11.816 67.698 L -7.704 65.144 L -9.135 60.52 L -13.248 63.074 Z M -5.971 64.069 L -1.859 61.515 L -3.291 56.891 L -7.403 59.445 Z M -3.937 70.641 L 0.176 68.087 L -1.256 63.463 L -5.368 66.016 Z M 1.908 67.012 L 6.021 64.458 L 4.589 59.834 L 0.476 62.387 Z M 3.943 73.583 L 8.055 71.03 L 6.624 66.406 L 2.511 68.959 Z M 9.831 54.257 L 8.399 49.633 L 4.286 52.186 L 5.718 56.811 Z M 6.364 43.061 L 2.252 45.614 L 3.683 50.238 L 7.796 47.685 Z M 4.329 36.489 L 0.217 39.042 L 1.648 43.667 L 5.761 41.113 Z M 2.294 29.917 L -1.818 32.47 L -0.386 37.094 L 3.726 34.541 Z M 0.26 23.345 L -3.853 25.898 L -2.421 30.523 L 1.691 27.969 Z M -5.888 19.326 L -4.456 23.951 L -0.344 21.397 L -1.775 16.773 Z M -6.491 17.379 L -2.378 14.825 L -3.81 10.201 L -7.922 12.755 Z M -11.732 22.956 L -10.301 27.58 L -6.188 25.026 L -7.62 20.402 Z M -13.767 16.384 L -12.335 21.008 L -8.223 18.454 L -9.655 13.83 Z M -14.37 14.436 L -10.258 11.882 L -11.689 7.258 L -15.802 9.812 Z M -19.612 20.013 L -18.18 24.637 L -14.068 22.083 L -15.499 17.459 Z M -20.215 18.065 L -16.102 15.511 L -17.534 10.887 L -21.647 13.441 Z M -25.456 23.642 L -24.025 28.266 L -19.912 25.713 L -21.344 21.088 Z M -27.491 17.07 L -26.06 21.694 L -21.947 19.141 L -23.379 14.516 Z M -28.094 15.122 L -23.982 12.569 L -25.414 7.944 L -29.526 10.498 Z M -33.336 20.699 L -31.904 25.323 L -27.792 22.77 L -29.224 18.146 Z M -33.939 18.751 L -29.827 16.198 L -31.258 11.574 L -35.371 14.127 Z M -39.181 24.328 L -37.749 28.952 L -33.637 26.399 L -35.068 21.775 Z M -41.216 17.756 L -39.784 22.38 L -35.671 19.827 L -37.103 15.203 Z M -41.819 15.808 L -37.706 13.255 L -39.293 8.13 L -43.405 10.684 Z M -41.516 23.456 L -42.948 18.832 L -47.06 21.385 L -45.628 26.009 Z M -43.594 32.581 L -39.481 30.028 L -40.913 25.404 L -45.025 27.957 Z M -43.291 40.229 L -44.723 35.605 L -48.835 38.158 L -47.404 42.782 Z M -39.222 53.373 L -40.653 48.749 L -44.766 51.302 L -43.334 55.926 Z M -38.619 55.321 L -42.731 57.874 L -41.299 62.498 L -37.187 59.945 Z M -33.377 49.744 L -34.809 45.12 L -38.921 47.673 L -37.489 52.297 Z M -32.774 51.692 L -36.886 54.245 L -35.455 58.869 L -31.342 56.316 Z M -27.532 46.115 L -28.964 41.491 L -33.076 44.044 L -31.645 48.668 Z M -25.497 52.687 L -26.929 48.063 L -31.042 50.616 L -29.61 55.24 Z M -24.894 54.634 L -29.007 57.188 L -27.575 61.812 L -23.463 59.258 Z M -19.653 49.057 L -21.084 44.433 L -25.197 46.987 L -23.765 51.611 Z M -19.05 51.005 L -23.162 53.559 L -21.73 58.183 L -17.618 55.629 Z M -13.808 45.428 L -15.24 40.804 L -19.352 43.358 L -17.92 47.982 Z M -11.773 52 L -13.205 47.376 L -17.317 49.93 L -15.886 54.554 Z M -11.17 53.948 L -15.283 56.502 L -13.851 61.126 L -9.739 58.572 Z M -5.929 48.371 L -7.36 43.747 L -11.473 46.301 L -10.041 50.925 Z M -5.326 50.319 L -9.438 52.872 L -8.006 57.497 L -3.894 54.943 Z M -7.663 36.1 L -6.231 40.724 L -2.119 38.17 L -3.55 33.546 Z M -8.266 34.152 L -4.153 31.598 L -5.585 26.974 L -9.698 29.528 Z M -13.508 39.729 L -12.076 44.353 L -7.963 41.799 L -9.395 37.175 Z M -15.542 33.157 L -14.11 37.781 L -9.998 35.227 L -11.43 30.603 Z M -16.145 31.209 L -12.033 28.655 L -13.465 24.031 L -17.577 26.585 Z M -21.387 36.786 L -19.955 41.41 L -15.843 38.856 L -17.274 34.232 Z M -21.99 34.838 L -17.878 32.285 L -19.309 27.66 L -23.422 30.214 Z M -27.232 40.415 L -25.8 45.039 L -21.687 42.486 L -23.119 37.861 Z M -29.266 33.843 L -27.835 38.467 L -23.722 35.913 L -25.154 31.289 Z M -29.87 31.895 L -25.757 29.342 L -27.189 24.717 L -31.301 27.271 Z M -35.111 37.472 L -33.68 42.096 L -29.567 39.543 L -30.999 34.919 Z M -35.714 35.524 L -31.602 32.971 L -33.034 28.346 L -37.146 30.9 Z M -37.446 36.6 L -38.878 31.976 L -42.991 34.529 L -41.559 39.153 Z M -40.956 41.101 L -39.524 45.725 L -35.412 43.172 L -36.843 38.548 Z M -0.084 44.742 L -1.516 40.118 L -5.628 42.672 L -4.196 47.296 Z M -1.558 55.815 L -0.127 60.44 L 3.986 57.886 L 2.554 53.262 Z M 1.951 51.314 L 0.519 46.69 L -3.593 49.243 L -2.161 53.868 Z M -50.61 54.931 L -49.179 59.555 L -45.066 57.002 L -46.498 52.378 Z M -45.369 49.354 L -41.256 46.801 L -42.688 42.177 L -46.8 44.73 Z M 3.466 11.196 L 2.035 6.572 L -2.078 9.125 L -0.646 13.75 Z M 1.732 -1.076 L 2.738 2.172 L 4.459 14.402 L 4.07 13.144 L -0.043 15.697 L 1.389 20.322 L 4.979 18.092 L 5.279 20.228 L 1.992 22.269 L 3.424 26.894 L 5.993 25.298 L 6.293 27.434 L 4.027 28.841 L 5.458 33.465 L 7.007 32.504 L 7.308 34.639 L 6.062 35.413 L 7.493 40.037 L 8.021 39.71 L 8.322 41.845 L 8.096 41.985 L 8.546 43.438 L 10.35 56.256 L 6.321 58.758 L 7.753 63.382 L 11.064 61.326 L 11.365 63.462 L 8.356 65.33 L 9.788 69.954 L 12.078 68.532 L 12.379 70.668 L 10.391 71.902 L 10.915 73.595 L 8.849 73.595 L 8.658 72.978 L 7.664 73.595 L 1.881 73.595 L 0.779 70.035 L -3.333 72.588 L -3.022 73.595 L -8.695 73.595 L -5.669 71.716 L -7.101 67.092 L -11.213 69.646 L -9.99 73.595 L -12.055 73.595 L -12.945 70.721 L -17.058 73.275 L -16.959 73.595 L -21.314 73.595 L -19.393 72.402 L -20.825 67.778 L -24.937 70.332 L -23.927 73.595 L -25.992 73.595 L -26.669 71.407 L -30.193 73.595 L -33.933 73.595 L -33.117 73.089 L -34.549 68.465 L -38.661 71.018 L -37.864 73.595 L -39.929 73.595 L -40.394 72.094 L -42.812 73.595 L -46.897 73.595 L -48.273 69.151 L -52.386 71.704 L -51.8 73.595 L -53.865 73.595 L -54.118 72.78 L -55.431 73.595 L -59.022 73.595 L -59.007 73.493 L -54.721 70.832 L -56.153 66.208 L -58.157 67.452 L -57.799 64.908 L -56.756 64.26 L -57.41 62.146 L -56.59 56.322 L -52.946 54.059 L -54.378 49.435 L -55.74 50.281 L -55.382 47.736 L -54.981 47.487 L -55.232 46.674 L -54.587 42.088 L -53.248 46.411 L -49.136 43.858 L -50.568 39.234 L -54.531 41.695 L -54.173 39.15 L -51.171 37.286 L -52.602 32.662 L -53.323 33.109 L -52.409 26.616 L -51.473 29.639 L -47.361 27.085 L -48.792 22.461 L -52.115 24.524 L -51.756 21.979 L -49.396 20.513 L -50.877 15.729 L -50.231 11.143 L -49.853 12.365 L -45.741 9.811 L -47.172 5.187 L -49.605 6.698 L -49.247 4.153 L -47.775 3.239 L -48.699 0.257 L -48.239 -3.013 L -46.585 -3.013 L -47.475 -2.46 L -46.043 2.164 L -41.931 -0.39 L -42.743 -3.013 L -40.678 -3.013 L -40.198 -1.465 L -37.706 -3.013 L -33.709 -3.013 L -32.319 1.477 L -28.206 -1.076 L -28.806 -3.013 L -26.741 -3.013 L -26.474 -2.152 L -25.087 -3.013 L -19.773 -3.013 L -18.44 1.292 L -14.327 -1.262 L -14.87 -3.013 L -12.804 -3.013 L -12.595 -2.337 L -11.507 -3.013 L -5.836 -3.013 L -4.716 0.606 L -0.603 -1.948 L -0.933 -3.013 L 2.008 -3.013 L 2.237 -1.389 Z" id="path118" stroke="none" fill="#E3FCFC" fill-rule="nonzero" fill-opacity="1"/></g></g></g></g><g id="g126" transform="matrix(1,0,0,1,692.854,131.632)"><path d=" M 0 0 L -77.517 0 C -78.065 0 -78.51 0.445 -78.51 0.993 L -78.51 3.845 C -78.51 4.393 -78.065 4.838 -77.517 4.838 L 0 4.838 C 0.548 4.838 0.993 4.393 0.993 3.845 L 0.993 0.993 C 0.993 0.445 0.548 0 0 0" id="path128" stroke="none" fill="#FFFFFF" fill-rule="nonzero" fill-opacity="1"/></g><g id="g130" transform="matrix(1,0,0,1,680.371,53.9896)"><path d=" M 0 0 L -52.551 0 C -53.1 0 -53.544 0.445 -53.544 0.993 L -53.544 3.845 C -53.544 4.393 -53.1 4.838 -52.551 4.838 L 0 4.838 C 0.549 4.838 0.993 4.393 0.993 3.845 L 0.993 0.993 C 0.993 0.445 0.549 0 0 0" id="path132" stroke="none" fill="#FFFFFF" fill-rule="nonzero" fill-opacity="1"/></g><g id="g134" transform="matrix(1,0,0,1,405.054,382.39)"><path d=" M 0 0 L -12.896 0 L -34.387 0 L -47.283 0 C -73.881 0 -95.009 -22.361 -93.502 -48.916 L -87.027 -163.049 L -34.387 -163.049 L -12.896 -163.049 L 39.745 -163.049 L 46.22 -48.916 C 47.726 -22.361 26.598 0 0 0" id="path136" stroke="none" fill="#12ACAF" fill-rule="nonzero" fill-opacity="1"/></g><g id="g138" transform="matrix(1,0,0,1,348.621,409.49)"><path d=" M 0 0 C -2.254 8.971 -3.094 18.324 -2.146 27.524 C -1.946 29.461 -1.633 31.479 -0.476 33.044 C 0.681 34.609 2.938 35.529 4.642 34.588 C 5.175 38.648 7.825 42.224 11.176 44.578 C 14.527 46.933 18.53 48.191 22.547 48.991 C 33.75 51.223 45.604 50.08 56.175 45.749 C 58.491 44.8 60.784 43.675 62.607 41.96 C 71.392 33.69 71.553 16.794 68.67 5.983 C 68.125 3.937 67.37 1.86 67.646 -0.24" id="path140" stroke="none" fill="#4A3D99" fill-rule="nonzero" fill-opacity="1"/></g><g id="g142" transform="matrix(1,0,0,1,331.652,330.562)"><path d=" M 0 0 L -11.655 -43.699 C -12.95 -48.553 -9.267 -53.307 -4.243 -53.266 L 19.452 -53.072" id="path144" stroke="none" fill="#59AFEC" fill-rule="nonzero" fill-opacity="1"/></g><g id="g146" transform="matrix(1,0,0,1,443.043,330.562)"><path d=" M 0 0 L 11.655 -43.699 C 12.95 -48.553 9.267 -53.307 4.243 -53.266 L -19.452 -53.072" id="path148" stroke="none" fill="#59AFEC" fill-rule="nonzero" fill-opacity="1"/></g><g id="g150" transform="matrix(1,0,0,1,399.148,371.411)"><path d=" M 0 0 L -31.707 0 C -28.285 -4.795 -22.463 -8.416 -15.854 -8.416 C -9.245 -8.416 -3.422 -4.795 -1.77636e-15 0" id="path152" stroke="none" fill="#4A9CCE" fill-rule="nonzero" fill-opacity="1"/></g><g id="g154" transform="matrix(1,0,0,1,425.586,332.155)"><path d=" M 0 0 L -83.84 0 L -83.84 17.873 C -83.84 29.682 -74.267 39.255 -62.458 39.255 L -21.382 39.255 C -9.573 39.255 0 29.682 0 17.873 Z" id="path156" stroke="none" fill="#59AFEC" fill-rule="nonzero" fill-opacity="1"/></g><g id="g158" transform="matrix(1,0,0,1,392.116,371.411)"><path d=" M 0 0 L 0 14.725 L -16.9 14.725 L -16.9 0 L -19.829 0 C -17.203 -3.011 -13.089 -4.959 -8.45 -4.959 C -3.811 -4.959 0.303 -3.011 2.929 0 Z" id="path160" stroke="none" fill="#FA92AE" fill-rule="nonzero" fill-opacity="1"/></g><g id="g162" transform="matrix(1,0,0,1,385.973,453.476)"><path d=" M 0 0 L 0 0 L -4.615 0 L -4.615 0 C -21.872 0 -35.103 -15.899 -32.584 -33.61 L -29.876 -52.651 C -28.442 -62.734 -20.102 -70.203 -10.278 -70.203 L -4.615 -70.203 L 0 -70.203 L 5.663 -70.203 C 15.487 -70.203 23.828 -62.734 25.261 -52.651 L 27.969 -33.61 C 30.488 -15.899 17.257 0 0 0" id="path164" stroke="none" fill="#FA92AE" fill-rule="nonzero" fill-opacity="1"/></g><g id="g166" transform="matrix(1,0,0,1,356.515,412.151)"><path d=" M 0 0 C 5.17 -2.96 7.541 -8.54 5.294 -12.464 C 3.048 -16.388 -2.964 -17.169 -8.135 -14.209 C -13.305 -11.249 -15.675 -5.669 -13.429 -1.745 C -11.183 2.179 -5.17 2.96 0 0" id="path168" stroke="none" fill="#FA92AE" fill-rule="nonzero" fill-opacity="1"/></g><g id="g170" transform="matrix(1,0,0,1,410.273,412.151)"><path d=" M 0 0 C -5.17 -2.96 -7.541 -8.54 -5.295 -12.464 C -3.048 -16.388 2.964 -17.169 8.134 -14.209 C 13.305 -11.249 15.675 -5.669 13.429 -1.745 C 11.183 2.179 5.17 2.96 0 0" id="path172" stroke="none" fill="#FA92AE" fill-rule="nonzero" fill-opacity="1"/></g><g id="g174" transform="matrix(1,0,0,1,488.709,304.366)"><path d=" M 0 0 C -2.084 0 -3.78 -1.696 -3.78 -3.78 L -3.78 -11.597 C -3.78 -13.681 -2.084 -15.377 0 -15.377 L 12.73 -15.377 C 14.813 -15.377 16.509 -13.681 16.509 -11.597 L 16.509 -3.78 C 16.509 -1.696 14.813 0 12.73 0 Z M 12.73 -19.303 L 0 -19.303 C -4.249 -19.303 -7.705 -15.846 -7.705 -11.597 L -7.705 -3.78 C -7.705 0.469 -4.249 3.925 0 3.925 L 12.73 3.925 C 16.978 3.925 20.434 0.469 20.434 -3.78 L 20.434 -11.597 C 20.434 -15.846 16.978 -19.303 12.73 -19.303" id="path176" stroke="none" fill="#113F56" fill-rule="nonzero" fill-opacity="1"/></g><g id="g178" transform="matrix(1,0,0,1,484.112,315.865)"><path d=" M 0 0 L -4.212 0 L -18.443 0 L -14.95 -38.375 L -4.212 -38.375 L 0 -38.375 L 10.738 -38.375 L 14.231 0 Z" id="path180" stroke="none" fill="#0D334A" fill-rule="nonzero" fill-opacity="1"/></g><g id="g182" transform="matrix(1,0,0,1,402.38,357.089)"><path d=" M 0 0 L -30.805 0 L -64.81 0 C -69.566 0 -73.348 -3.99 -73.095 -8.739 L -69.572 -72.019 C -69.338 -76.424 -65.698 -79.875 -61.287 -79.875 L -30.805 -79.875 L 0 -79.875 L 30.482 -79.875 C 34.892 -79.875 38.532 -76.424 38.767 -72.019 L 42.29 -8.739 C 42.543 -3.99 38.76 0 34.005 0 Z" id="path184" stroke="none" fill="#C5DCFC" fill-rule="nonzero" fill-opacity="1"/></g><g id="g186" transform="matrix(1,0,0,1,397.146,321.456)"><path d=" M 0 0 C 0 -5.616 -4.552 -10.168 -10.168 -10.168 C -15.783 -10.168 -20.336 -5.616 -20.336 0 C -20.336 5.616 -15.783 10.168 -10.168 10.168 C -4.552 10.168 0 5.616 0 0" id="path188" stroke="none" fill="#FFFFFF" fill-rule="nonzero" fill-opacity="1"/></g><g id="g190" transform="matrix(1,0,0,1,391.535,321.456)"><path d=" M 0 0 C 0 -2.517 -2.04 -4.557 -4.557 -4.557 C -7.074 -4.557 -9.115 -2.517 -9.115 0 C -9.115 2.517 -7.074 4.557 -4.557 4.557 C -2.04 4.557 0 2.517 0 0" id="path192" stroke="none" fill="#C5DCFC" fill-rule="nonzero" fill-opacity="1"/></g><g id="g194"><g id="g196"></g><g id="g208"><g id="g206" clip-path="url(#clipPath200)" opacity="0.199997"><g id="g204" transform="matrix(1,0,0,1,417.898,308.132)"><path d=" M 0 0 C -13.323 3.519 -27.047 5.378 -40.323 9.07 C -48.129 11.241 -55.862 14.095 -62.465 18.788 C -71.739 25.381 -78.393 35.56 -80.71 46.7 C -80.862 47.435 -80.994 48.174 -81.109 48.916 C -85.49 48.507 -88.852 44.704 -88.613 40.218 L -85.09 -23.062 C -84.855 -27.467 -81.215 -30.918 -76.804 -30.918 L -46.323 -30.918 L -15.517 -30.918 L 14.964 -30.918 C 19.375 -30.918 23.015 -27.467 23.25 -23.062 L 24.015 -9.317 C 16.564 -5.114 8.301 -2.192 0 0" id="path202" stroke="none" fill="#C5DCFC" fill-rule="nonzero" fill-opacity="1"/></g></g></g></g><g id="g210" transform="matrix(1,0,0,1,440.298,277.215)"><path d=" M 0 0 L -106.641 0 C -107.627 0 -108.427 0.8 -108.427 1.786 L -108.427 5.023 C -108.427 6.009 -107.627 6.809 -106.641 6.809 L 0 6.809 C 0.986 6.809 1.786 6.009 1.786 5.023 L 1.786 1.786 C 1.786 0.8 0.986 0 0 0" id="path212" stroke="none" fill="#B0CBEA" fill-rule="nonzero" fill-opacity="1"/></g><g id="g214" transform="matrix(1,0,0,1,247.548,278.685)"><path d=" M 0 0 L -68.456 0 L -68.456 17.791 L 0 17.791 C 2.9 17.791 5.25 15.44 5.25 12.541 L 5.25 5.25 C 5.25 2.35 2.9 0 0 0" id="path216" stroke="none" fill="#CDEBED" fill-rule="nonzero" fill-opacity="1"/></g><g id="g218"><g id="g220"></g><g id="g232"><g id="g230" clip-path="url(#clipPath224)"><g id="g228" transform="matrix(1,0,0,1,251.758,285.109)"><path d=" M 0 0 C 0 -0.752 -0.122 -1.471 -0.298 -2.169 C 0.536 -0.815 1.04 0.764 1.04 2.471 C 1.04 7.384 -2.942 11.366 -7.855 11.366 L -72.665 11.366 L -72.665 8.896 L -8.896 8.896 C -3.983 8.896 0 4.913 0 0" id="path226" stroke="none" fill="#CDEBED" fill-rule="nonzero" fill-opacity="1"/></g></g></g></g><g id="g234" transform="matrix(1,0,0,1,243.903,297.747)"><path d=" M 0 0 L -66.505 0 L -66.505 -2.542 L 0 -2.542 C 4.205 -2.542 7.625 -5.962 7.625 -10.166 C 7.625 -14.371 4.205 -17.791 0 -17.791 L -66.505 -17.791 L -66.505 -20.333 L 0 -20.333 C 5.606 -20.333 10.166 -15.772 10.166 -10.166 C 10.166 -4.56 5.606 0 0 0" id="path236" stroke="none" fill="#0D334A" fill-rule="nonzero" fill-opacity="1"/></g><g id="g238" transform="matrix(1,0,0,1,242.242,290.835)"><path d=" M 0 0 L -58.999 0 C -59.233 0 -59.423 0.189 -59.423 0.424 C -59.423 0.658 -59.233 0.847 -58.999 0.847 L 0 0.847 C 0.234 0.847 0.424 0.658 0.424 0.424 C 0.424 0.189 0.234 0 0 0" id="path240" stroke="none" fill="#FFFFFF" fill-rule="nonzero" fill-opacity="1"/></g><g id="g242" transform="matrix(1,0,0,1,242.242,287.157)"><path d=" M 0 0 L -58.999 0 C -59.233 0 -59.423 0.189 -59.423 0.424 C -59.423 0.658 -59.233 0.847 -58.999 0.847 L 0 0.847 C 0.234 0.847 0.424 0.658 0.424 0.424 C 0.424 0.189 0.234 0 0 0" id="path244" stroke="none" fill="#FFFFFF" fill-rule="nonzero" fill-opacity="1"/></g><g id="g246" transform="matrix(1,0,0,1,242.242,283.478)"><path d=" M 0 0 L -58.999 0 C -59.233 0 -59.423 0.19 -59.423 0.424 C -59.423 0.658 -59.233 0.847 -58.999 0.847 L 0 0.847 C 0.234 0.847 0.424 0.658 0.424 0.424 C 0.424 0.19 0.234 0 0 0" id="path248" stroke="none" fill="#FFFFFF" fill-rule="nonzero" fill-opacity="1"/></g><g id="g250" transform="matrix(1,0,0,1,238.447,313.124)"><path d=" M 0 0 L -52.601 0 L -52.601 15.432 L 0 15.432 C 2.515 15.432 4.554 13.393 4.554 10.878 L 4.554 4.554 C 4.554 2.039 2.515 0 0 0" id="path252" stroke="none" fill="#CDEBED" fill-rule="nonzero" fill-opacity="1"/></g><g id="g254"><g id="g256"></g><g id="g268"><g id="g266" clip-path="url(#clipPath260)"><g id="g264" transform="matrix(1,0,0,1,242.099,318.697)"><path d=" M 0 0 C 0 -0.653 -0.105 -1.276 -0.258 -1.881 C 0.465 -0.706 0.902 0.663 0.902 2.143 C 0.902 6.405 -2.552 9.859 -6.814 9.859 L -56.253 9.859 L -56.253 7.716 L -7.716 7.716 C -3.455 7.716 0 4.261 0 0" id="path262" stroke="none" fill="#CDEBED" fill-rule="nonzero" fill-opacity="1"/></g></g></g></g><g id="g270" transform="matrix(1,0,0,1,235.285,329.659)"><path d=" M 0 0 L -50.909 0 L -50.909 -2.204 L 0 -2.204 C 3.647 -2.204 6.614 -5.171 6.614 -8.818 C 6.614 -12.465 3.647 -15.432 0 -15.432 L -50.909 -15.432 L -50.909 -17.637 L 0 -17.637 C 4.863 -17.637 8.818 -13.681 8.818 -8.818 C 8.818 -3.956 4.863 0 0 0" id="path272" stroke="none" fill="#59AFEC" fill-rule="nonzero" fill-opacity="1"/></g><g id="g274" transform="matrix(1,0,0,1,233.844,323.664)"><path d=" M 0 0 L -44.398 0 C -44.602 0 -44.766 0.164 -44.766 0.367 C -44.766 0.571 -44.602 0.735 -44.398 0.735 L 0 0.735 C 0.203 0.735 0.367 0.571 0.367 0.367 C 0.367 0.164 0.203 0 0 0" id="path276" stroke="none" fill="#FFFFFF" fill-rule="nonzero" fill-opacity="1"/></g><g id="g278" transform="matrix(1,0,0,1,233.844,320.473)"><path d=" M 0 0 L -44.398 0 C -44.602 0 -44.766 0.164 -44.766 0.367 C -44.766 0.57 -44.602 0.735 -44.398 0.735 L 0 0.735 C 0.203 0.735 0.367 0.57 0.367 0.367 C 0.367 0.164 0.203 0 0 0" id="path280" stroke="none" fill="#FFFFFF" fill-rule="nonzero" fill-opacity="1"/></g><g id="g282" transform="matrix(1,0,0,1,233.844,317.283)"><path d=" M 0 0 L -44.398 0 C -44.602 0 -44.766 0.164 -44.766 0.367 C -44.766 0.57 -44.602 0.735 -44.398 0.735 L 0 0.735 C 0.203 0.735 0.367 0.57 0.367 0.367 C 0.367 0.164 0.203 0 0 0" id="path284" stroke="none" fill="#FFFFFF" fill-rule="nonzero" fill-opacity="1"/></g><g id="g286" transform="matrix(1,0,0,1,231.923,298.353)"><path d=" M 0 0 L -60.923 0 L -60.923 12.751 L 0 12.751 C 2.078 12.751 3.763 11.066 3.763 8.988 L 3.763 3.763 C 3.763 1.685 2.078 0 0 0" id="path288" stroke="none" fill="#CDEBED" fill-rule="nonzero" fill-opacity="1"/></g><g id="g290"><g id="g292"></g><g id="g304"><g id="g302" clip-path="url(#clipPath296)"><g id="g300" transform="matrix(1,0,0,1,234.94,302.957)"><path d=" M 0 0 C 0 -0.539 -0.087 -1.054 -0.213 -1.554 C 0.384 -0.584 0.745 0.548 0.745 1.771 C 0.745 5.292 -2.109 8.146 -5.63 8.146 L -63.94 8.146 L -63.94 6.375 L -6.375 6.375 C -2.854 6.375 0 3.521 0 0" id="path298" stroke="none" fill="#CDEBED" fill-rule="nonzero" fill-opacity="1"/></g></g></g></g><g id="g306" transform="matrix(1,0,0,1,229.31,312.014)"><path d=" M 0 0 L -59.524 0 L -59.524 -1.822 L 0 -1.822 C 3.013 -1.822 5.465 -4.273 5.465 -7.286 C 5.465 -10.299 3.013 -12.751 0 -12.751 L -59.524 -12.751 L -59.524 -14.572 L 0 -14.572 C 4.018 -14.572 7.286 -11.304 7.286 -7.286 C 7.286 -3.268 4.018 0 0 0" id="path308" stroke="none" fill="#F0C40C" fill-rule="nonzero" fill-opacity="1"/></g><g id="g310" transform="matrix(1,0,0,1,228.12,307.061)"><path d=" M 0 0 L -54.145 0 C -54.313 0 -54.449 0.136 -54.449 0.304 C -54.449 0.471 -54.313 0.607 -54.145 0.607 L 0 0.607 C 0.168 0.607 0.304 0.471 0.304 0.304 C 0.304 0.136 0.168 0 0 0" id="path312" stroke="none" fill="#FFFFFF" fill-rule="nonzero" fill-opacity="1"/></g><g id="g314" transform="matrix(1,0,0,1,228.12,304.425)"><path d=" M 0 0 L -54.145 0 C -54.313 0 -54.449 0.136 -54.449 0.304 C -54.449 0.471 -54.313 0.607 -54.145 0.607 L 0 0.607 C 0.168 0.607 0.304 0.471 0.304 0.304 C 0.304 0.136 0.168 0 0 0" id="path316" stroke="none" fill="#FFFFFF" fill-rule="nonzero" fill-opacity="1"/></g><g id="g318" transform="matrix(1,0,0,1,228.12,301.788)"><path d=" M 0 0 L -54.145 0 C -54.313 0 -54.449 0.136 -54.449 0.304 C -54.449 0.471 -54.313 0.607 -54.145 0.607 L 0 0.607 C 0.168 0.607 0.304 0.471 0.304 0.304 C 0.304 0.136 0.168 0 0 0" id="path320" stroke="none" fill="#FFFFFF" fill-rule="nonzero" fill-opacity="1"/></g><g id="g322" transform="matrix(1,0,0,1,334.017,363.688)"><path d=" M 0 0 C -0.517 0 -0.936 0.419 -0.936 0.936 L -0.936 73.444 C -0.936 77.23 -4.017 80.311 -7.803 80.311 L -57.025 80.311 C -57.542 80.311 -57.961 80.73 -57.961 81.247 C -57.961 81.764 -57.542 82.183 -57.025 82.183 L -7.803 82.183 C -2.984 82.183 0.936 78.263 0.936 73.444 L 0.936 0.936 C 0.936 0.419 0.517 0 0 0" id="path324" stroke="none" fill="#FFFFFF" fill-rule="nonzero" fill-opacity="1"/></g><g id="g326" transform="matrix(1,0,0,1,325.138,317.249)"><path d=" M 0 0 L -4.572 0 C -9.546 0 -13.592 4.047 -13.592 9.021 L -13.592 56.415 C -13.592 60.356 -16.799 63.563 -20.74 63.563 L -76.599 63.563 C -77.116 63.563 -77.535 63.982 -77.535 64.499 C -77.535 65.016 -77.116 65.435 -76.599 65.435 L -20.74 65.435 C -15.766 65.435 -11.72 61.389 -11.72 56.415 L -11.72 9.021 C -11.72 5.079 -8.513 1.872 -4.572 1.872 L 0 1.872 C 0.517 1.872 0.936 1.453 0.936 0.936 C 0.936 0.419 0.517 0 0 0" id="path328" stroke="none" fill="#FFFFFF" fill-rule="nonzero" fill-opacity="1"/></g><g id="g330" transform="matrix(1,0,0,1,435.062,361.075)"><path d=" M 0 0 C -0.517 0 -0.936 0.419 -0.936 0.936 L -0.936 12.793 C -0.936 16.72 2.259 19.915 6.186 19.915 L 70.536 19.915 C 73.431 19.915 75.786 22.27 75.786 25.164 L 75.786 35.968 C 75.786 36.485 76.205 36.904 76.722 36.904 C 77.239 36.904 77.658 36.485 77.658 35.968 L 77.658 25.164 C 77.658 21.237 74.463 18.042 70.536 18.042 L 6.186 18.042 C 3.291 18.042 0.936 15.687 0.936 12.793 L 0.936 0.936 C 0.936 0.419 0.517 0 0 0" id="path332" stroke="none" fill="#FFFFFF" fill-rule="nonzero" fill-opacity="1"/></g><g id="g334" transform="matrix(1,0,0,1,528.852,330.139)"><path d=" M 0 0 L -77.892 0 C -78.41 0 -78.828 0.419 -78.828 0.936 C -78.828 1.453 -78.41 1.872 -77.892 1.872 L 0 1.872 C 0.517 1.872 0.936 1.453 0.936 0.936 C 0.936 0.419 0.517 0 0 0" id="path336" stroke="none" fill="#FFFFFF" fill-rule="nonzero" fill-opacity="1"/></g><g id="g338"><g id="g340"></g><g id="g352"><g id="g350" clip-path="url(#clipPath344)"><g id="g348" transform="matrix(1,0,0,1,383.458,431.304)"><path d=" M 0 0 L -5.938 -24.357 L 6.354 -24.357 Z" id="path346" stroke="none" fill="#FA92AE" fill-rule="nonzero" fill-opacity="1"/></g></g></g></g><g id="g354" transform="matrix(1,0,0,1,374.409,413.377)"><path d=" M 0 0 C 0 -1.665 -0.775 -3.014 -1.731 -3.014 C -2.686 -3.014 -3.461 -1.665 -3.461 0 C -3.461 1.665 -2.686 3.014 -1.731 3.014 C -0.775 3.014 0 1.665 0 0" id="path356" stroke="none" fill="#91435B" fill-rule="nonzero" fill-opacity="1"/></g><g id="g358" transform="matrix(1,0,0,1,396.384,413.377)"><path d=" M 0 0 C 0 -1.665 -0.775 -3.014 -1.731 -3.014 C -2.686 -3.014 -3.461 -1.665 -3.461 0 C -3.461 1.665 -2.686 3.014 -1.731 3.014 C -0.775 3.014 0 1.665 0 0" id="path360" stroke="none" fill="#91435B" fill-rule="nonzero" fill-opacity="1"/></g><g id="g362" transform="matrix(1,0,0,1,383.667,399.51)"><path d=" M 0 0 C -2.593 0 -4.768 1.687 -5.413 4.198 C -5.541 4.699 -5.24 5.209 -4.74 5.338 C -4.239 5.463 -3.728 5.165 -3.599 4.664 C -3.07 2.603 -1.33 1.872 0 1.872 C 1.329 1.872 3.069 2.603 3.598 4.664 C 3.727 5.165 4.238 5.464 4.738 5.338 C 5.238 5.209 5.539 4.699 5.411 4.198 C 4.757 1.648 2.633 0 0 0" id="path364" stroke="none" fill="#91435B" fill-rule="nonzero" fill-opacity="1"/></g><g id="g366" transform="matrix(1,0,0,1,365.686,425.415)"><path d=" M 0 0 C 2.68 2.417 6.233 3.234 9.709 2.305 C 11.461 1.836 12.203 4.546 10.455 5.013 C 5.988 6.208 1.441 5.075 -1.986 1.986 C -3.334 0.771 -1.341 -1.209 0 0" id="path368" stroke="none" fill="#91435B" fill-rule="nonzero" fill-opacity="1"/></g><g id="g370" transform="matrix(1,0,0,1,401.646,425.415)"><path d=" M 0 0 C -2.68 2.417 -6.233 3.234 -9.709 2.305 C -11.461 1.836 -12.203 4.546 -10.455 5.013 C -5.988 6.208 -1.441 5.075 1.986 1.986 C 3.334 0.771 1.341 -1.209 0 0" id="path372" stroke="none" fill="#91435B" fill-rule="nonzero" fill-opacity="1"/></g><g id="g374"><g id="g376"></g><g id="g388"><g id="g386" clip-path="url(#clipPath380)" opacity="0.220001"><g id="g384" transform="matrix(1,0,0,1,352.351,412.014)"><path d=" M 0 0 C 2.327 0.068 4.353 1.59 5.984 3.251 C 11.163 8.528 14.045 15.985 13.761 23.374 C 17.426 21.23 21.869 20.976 26.114 20.999 C 31.741 21.029 37.501 21.482 42.639 23.775 C 47.777 26.068 52.241 30.5 53.278 36.03 C 45.611 37.568 37.837 38.521 30.052 39.26 C 25.357 39.706 20.601 40.072 15.944 39.328 C 11.577 38.631 7.2 36.827 4.41 33.396 C 1.622 29.967 0.754 25.37 0.518 20.958 C 0.282 16.545 0.58 12.077 -0.283 7.743" id="path382" stroke="none" fill="#FA92AE" fill-rule="nonzero" fill-opacity="1"/></g></g></g></g><g id="g390" transform="matrix(1,0,0,1,383.65,457.756)"><path d=" M 0 0 C -7.665 0.277 -19.433 -1.971 -24.93 -7.865 C -29.395 -12.651 -32.298 -18.819 -33.79 -25.152 C -35.296 -31.549 -35.79 -39.459 -32.771 -45.494 C -32.613 -45.811 -32.428 -46.141 -32.115 -46.308 C -31.458 -46.658 -30.694 -46.119 -30.146 -45.614 C -26.682 -42.417 -24.364 -38.558 -22.828 -34.102 C -21.919 -31.465 -21.471 -28.631 -21.165 -25.868 C -21.075 -25.054 -20.202 -17.344 -20.722 -17.179 C -12.73 -19.715 -4.224 -20.621 4.124 -19.826 C 7.713 -19.484 11.322 -18.815 14.569 -17.248 C 17.816 -15.68 20.693 -13.134 22.106 -9.817 C 16.542 -3.684 8.275 -0.299 0 0" id="path392" stroke="none" fill="#4A3D99" fill-rule="nonzero" fill-opacity="1"/></g><g id="g394" transform="matrix(1,0,0,1,410.869,411.6)"><path d=" M 0 0 C 0 -2.738 -2.228 -4.965 -4.966 -4.965 L -15.567 -4.965 C -18.305 -4.965 -20.532 -2.738 -20.532 0 L -20.532 6.183 C -20.532 8.921 -18.305 11.148 -15.567 11.148 L -4.966 11.148 C -2.228 11.148 0 8.921 0 6.183 Z M -33.873 0 C -33.873 -2.738 -36.101 -4.965 -38.839 -4.965 L -49.44 -4.965 C -52.178 -4.965 -54.406 -2.738 -54.406 0 L -54.406 6.183 C -54.406 8.921 -52.178 11.148 -49.44 11.148 L -38.839 11.148 C -36.101 11.148 -33.873 8.921 -33.873 6.183 Z M -4.966 13.489 L -15.567 13.489 C -19.378 13.489 -22.513 10.553 -22.84 6.825 C -26.979 9.085 -29.891 7.958 -31.565 6.821 C -31.889 10.551 -35.025 13.489 -38.839 13.489 L -49.44 13.489 C -53.469 13.489 -56.746 10.212 -56.746 6.183 L -56.746 0 C -56.746 -4.029 -53.469 -7.306 -49.44 -7.306 L -38.839 -7.306 C -34.81 -7.306 -31.533 -4.029 -31.533 0 L -31.533 4.465 C -30.353 5.51 -27.697 7.83 -22.873 4.691 L -22.873 0 C -22.873 -4.029 -19.595 -7.306 -15.567 -7.306 L -4.966 -7.306 C -0.937 -7.306 2.34 -4.029 2.34 0 L 2.34 6.183 C 2.34 10.212 -0.937 13.489 -4.966 13.489" id="path396" stroke="none" fill="#FFFFFF" fill-rule="nonzero" fill-opacity="1"/></g><g id="g398" transform="matrix(1,0,0,1,526.106,401.078)"><path d=" M 0 0 L -41.853 0 C -47.96 0 -52.91 4.951 -52.91 11.057 L -52.91 38.746 C -52.91 44.852 -47.96 49.803 -41.853 49.803 L 0 49.803 C 6.107 49.803 11.057 44.852 11.057 38.746 L 11.057 11.057 C 11.057 4.951 6.107 0 0 0" id="path400" stroke="none" fill="#59AFEC" fill-rule="nonzero" fill-opacity="1"/></g><g id="g402" transform="matrix(1,0,0,1,505.18,421.502)"><path d=" M 0 0 C -3.211 0 -5.815 2.604 -5.815 5.815 C -5.815 9.027 -3.211 11.63 0 11.63 C 3.212 11.63 5.815 9.027 5.815 5.815 C 5.815 2.604 3.212 0 0 0 M 17.099 3.262 L 17.099 8.98 L 11.933 8.517 C 11.569 10.13 10.887 11.619 9.956 12.921 L 14.112 16.19 L 10.069 20.233 L 6.619 16.104 C 5.302 16.952 3.815 17.554 2.217 17.847 L 2.859 23.22 L -2.859 23.22 L -2.375 17.823 C -3.968 17.509 -5.449 16.887 -6.755 16.021 L -10.069 20.233 L -14.112 16.19 L -10.05 12.796 C -10.963 11.483 -11.628 9.986 -11.972 8.368 L -17.099 8.98 L -17.099 3.262 L -12.049 3.715 C -11.758 2.036 -11.133 0.474 -10.232 -0.896 L -14.112 -3.948 L -10.069 -7.991 L -6.95 -4.258 C -5.574 -5.209 -3.994 -5.883 -2.289 -6.206 L -2.859 -10.978 L 2.859 -10.978 L 2.429 -6.184 C 4.131 -5.842 5.699 -5.14 7.065 -4.172 L 10.069 -7.991 L 14.112 -3.948 L 10.309 -0.77 C 11.193 0.61 11.801 2.178 12.072 3.863 Z" id="path404" stroke="none" fill="#FFFFFF" fill-rule="nonzero" fill-opacity="1"/></g><g id="g406"><g id="g408"></g><g id="g420"><g id="g418" clip-path="url(#clipPath412)" opacity="0.220001"><g id="g416" transform="matrix(1,0,0,1,527.701,422.647)"><path d=" M 0 0 C -9.557 1.732 -19.59 2.156 -28.277 6.503 C -35.627 10.181 -41.554 16.619 -44.612 24.248 C -45.113 25.497 -45.528 26.779 -45.873 28.08 C -50.77 27.259 -54.505 23.012 -54.505 17.882 L -54.505 -11.217 C -54.505 -16.934 -49.87 -21.569 -44.153 -21.569 L -0.889 -21.569 C 4.828 -21.569 9.463 -16.934 9.463 -11.217 L 9.463 -2.307 C 6.367 -1.324 3.185 -0.577 0 0" id="path414" stroke="none" fill="#59AFEC" fill-rule="nonzero" fill-opacity="1"/></g></g></g></g><g id="g422" transform="matrix(1,0,0,1,583.375,315.317)"><path d=" M 0 0 L -36.11 0 C -42.217 0 -47.167 4.951 -47.167 11.057 L -47.167 29.388 C -47.167 35.495 -42.217 40.445 -36.11 40.445 L 0 40.445 C 6.107 40.445 11.057 35.495 11.057 29.388 L 11.057 11.057 C 11.057 4.951 6.107 0 0 0" id="path424" stroke="none" fill="#9B88FE" fill-rule="nonzero" fill-opacity="1"/></g></g></g><text id="text428" stroke="none" stroke-width="1.33333" fill="#FFFFFF" fill-rule="nonzero" fill-opacity="1" font-family="Gilroy ExtraBold" font-variant="normal" font-weight="800" font-stretch="normal" font-size="29.334" writing-mode="lr-tb" x="659.679" y="187.514"><tspan stroke-width="1.33333" x="659.679 680.477 697.05" y="187.514">CSS</tspan></text><g id="g430" transform="matrix(1.33333,0,0,-1.33333,-66.2867,623.691)"><g id="g432" clip-path="url(#clipPath436)"><g id="g438"><g id="g440"></g><g id="g452"><g id="g450" clip-path="url(#clipPath444)" opacity="0.220001"><g id="g448" transform="matrix(1,0,0,1,582.715,328.732)"><path d=" M 0 0 C -9.282 1.792 -18.646 4.827 -25.734 11.081 C -30.509 15.294 -33.868 20.924 -35.631 27.03 L -36.156 27.03 C -41.873 27.03 -46.508 22.396 -46.508 16.678 L -46.508 -3.063 C -46.508 -8.78 -41.873 -13.415 -36.156 -13.415 L 1.365 -13.415 C 7.083 -13.415 11.717 -8.78 11.717 -3.063 L 11.717 -1.889 C 7.802 -1.312 3.882 -0.75 0 0" id="path446" stroke="none" fill="#9B88FE" fill-rule="nonzero" fill-opacity="1"/></g></g></g></g><g id="g454" transform="matrix(1,0,0,1,257.795,427.324)"><path d=" M 0 0 L -34.602 0 C -40.709 0 -45.66 4.951 -45.66 11.057 L -45.66 29.388 C -45.66 35.495 -40.709 40.445 -34.602 40.445 L 0 40.445 C 6.107 40.445 11.057 35.495 11.057 29.388 L 11.057 11.057 C 11.057 4.951 6.107 0 0 0" id="path456" stroke="none" fill="#9B88FE" fill-rule="nonzero" fill-opacity="1"/></g></g></g><text id="text460" stroke="none" stroke-width="1.33333" fill="#FFFFFF" fill-rule="nonzero" fill-opacity="1" font-family="Gilroy ExtraBold" font-variant="normal" font-weight="800" font-stretch="normal" font-size="29.1667" writing-mode="lr-tb" x="231.331" y="36.6486"><tspan stroke-width="1.33333" x="231.331 246.789 261.956" y="36.6486">&lt;/&gt;</tspan></text><g id="g462" transform="matrix(1.33333,0,0,-1.33333,-66.2867,623.691)"><g id="g464" clip-path="url(#clipPath468)"><g id="g470"><g id="g472"></g><g id="g484"><g id="g482" clip-path="url(#clipPath476)" opacity="0.220001"><g id="g480" transform="matrix(1,0,0,1,256.675,444.675)"><path d=" M 0 0 C -7.431 0.921 -15.387 1.897 -21.037 6.812 C -22.893 8.427 -24.407 10.401 -25.731 12.475 C -27.834 15.769 -29.458 19.357 -30.597 23.094 L -34.188 23.094 C -39.906 23.094 -44.54 18.46 -44.54 12.742 L -44.54 -6.999 C -44.54 -12.716 -39.906 -17.351 -34.188 -17.351 L 1.825 -17.351 C 7.542 -17.351 12.177 -12.716 12.177 -6.999 L 12.177 -2.505 C 8.315 -1.147 4.074 -0.505 0 0" id="path478" stroke="none" fill="#9B88FE" fill-rule="nonzero" fill-opacity="1"/></g></g></g></g><g id="g486" transform="matrix(1,0,0,1,229.111,360.423)"><path d=" M 0 0 L -42.563 0 C -48.67 0 -53.62 4.951 -53.62 11.057 L -53.62 31.594 C -53.62 37.701 -48.67 42.651 -42.563 42.651 L 0 42.651 C 6.107 42.651 11.058 37.701 11.058 31.594 L 11.058 11.057 C 11.058 4.951 6.107 0 0 0" id="path488" stroke="none" fill="#59AFEC" fill-rule="nonzero" fill-opacity="1"/></g></g></g><text id="text492" stroke="none" stroke-width="1.33333" fill="#FFFFFF" fill-rule="nonzero" fill-opacity="1" font-family="Gilroy ExtraBold" font-variant="normal" font-weight="800" font-stretch="normal" font-size="26.3969" writing-mode="lr-tb" x="178.262" y="124.63"><tspan stroke-width="1.33333" x="178.262 195.684 209.938 231.584" y="124.63">HTML</tspan></text><g id="g494" transform="matrix(1.33333,0,0,-1.33333,-66.2867,623.691)"><g id="g496" clip-path="url(#clipPath500)"><g id="g502"><g id="g504"></g><g id="g516"><g id="g514" clip-path="url(#clipPath508)" opacity="0.220001"><g id="g512" transform="matrix(1,0,0,1,209.059,383.395)"><path d=" M 0 0 C -6.448 1.286 -13.209 3.376 -17.371 8.466 C -18.787 10.198 -19.832 12.205 -20.709 14.263 C -21.459 16.024 -22.089 17.834 -22.6 19.679 L -23.216 19.679 C -28.933 19.679 -33.568 15.044 -33.568 9.327 L -33.568 -12.621 C -33.568 -18.338 -28.933 -22.973 -23.216 -22.973 L 20.758 -22.973 C 26.475 -22.973 31.11 -18.338 31.11 -12.621 L 31.11 -5.553 C 21.057 -2.801 10.304 -2.054 0 0" id="path510" stroke="none" fill="#59AFEC" fill-rule="nonzero" fill-opacity="1"/></g></g></g></g><path d=" M 284.433 340.302 L 279.417 340.302 L 279.417 297.159 L 284.433 297.159 Z" id="path518" stroke="none" fill="#9BCED3" fill-rule="nonzero" fill-opacity="1"/><path d=" M 284.433 335.605 L 279.417 335.605 L 279.417 293.79 L 284.433 293.79 Z" id="path520" stroke="none" fill="#9B88FE" fill-rule="nonzero" fill-opacity="1"/><path d=" M 284.433 334.775 L 279.417 334.775 L 279.417 336.435 L 284.433 336.435 Z" id="path522" stroke="none" fill="#CDEBED" fill-rule="nonzero" fill-opacity="1"/><g id="g524" transform="matrix(1,0,0,1,286.812,328.035)"><path d=" M 0 0 L -1.376 -23.244 L 7.5 -23.769 L 8.875 -0.525 Z" id="path526" stroke="none" fill="#F0C40C" fill-rule="nonzero" fill-opacity="1"/></g><g id="g528" transform="matrix(1,0,0,1,295.773,324.563)"><path d=" M 0 0 L -9.395 0.556 L -9.18 4.188 C -9.135 4.939 -8.49 5.512 -7.739 5.468 L -1.064 5.073 C -0.313 5.028 0.259 4.383 0.215 3.632 Z" id="path530" stroke="none" fill="#0D334A" fill-rule="nonzero" fill-opacity="1"/></g><g id="g532" transform="matrix(1,0,0,1,292.337,318.015)"><path d=" M 0 0 L -0.396 0.023 C -1.093 0.065 -1.625 0.664 -1.584 1.361 L -1.199 7.857 C -1.158 8.554 -0.559 9.086 0.138 9.045 L 0.534 9.021 C 1.231 8.98 1.763 8.381 1.722 7.684 L 1.338 1.188 C 1.296 0.491 0.697 -0.041 0 0" id="path534" stroke="none" fill="#0D334A" fill-rule="nonzero" fill-opacity="1"/></g><g id="g536" transform="matrix(1,0,0,1,270.4,323.921)"><path d=" M 0 0 L 1.747 -17.565 L 8.454 -16.897 L 6.707 0.667 Z" id="path538" stroke="none" fill="#59AFEC" fill-rule="nonzero" fill-opacity="1"/></g><g id="g540" transform="matrix(1,0,0,1,277.524,322.392)"><path d=" M 0 0 L -7.099 -0.706 L -7.34 1.711 C -7.414 2.459 -6.867 3.126 -6.119 3.201 L -1.731 3.638 C -0.982 3.712 -0.315 3.165 -0.24 2.417 Z" id="path542" stroke="none" fill="#0D334A" fill-rule="nonzero" fill-opacity="1"/></g><g id="g544" transform="matrix(1,0,0,1,275.584,317.065)"><path d=" M 0 0 L 0 0 C -0.61 -0.061 -1.153 0.384 -1.214 0.994 L -1.672 5.604 C -1.733 6.213 -1.288 6.757 -0.678 6.817 L -0.678 6.817 C -0.069 6.878 0.475 6.433 0.535 5.823 L 0.994 1.214 C 1.055 0.604 0.61 0.061 0 0" id="path546" stroke="none" fill="#0D334A" fill-rule="nonzero" fill-opacity="1"/></g><g id="g548" transform="matrix(1,0,0,1,267.131,313.281)"><path d=" M 0 0 L 2.569 -35.791 L 27.905 -35.791 L 30.473 0 Z" id="path550" stroke="none" fill="#59AFEC" fill-rule="nonzero" fill-opacity="1"/></g><g id="g552" transform="matrix(1,0,0,1,296.821,309.257)"><path d=" M 0 0 L -29.792 0 C -31.139 0 -32.231 1.092 -32.231 2.439 C -32.231 3.785 -31.139 4.877 -29.792 4.877 L 0 4.877 C 1.347 4.877 2.439 3.785 2.439 2.439 C 2.439 1.092 1.347 0 0 0" id="path554" stroke="none" fill="#0D334A" fill-rule="nonzero" fill-opacity="1"/></g><g id="g556"><g id="g558"></g><g id="g570"><g id="g568" clip-path="url(#clipPath562)" opacity="0.220001"><g id="g566" transform="matrix(1,0,0,1,269.7,277.49)"><path d=" M 0 0 L 25.336 0 L 25.39 0.755 C 21.167 3.536 16.613 5.951 12.945 9.419 C 6.85 15.181 3.656 23.513 2.749 31.851 C 2.606 33.162 2.531 34.476 2.486 35.791 L -2.509 35.791 L -2.558 35.646 Z" id="path564" stroke="none" fill="#59AFEC" fill-rule="nonzero" fill-opacity="1"/></g></g></g></g><g id="g572" transform="matrix(1,0,0,1,330.459,214.608)"><path d=" M 0 0 L -14.427 -141.707 C -14.517 -142.594 -13.805 -143.404 -12.746 -143.618 C -11.464 -143.877 -10.189 -143.17 -10.011 -142.101 L 10.814 2.741" id="path574" stroke="none" fill="#1C5E5E" fill-rule="nonzero" fill-opacity="1"/></g><g id="g576" transform="matrix(1,0,0,1,436.13,214.608)"><path d=" M 0 0 L 14.426 -141.707 C 14.517 -142.594 13.805 -143.404 12.746 -143.618 C 11.464 -143.877 10.189 -143.17 10.011 -142.101 L -10.814 2.741" id="path578" stroke="none" fill="#1C5E5E" fill-rule="nonzero" fill-opacity="1"/></g><g id="g580" transform="matrix(1,0,0,1,405.127,105.672)"><path d=" M 0 0 L 0.967 -21.406 C 0.967 -21.406 18.169 -24.095 19.059 -34.736 C -11.147 -34.981 -19.905 -33.129 -19.905 -33.129 L -13.227 12.216" id="path582" stroke="none" fill="#FA92AE" fill-rule="nonzero" fill-opacity="1"/></g><g id="g584" transform="matrix(1,0,0,1,444.59,213.599)"><path d=" M 0 0 L -122.59 0 C -128.651 0 -133.565 4.913 -133.565 10.975 L -133.565 26.291 C -133.565 32.352 -128.651 37.266 -122.59 37.266 L 0 37.266 C 6.061 37.266 10.974 32.352 10.974 26.291 L 10.974 10.975 C 10.974 4.913 6.061 0 0 0" id="path586" stroke="none" fill="#109E9E" fill-rule="nonzero" fill-opacity="1"/></g><g id="g588" transform="matrix(1,0,0,1,388.855,234.75)"><path d=" M 0 0 L -1.405 -132.371 L 20.717 -133.089 L 36.462 -1.724" id="path590" stroke="none" fill="#B0CBEA" fill-rule="nonzero" fill-opacity="1"/></g><g id="g592" transform="matrix(1,0,0,1,424.451,70.9588)"><path d=" M 0 0 C -0.902 10.786 -18.338 13.512 -18.338 13.512 L -18.715 21.853 C -24.632 22.241 -30.571 22.295 -36.494 22.002 L -39.494 1.629 C -39.494 1.629 -30.617 -0.248 0 1.33227e-15" id="path594" stroke="none" fill="#362D6B" fill-rule="nonzero" fill-opacity="1"/></g><g id="g596" transform="matrix(1,0,0,1,330.835,249.275)"><path d=" M 0 0 C 0 0 2.677 -24.268 14.275 -26.512 C 25.872 -28.756 75.548 -23.457 75.548 -23.457 L 72.393 -7.963 Z" id="path598" stroke="none" fill="#B0CBEA" fill-rule="nonzero" fill-opacity="1"/></g><g id="g600" transform="matrix(1,0,0,1,465.669,211.65)"><path d=" M 0 0 L 12.368 -4.685 C 12.368 -4.685 9.584 -33.931 21.049 -35.495 C 23.922 -15.174 24.737 6.615 24.737 6.615 L 4.165 14.168" id="path602" stroke="none" fill="#FA92AE" fill-rule="nonzero" fill-opacity="1"/></g><g id="g604" transform="matrix(1,0,0,1,345.7,234.081)"><path d=" M 0 0 L 121.891 -27.115 L 129.029 -7.974 L 53.81 24.911 L -12.803 28.453 C -12.803 28.453 -22.392 4.981 0 0" id="path606" stroke="none" fill="#C5DCFC" fill-rule="nonzero" fill-opacity="1"/></g><g id="g608" transform="matrix(1,0,0,1,479.89,222.127)"><path d=" M 0 0 C -1.851 -4.527 -3.318 -9.293 -4.863 -14.021 L -1.852 -15.161 C -1.852 -15.161 -4.637 -44.407 6.828 -45.972 C 9.702 -25.65 10.516 -3.861 10.516 -3.861 Z" id="path610" stroke="none" fill="#362D6B" fill-rule="nonzero" fill-opacity="1"/></g><g id="g612" transform="matrix(1,0,0,1,213.192,253.232)"><path d=" M 0 0 L -15.183 -196.518 C -15.278 -197.748 -14.529 -198.871 -13.415 -199.167 C -12.065 -199.527 -10.724 -198.547 -10.537 -197.064 L 14 -2.473" id="path614" stroke="none" fill="#4A3D99" fill-rule="nonzero" fill-opacity="1"/></g><g id="g616" transform="matrix(1,0,0,1,553.397,253.232)"><path d=" M 0 0 L 15.183 -196.518 C 15.278 -197.748 14.529 -198.871 13.415 -199.167 C 12.065 -199.527 10.724 -198.547 10.537 -197.064 L -14 -2.473" id="path618" stroke="none" fill="#4A3D99" fill-rule="nonzero" fill-opacity="1"/></g><g id="g620" transform="matrix(1,0,0,1,584.894,242.127)"><path d=" M 0 0 L -403.199 0 C -406.031 0 -408.327 2.296 -408.327 5.128 L -408.327 26.734 C -408.327 29.566 -406.031 31.861 -403.199 31.861 L 0 31.861 C 2.832 31.861 5.128 29.566 5.128 26.734 L 5.128 5.128 C 5.128 2.296 2.832 0 0 0" id="path622" stroke="none" fill="#362D6B" fill-rule="nonzero" fill-opacity="1"/></g><g id="g624" transform="matrix(1,0,0,1,614.269,265.245)"><path d=" M 0 0 L -461.949 0 C -464.781 0 -467.077 2.296 -467.077 5.128 L -467.077 7.117 C -467.077 9.949 -464.781 12.245 -461.949 12.245 L 0 12.245 C 2.832 12.245 5.128 9.949 5.128 7.117 L 5.128 5.128 C 5.128 2.296 2.832 0 0 0" id="path626" stroke="none" fill="#4A3D99" fill-rule="nonzero" fill-opacity="1"/></g></g></g></svg>